<?xml version="1.0" encoding="utf-8" ?>
<svg xmlns="http://www.w3.org/2000/svg" xmlns:xlink="http://www.w3.org/1999/xlink" width="116" height="116">
	<path fill="#C0BDC3" d="M64.5625 20.2777L63.8037 12.054C63.7968 11.1911 63.9885 10.3725 64.6306 9.7505C65.3297 9.07314 65.798 8.99789 66.7092 9.02458C67.6512 9.3061 67.959 9.32035 68.44 10.2288C68.8128 10.933 68.7796 11.9293 68.8358 12.7138C68.9784 14.7057 69.5052 17.5601 69.0613 19.4581C68.5382 19.7165 68.0664 19.8471 67.5 19.9582C67.418 19.9158 66.8949 19.678 66.875 19.6355C66.7772 19.4272 66.8646 18.5851 66.8638 18.3188C66.8584 16.5741 67.3229 13.8439 66.3155 12.46C66.2938 14.8578 66.5506 17.7541 65.855 20.0603L64.5625 20.2777Z"/>
	<path fill="#979799" d="M46.2535 6.23425C46.9074 5.87848 47.6098 5.99739 48.298 6.2011C48.7473 6.33408 49.1305 6.59789 49.3576 7.00853C49.7404 7.70079 49.6942 8.92154 49.7072 9.70681C49.7459 12.0493 49.8082 14.451 49.4839 16.7754C48.4039 16.6384 47.3863 16.5823 46.2971 16.609C45.8725 16.7235 45.3865 16.8104 45.0149 17.0497L44.9563 16.8009C44.4957 14.7216 44.7063 12.3594 44.7274 10.2237C44.736 9.35678 44.6418 8.31076 44.9392 7.48251C45.2154 6.71294 45.5757 6.57058 46.2535 6.23425Z"/>
	<path fill="#C0BDC3" d="M44.9563 16.8009C44.4957 14.7216 44.7063 12.3594 44.7274 10.2237C44.736 9.35678 44.6418 8.31076 44.9392 7.48251C45.2154 6.71294 45.5757 6.57058 46.2535 6.23425L46.8422 6.68116C46.9018 7.59668 46.5988 8.44317 46.5312 9.34884L46.0782 16.375L44.9563 16.8009Z"/>
	<path fill="#242425" d="M49.4839 16.7754C49.0668 19.2266 49.1508 22.097 49.3874 24.5704C49.4344 25.0625 49.4458 25.9874 49.7212 26.3947L49.7022 26.4528C49.2298 27.9548 49.4635 30.052 49.4579 31.6379C48.5049 31.4179 46.1724 31.499 45.6484 30.875L45.8018 28.6534L45.4301 28.1627C45.0439 27.6284 45.0716 26.9157 45.025 26.2787C44.8932 25.2368 45.0622 24.0598 45.074 22.9986L45.0149 17.0497C45.3865 16.8104 45.8725 16.7235 46.2971 16.609C47.3863 16.5823 48.4039 16.6384 49.4839 16.7754Z"/>
	<path fill="#3F4041" d="M45.0149 17.0497C45.3865 16.8104 45.8725 16.7235 46.2971 16.609C47.5119 19.1586 46.6482 22.2256 46.3022 24.875C46.1366 26.1427 46.1746 27.4131 45.8018 28.6534L45.4301 28.1627C45.0439 27.6284 45.0716 26.9157 45.025 26.2787C44.8932 25.2368 45.0622 24.0598 45.074 22.9986L45.0149 17.0497Z"/>
	<defs>
		<linearGradient id="gradient_0" gradientUnits="userSpaceOnUse" x1="86.068382" y1="91.570724" x2="27.852346" y2="39.660774">
			<stop offset="0" stop-color="#0D0D0C"/>
			<stop offset="1" stop-color="#2E2E2F"/>
		</linearGradient>
	</defs>
	<path fill="url(#gradient_0)" d="M66.3155 12.46C67.3229 13.8439 66.8584 16.5741 66.8638 18.3188C66.8646 18.5851 66.7772 19.4272 66.875 19.6355C66.8949 19.678 67.418 19.9158 67.5 19.9582C68.0664 19.8471 68.5382 19.7165 69.0613 19.4581C69.1038 22.2205 68.6374 27.8405 70.4432 29.875C71.3163 30.1896 72.0119 30.0939 72.875 30.2661C74.3319 30.5568 75.927 31.9341 76.537 33.2682L76.615 33.4549C77.2857 34.5014 77.1485 36.3333 77.1989 37.5589L77.3871 48.8838C77.3865 49.1528 77.2997 51.0126 77.3748 51.1157C77.436 51.1998 78.2908 51.4166 78.4701 51.4757C79.8849 51.9421 82.6313 52.6379 83.4655 53.9629C83.5926 54.1648 83.5435 55.7493 83.5565 56.0763L83.753 65.2099L84.2474 92.4339L84.3408 98.9429C84.3551 100.055 84.4948 101.346 84.248 102.428C83.8575 104.141 81.6104 105.776 80.1721 106.651C78.6426 107.582 77.0377 108.279 75.3582 108.888C74.0674 109.202 72.7709 109.568 71.4402 109.65C70.3564 109.831 69.0284 109.715 67.9204 109.728C61.6506 109.802 55.8301 108.116 49.7458 106.875C46.1136 106.134 42.2279 105.624 38.7361 104.347C37.175 104.002 34.9673 103.237 33.75 102.173C33.2688 101.752 33.1073 101.369 33.0017 100.755C32.4295 97.4292 32.6771 93.6207 32.6184 90.2334L32.1176 65.6509L31.9263 57.7627C31.8268 56.571 31.3525 53.0546 32.0572 52.173C33.8855 49.8859 35.4603 49.0192 38.2154 48.0129L37.8339 35.6709C37.7575 33.3982 37.2877 30.0779 37.875 27.9137C39.6983 26.2955 42.7861 27.2257 44.9649 26.3049L45.025 26.2787C45.0716 26.9157 45.0439 27.6284 45.4301 28.1627L45.8018 28.6534L45.6484 30.875C46.1724 31.499 48.5049 31.4179 49.4579 31.6379C49.4635 30.052 49.2298 27.9548 49.7022 26.4528L49.7212 26.3947C52.6641 26.6721 55.7292 27.1615 58.625 27.7497C60.6488 28.1608 63.0427 28.7501 65.1146 28.6661L64.5625 20.2777L65.855 20.0603C66.5506 17.7541 66.2938 14.8578 66.3155 12.46Z"/>
	<path fill="#3F4041" d="M64.5625 20.2777L65.855 20.0603C65.8379 20.4957 65.6712 21.4945 65.7835 21.875C65.9719 22.5137 66.3991 22.8594 66.4737 23.6136C66.7878 26.7886 66.573 30.6392 66.0594 33.7951C65.5808 32.0853 65.1824 30.4522 65.1146 28.6661L64.5625 20.2777Z"/>
	<path fill="#242425" d="M48.3333 74.125C49.1193 73.8358 50.5825 74.4327 51.3917 74.6461L50.3207 76.7343C50.0546 77.3224 50.0217 77.3397 50.25 77.947C50.7372 77.9722 51.1716 77.9869 51.625 78.1896L51.7725 78.75C51.2611 79.7306 50.3684 80.4539 49.5674 81.195L48 82.4799L47.6962 82.25C47.8794 81.2017 48.8061 80.4524 48.7238 79.375C48.2891 79.0668 47.8068 78.8839 47.3167 78.6845L46.9926 77.875C47.1521 76.5609 47.4042 75.0726 48.3333 74.125Z"/>
	<path fill="#545357" d="M40.0177 31.125L40.6064 31.0653C40.7376 31.1878 41.1298 31.4818 41.2057 31.625C41.4049 32.0007 41.3018 33.8537 41.3215 34.3549L41.709 47.2453C41.7345 49.336 41.416 51.5641 41.758 53.625L41.1054 53.6415L40.4953 53C39.0556 48.2861 39.7047 41.9684 39.7411 37.0646C39.7536 35.3759 39.4284 32.6868 40.0177 31.125Z"/>
	<path fill="#3F4041" d="M37.4873 56.1706C38.3566 56.3381 39.1669 56.5853 40.0028 56.875C39.3146 57.0405 38.6544 56.5185 38.2488 57.1693C37.6001 58.2102 37.5847 67.2944 37.8838 68.7543C38.2159 70.3755 37.9102 71.4055 37.8663 72.9865C37.8512 73.5293 38.1149 74.0003 38.1119 74.4951C38.1049 75.6228 37.7107 75.948 38.1863 77.1472C38.5247 78.0003 38.3925 79.1914 38.3929 80.1085L38.3456 86.6213C37.9897 87.0306 37.8794 87.0978 37.9227 87.662C38.0708 89.5891 38.389 91.2306 38.3148 93.2148L37.9286 93.4351L37.8125 93.0625L37.8555 93.0002C38.0827 92.6279 38.0349 91.893 37.9163 91.4761L37.8181 91.2222C37.6672 90.8521 37.7021 90.3332 37.6912 89.9343L37.5597 90.464L36.8775 90.25C36.8631 89.2524 36.8721 88.4628 37.1275 87.5C36.8232 86.9791 36.825 60.4753 36.9919 57.8431C37.0289 57.2604 37.3928 56.7691 37.4873 56.1706Z"/>
	<path fill="#3F4041" d="M75.9513 59.378L76.1182 59.7052L76.0566 59.7864C75.757 60.1863 75.4688 60.6756 75.3787 61.1728C74.7841 64.453 75.0853 68.4019 75.086 71.7571L75.5397 99.5253C75.5804 102.602 76.1797 105.881 75.3582 108.888C74.0674 109.202 72.7709 109.568 71.4402 109.65C71.0833 109.007 70.4035 64.1628 70.7656 60.5675C72.6422 60.453 74.1674 59.8912 75.9513 59.378Z"/>
	<path fill="#545357" d="M33.2908 55.054C34.7678 55.2571 36.0577 55.8253 37.4873 56.1706C37.3928 56.7691 37.0289 57.2604 36.9919 57.8431C36.825 60.4753 36.8232 86.9791 37.1275 87.5C36.8721 88.4628 36.8631 89.2524 36.8775 90.25L37.5597 90.464L37.6243 99.2056C37.6204 100.426 37.8178 102.123 37.3725 103.251L37.5 103.5L38 103.625L37.75 102.75L38.0174 102.601C38.2599 103.003 38.4282 103.271 38.375 103.75C38.6137 103.983 38.6561 104.027 38.7361 104.347C37.175 104.002 34.9673 103.237 33.75 102.173C33.2688 101.752 33.1073 101.369 33.0017 100.755C32.4295 97.4292 32.6771 93.6207 32.6184 90.2334L32.1176 65.6509L31.9263 57.7627L32.125 55.1641L33.2908 55.054Z"/>
	<path fill="#242425" d="M75.9513 59.378L75.9381 59.3233C76.386 58.1865 77.742 58.1531 78.4298 57.375C76.5421 57.0892 74.8354 56.6238 72.875 56.8725C71.5001 57.0469 70.1443 57.4737 68.75 57.6225L68.5 57.375C69.0211 57.1759 69.7639 57.2079 70.2183 56.9523C70.7823 56.6351 71.3011 56.8826 71.875 56.5C72.956 56.5127 73.9899 56.2694 75 56.25C75.3976 56.2424 76.26 56.5942 76.6875 56.6875C76.7191 56.0862 76.6598 55.6353 77 55.125L76.9944 42.1212C76.9797 41.5575 76.7597 41.0146 76.7466 40.5237C76.6905 38.4248 77.1323 35.5984 76.3588 33.7297L76.3372 33.6821L76.615 33.4549C77.2857 34.5014 77.1485 36.3333 77.1989 37.5589L77.3871 48.8838C77.3865 49.1528 77.2997 51.0126 77.3748 51.1157C77.436 51.1998 78.2908 51.4166 78.4701 51.4757C79.8849 51.9421 82.6313 52.6379 83.4655 53.9629C83.5926 54.1648 83.5435 55.7493 83.5565 56.0763L83.753 65.2099L84.2474 92.4339L84.3408 98.9429C84.3551 100.055 84.4948 101.346 84.248 102.428C83.8575 104.141 81.6104 105.776 80.1721 106.651C78.6426 107.582 77.0377 108.279 75.3582 108.888C76.1797 105.881 75.5804 102.602 75.5397 99.5253L75.086 71.7571C75.0853 68.4019 74.7841 64.453 75.3787 61.1728C75.4688 60.6756 75.757 60.1863 76.0566 59.7864L76.1182 59.7052L75.9513 59.378Z"/>
</svg>
