<?xml version="1.0" encoding="utf-8" ?>
<svg xmlns="http://www.w3.org/2000/svg" xmlns:xlink="http://www.w3.org/1999/xlink" width="116" height="116">
	<defs>
		<linearGradient id="gradient_0" gradientUnits="userSpaceOnUse" x1="27.111898" y1="73.998039" x2="11.467998" y2="74.47995">
			<stop offset="0" stop-color="#D6D6D9"/>
			<stop offset="1" stop-color="white"/>
		</linearGradient>
	</defs>
	<path fill="url(#gradient_0)" d="M11.7267 52.0052L12.3775 51.875C12.8712 52.3818 13.7571 53.534 14.4034 53.7151C14.6188 53.7755 14.8368 53.9888 15.0108 54.1291C15.3374 54.438 16.4388 55.6976 16.7783 55.7846C17.1836 56.4812 17.7316 57.8363 18.3775 58.25L18.3882 58.297C18.6081 59.2222 19.6137 60.1955 19.6726 61.0252C20.3638 61.3507 20.3754 61.7458 20.8273 62.3248C21.8476 63.6321 23.1578 64.0066 24.7485 63.8162C25.5913 63.282 25.948 62.458 26.803 61.891L27.2701 62.0604L27.3854 62.4232C27.8143 64.3184 27.2953 66.9315 27.2969 68.9228L27.3976 82.7061C27.4191 85.668 27.5384 88.7017 27.2276 91.652C27.1213 92.6609 26.769 93.8959 26.2278 94.7679C25.7652 95.5135 24.8642 96.25 23.9924 96.432C21.3147 96.9911 15.8775 97.6384 13.4883 96.0584C12.1845 95.1961 11.8039 94.1784 11.5044 92.651C10.8856 89.4949 11.2564 85.7588 11.2677 82.5316L11.3654 63.9771C11.3961 60.3724 11.031 56.4303 11.358 52.875C11.3862 52.5682 11.556 52.2554 11.7267 52.0052Z"/>
	<path fill="#CDCCCF" d="M19.6733 79.875L20.1972 79.8218C20.2934 79.8932 20.7863 80.2054 20.8144 80.2794C20.9018 80.5102 20.8381 81.1137 20.854 81.3856C20.9165 82.4605 21.0856 83.779 21.795 84.6097L21.375 85.1223C20.839 85.138 20.3939 85.0843 19.875 84.9496C19.6132 84.5683 19.3994 84.1763 19.2983 83.7214C19.0445 82.5797 19.0418 80.8866 19.6733 79.875Z"/>
	<defs>
		<linearGradient id="gradient_1" gradientUnits="userSpaceOnUse" x1="88.511955" y1="71.869202" x2="105.27262" y2="73.15519">
			<stop offset="0" stop-color="#D6D5D7"/>
			<stop offset="1" stop-color="white"/>
		</linearGradient>
	</defs>
	<path fill="url(#gradient_1)" d="M98.9379 56.3172C99.3166 56.3161 102.123 53.0493 102.612 52.592C103.014 52.2162 103.543 51.9155 104.011 51.625C104.253 52.0833 104.362 52.6675 104.505 53.1672L104.662 71.0771L104.767 85.7927C104.764 88.1208 105.048 90.9887 104.415 93.2215C104.051 94.4626 103.548 95.4966 102.36 96.1569C99.6914 97.6394 94.6857 97.1492 91.821 96.2618C91.4468 96.1459 91.1051 95.9181 90.7908 95.6891C90.645 95.6485 90.4971 95.5919 90.3889 95.4814C89.8209 94.9012 89.0768 93.7124 88.9333 92.9169C88.3674 89.7796 88.7583 85.924 88.7483 82.7063L88.5697 62.2236C88.8842 62.4204 89.9383 62.2989 90.382 62.3573C90.7447 62.405 91.0265 62.6402 91.36 62.7692C92.2497 63.1134 93.9793 62.8069 94.6724 62.0744C95.6129 61.0804 95.4659 60.4253 96.9669 59.8083C97.3077 59.6683 98.4777 56.8808 98.9379 56.3172Z"/>
	<path fill="#E6E4E7" d="M93.75 80.375C94.1297 80.0915 94.9082 80.1531 95.375 80.1275L96.1225 80.875C96.1225 81.4662 96.2097 81.8688 95.875 82.3725C95.9196 83.0142 95.7983 83.5141 95.625 84.1225C95.4897 84.0494 95.3404 83.9699 95.1887 83.9363C94.7026 83.8282 94.5189 83.8599 94.125 84.1225L93.5625 83.9375C93.5137 83.0102 93.6876 82.8171 93.8725 82C93.9513 81.6517 93.779 80.76 93.75 80.375Z"/>
	<path fill="#E6E4E7" d="M90.7908 95.6891C91.3486 95.6048 91.6973 95.5784 92.2059 95.8485L92.25 95.8725C92.5398 95.6013 92.7683 95.3215 92.9988 94.9988C93.0182 94.7023 92.9349 94.4133 92.8725 94.125C93.6342 93.9776 93.897 94.0085 94.375 93.3775C96.2173 93.3775 97.8868 92.9424 99.7413 93.151C100.852 93.2758 102.038 93.9031 103.25 94.077C103.667 93.821 104.038 93.5324 104.415 93.2215C104.051 94.4626 103.548 95.4966 102.36 96.1569C99.6914 97.6394 94.6857 97.1492 91.821 96.2618C91.4468 96.1459 91.1051 95.9181 90.7908 95.6891Z"/>
	<defs>
		<linearGradient id="gradient_2" gradientUnits="userSpaceOnUse" x1="97.898369" y1="57.077141" x2="84.265823" y2="37.104885">
			<stop offset="0" stop-color="#CECED0"/>
			<stop offset="1" stop-color="white"/>
		</linearGradient>
	</defs>
	<path fill="url(#gradient_2)" d="M101.807 28.7792L101.928 28.4212C101.483 27.7896 101.126 27.2769 100.431 26.9066L100.375 26.8775L100.444 26.5686C100.824 26.5532 101.243 26.5596 101.615 26.4786C102.618 26.2602 101.764 25.8776 102.212 25.1936C103.136 25.7004 103.155 24.9667 103.774 25.1087C103.918 25.1417 104.213 25.7719 104.382 25.8629C104.568 25.9638 105.179 25.966 105.417 25.9967C108.46 29.6441 110.056 34.2945 109.621 39.057C109.337 42.1609 107.954 45.3634 106.322 47.9843C105.777 48.8605 104.872 49.9659 104.572 50.9452C104.376 51.5861 104.474 52.4969 104.505 53.1672C104.362 52.6675 104.253 52.0833 104.011 51.625C103.543 51.9155 103.014 52.2162 102.612 52.592C102.123 53.0493 99.3166 56.3161 98.9379 56.3172C98.4777 56.8808 97.3077 59.6683 96.9669 59.8083C95.4659 60.4253 95.6129 61.0804 94.6724 62.0744C93.9793 62.8069 92.2497 63.1134 91.36 62.7692C91.0265 62.6402 90.7447 62.405 90.382 62.3573C89.9383 62.2989 88.8842 62.4204 88.5697 62.2236L88.5637 61.9861C87.9719 61.8098 87.1221 62.0789 86.5168 62.1899C83.5869 63.2613 78.9654 63.1687 75.9819 62.3047C71.7645 61.0833 67.7177 57.7517 65.5794 53.8693C66.4141 54.0292 67.1365 54.1478 67.9892 54.1654C69.0597 55.6176 70.2753 56.9078 71.7355 57.9721C72.8203 58.7626 73.8462 59.4369 75.25 59.2198C75.8871 58.7549 76.2182 58.2888 76.4182 57.5C77.0093 55.1688 75.3525 52.2106 74.245 50.2181C75.3211 48.7242 78.088 48.185 79.7611 47.5922C80.8135 47.2192 81.8578 46.6617 82.8259 46.1067C83.9533 45.4605 85.522 44.3186 86.4957 43.459C87.0732 42.9492 87.7988 41.9448 88.4308 41.59C88.6822 41.4489 89.1161 41.5011 89.3721 41.3639C89.7037 41.1862 90.2919 40.355 90.573 40.0467C91.834 40.2089 92.9695 40.0415 94.147 39.5519C96.269 38.6695 101.458 35.4386 102.293 33.3386C102.893 31.8298 102.397 30.1933 101.807 28.7792Z"/>
	<path fill="#CDCCCF" d="M86.5168 62.1899L86.4114 61.8297L86.875 61.3775L87.3125 61.6875L87.5012 61.2512C87.693 61.366 89.3089 61.764 89.5842 61.7631C89.9937 61.7617 90.394 61.5181 90.7814 61.4009C91.5591 61.1656 92.5285 60.9371 93.2576 60.5802C93.6171 60.4043 93.8615 59.9252 94.1875 59.6875C95.702 58.5833 97.1379 57.4801 98.5 56.1281L98.9379 56.3172C98.4777 56.8808 97.3077 59.6683 96.9669 59.8083C95.4659 60.4253 95.6129 61.0804 94.6724 62.0744C93.9793 62.8069 92.2497 63.1134 91.36 62.7692C91.0265 62.6402 90.7447 62.405 90.382 62.3573C89.9383 62.2989 88.8842 62.4204 88.5697 62.2236L88.5637 61.9861C87.9719 61.8098 87.1221 62.0789 86.5168 62.1899Z"/>
	<path fill="#F3F3F5" d="M65.5794 53.8693L65.5533 53.8537C63.1504 49.9027 61.7949 46.0573 62.3516 41.375C63.0874 35.1868 68.3102 29.4056 73.0288 25.7729C77.3369 22.4562 84.2672 19.3528 89.76 19.0604C91.1624 18.9857 92.71 19.2531 94.1021 19.4268C98.5187 19.978 102.702 22.5046 105.417 25.9967C105.179 25.966 104.568 25.9638 104.382 25.8629C104.213 25.7719 103.918 25.1417 103.774 25.1087C103.155 24.9667 103.136 25.7004 102.212 25.1936C101.764 25.8776 102.618 26.2602 101.615 26.4786C101.243 26.5596 100.824 26.5532 100.444 26.5686L100.375 26.8775L100.431 26.9066C101.126 27.2769 101.483 27.7896 101.928 28.4212L101.807 28.7792C102.397 30.1933 102.893 31.8298 102.293 33.3386C101.458 35.4386 96.269 38.6695 94.147 39.5519C92.9695 40.0415 91.834 40.2089 90.573 40.0467C90.2919 40.355 89.7037 41.1862 89.3721 41.3639C89.1161 41.5011 88.6822 41.4489 88.4308 41.59C87.7988 41.9448 87.0732 42.9492 86.4957 43.459C85.522 44.3186 83.9533 45.4605 82.8259 46.1067C81.8578 46.6617 80.8135 47.2192 79.7611 47.5922C78.088 48.185 75.3211 48.7242 74.245 50.2181C75.3525 52.2106 77.0093 55.1688 76.4182 57.5C76.2182 58.2888 75.8871 58.7549 75.25 59.2198C73.8462 59.4369 72.8203 58.7626 71.7355 57.9721C70.2753 56.9078 69.0597 55.6176 67.9892 54.1654C67.1365 54.1478 66.4141 54.0292 65.5794 53.8693Z"/>
	<path fill="#29292B" d="M67.9892 54.1654C66.0796 51.4849 64.2745 48.5257 64.4942 45.1135C64.5571 44.1362 64.8164 43.6984 65.5149 43.08C65.9244 43.0021 66.377 42.9385 66.7884 43.0288C69.9537 43.7241 72.646 47.6627 74.245 50.2181C75.3525 52.2106 77.0093 55.1688 76.4182 57.5C76.2182 58.2888 75.8871 58.7549 75.25 59.2198C73.8462 59.4369 72.8203 58.7626 71.7355 57.9721C70.2753 56.9078 69.0597 55.6176 67.9892 54.1654Z"/>
	<defs>
		<linearGradient id="gradient_3" gradientUnits="userSpaceOnUse" x1="95.626122" y1="38.850109" x2="93.448822" y2="27.539217">
			<stop offset="0" stop-color="#212127"/>
			<stop offset="1" stop-color="#3B3B3B"/>
		</linearGradient>
	</defs>
	<path fill="url(#gradient_3)" d="M90.573 40.0467C89.9321 39.774 89.2868 39.4223 88.75 38.9756C87.6425 38.0541 86.9239 36.7971 86.8271 35.345C86.7439 34.0975 87.2926 32.9156 88.1068 31.9987C89.7059 30.1979 94.8703 26.5719 97.2051 26.4727C99.1193 26.3914 100.493 27.5492 101.807 28.7792C102.397 30.1933 102.893 31.8298 102.293 33.3386C101.458 35.4386 96.269 38.6695 94.147 39.5519C92.9695 40.0415 91.834 40.2089 90.573 40.0467Z"/>
	<path fill="#F3F3F5" d="M11.7267 52.0052C11.8425 51.0267 11.0951 50.2596 10.625 49.4661L8.3008 45.2023C6.11761 40.9852 5.90186 36.4522 7.33346 31.9766C8.74208 27.5728 11.6931 23.5869 15.8707 21.4578C21.311 18.6851 26.9471 18.5395 32.6798 20.4022C40.3465 22.8934 48.3461 28.9876 51.9975 36.256C54.0177 40.2772 54.2836 44.5702 52.8895 48.8087C52.5879 49.8332 52.1607 50.7725 51.7118 51.7376C50.6821 53.639 49.7637 55.2257 48.2648 56.8016L48.1976 56.8158C46.3933 59.1185 44.4097 60.4651 41.7919 61.6905C38.223 63.147 34.2397 63.1204 30.4679 62.4744C29.6949 62.342 28.4828 61.7999 27.7656 61.8207C27.6681 61.8235 27.3744 62.0099 27.2701 62.0604L26.803 61.891C25.948 62.458 25.5913 63.282 24.7485 63.8162C23.1578 64.0066 21.8476 63.6321 20.8273 62.3248C20.3754 61.7458 20.3638 61.3507 19.6726 61.0252C19.6137 60.1955 18.6081 59.2222 18.3882 58.297L18.3775 58.25C17.7316 57.8363 17.1836 56.4812 16.7783 55.7846C16.4388 55.6976 15.3374 54.438 15.0108 54.1291C14.8368 53.9888 14.6188 53.7755 14.4034 53.7151C13.7571 53.534 12.8712 52.3818 12.3775 51.875L11.7267 52.0052Z"/>
	<path fill="#E6E4E7" d="M48.8265 53.2164C49.6238 52.9958 49.8989 52.5627 50.3422 51.9053C50.7846 52.0327 51.2773 51.8485 51.7118 51.7376C50.6821 53.639 49.7637 55.2257 48.2648 56.8016L48.1976 56.8158L47.8869 56.4981C48.3785 55.9985 48.4315 55.5719 48.875 55.1225L48.6875 54.6238C46.8405 56.3982 45.5446 58.3613 43.06 59.3784C42.694 59.5282 42.206 59.8088 41.8147 59.803C41.2021 59.7939 40.2603 59.6605 39.789 59.2484C39.3657 58.48 39.1567 58.029 39.3971 57.1722L39.4458 57.0074L40.219 58.75C40.8066 59.1879 41.0025 59.3136 41.7544 59.2592C44.5241 59.059 47.1821 55.1149 48.8265 53.2164Z"/>
	<path fill="#B2B2B3" d="M15.0108 54.1291C15.4731 54.3179 15.975 54.5592 16.4738 54.6158C16.6886 54.6402 17.2152 54.5591 17.375 54.6275C18.003 54.8962 18.7719 55.7128 19.3606 56.132C20.7704 57.1359 22.2952 58.0707 23.7896 58.9412C24.6604 59.4484 26.1378 59.7709 26.6641 60.5636C25.3375 60.9949 24.3218 59.7056 23.125 59.5C22.4707 59.3876 22.0022 59.6292 21.25 59.375C22.0549 60.2472 23.044 60.6456 24.0343 61.2696C20.1255 60.8001 19.8311 56.8081 16.7783 55.7846C16.4388 55.6976 15.3374 54.438 15.0108 54.1291Z"/>
	<path fill="#CDCCCF" d="M16.7783 55.7846C19.8311 56.8081 20.1255 60.8001 24.0343 61.2696C24.8665 61.264 26.4304 61.0556 27.125 61.5L27.6641 61.2855C28.0484 61.4644 28.6134 61.3087 28.75 61.3775C28.8814 61.4437 28.9937 61.6889 29.125 61.75C29.5456 61.9458 29.6486 61.4029 30.1875 61.9375L30.5 61.6275C31.433 61.8384 32.8659 61.9678 33.625 62.5L33.7176 62.4852C34.4246 62.3792 37.0395 62.7358 37.447 62.3741C37.6512 62.1929 37.7998 62.0876 38.0625 62.0012L38.1616 61.9666C38.4558 61.8677 38.6942 61.8626 39 61.875L39.25 61.6275C39.7145 61.6324 40.3782 61.7215 40.8105 61.5698C41.0857 61.4732 41.5119 61.6246 41.7919 61.6905C38.223 63.147 34.2397 63.1204 30.4679 62.4744C29.6949 62.342 28.4828 61.7999 27.7656 61.8207C27.6681 61.8235 27.3744 62.0099 27.2701 62.0604L26.803 61.891C25.948 62.458 25.5913 63.282 24.7485 63.8162C23.1578 64.0066 21.8476 63.6321 20.8273 62.3248C20.3754 61.7458 20.3638 61.3507 19.6726 61.0252C19.6137 60.1955 18.6081 59.2222 18.3882 58.297L18.3775 58.25C17.7316 57.8363 17.1836 56.4812 16.7783 55.7846Z"/>
	<path fill="#29292B" d="M39.4458 57.0074C39.9198 52.5698 42.7488 47.9445 45.9776 44.9262C47.1591 43.8218 48.4435 42.9517 50.125 43.013C50.9512 43.4594 51.1021 43.7894 51.5942 44.5935C52.0098 45.924 51.6801 47.9753 52.8895 48.8087C52.5879 49.8332 52.1607 50.7725 51.7118 51.7376C51.2773 51.8485 50.7846 52.0327 50.3422 51.9053C49.8989 52.5627 49.6238 52.9958 48.8265 53.2164C47.1821 55.1149 44.5241 59.059 41.7544 59.2592C41.0025 59.3136 40.8066 59.1879 40.219 58.75L39.4458 57.0074Z"/>
	<path fill="#CDCCCF" d="M51.5942 44.5935C52.0098 45.924 51.6801 47.9753 52.8895 48.8087C52.5879 49.8332 52.1607 50.7725 51.7118 51.7376C51.2773 51.8485 50.7846 52.0327 50.3422 51.9053C49.8989 52.5627 49.6238 52.9958 48.8265 53.2164C50.4942 50.2695 51.481 48.0073 51.5942 44.5935Z"/>
	<defs>
		<linearGradient id="gradient_4" gradientUnits="userSpaceOnUse" x1="19.871023" y1="38.634666" x2="22.644363" y2="27.80525">
			<stop offset="0" stop-color="#212126"/>
			<stop offset="1" stop-color="#3B3B3B"/>
		</linearGradient>
	</defs>
	<path fill="url(#gradient_4)" d="M17.6061 26.5357C18.6253 26.4522 19.4869 26.4442 20.4331 26.8843C22.8186 27.9938 28.0856 31.1751 28.952 33.6652C29.3997 34.952 29.2458 36.171 28.6405 37.3806C27.8926 38.8749 26.694 39.5103 25.1867 40.016C24.2206 40.1228 23.1938 40.1205 22.2829 39.755C20.114 38.8848 14.6737 35.5703 13.7738 33.3908C13.3307 32.3178 13.4522 30.815 13.884 29.7602C14.5891 28.0382 15.9765 27.2143 17.6061 26.5357Z"/>
</svg>
