<?xml version="1.0" encoding="utf-8" ?>
<svg xmlns="http://www.w3.org/2000/svg" xmlns:xlink="http://www.w3.org/1999/xlink" width="116" height="117">
	<path fill="#464546" transform="scale(1 1.00862)" d="M18.9658 12.9641C19.8191 12.2145 21.3224 12.4475 22.4038 12.4871C27.2534 12.5623 32.1916 13.4823 37.0253 13.9711L47.9517 15.1252C49.8891 15.3184 51.9839 15.3457 53.8754 15.8409C55.0228 16.1413 56.0676 16.7358 56.8924 17.592C57.854 18.5902 58.5604 19.9452 59.2763 21.1286L62.9947 27.383L74.7574 47.1148L91.5857 75.2664L99.559 88.6732C100.372 90.1989 101.127 91.6498 101.083 93.4169C101.073 93.7922 101.047 94.1673 100.96 94.5334C99.6447 97.1045 97.3494 100.242 94.5085 101.188C92.8664 101.735 90.555 101.638 88.82 101.751L74.129 102.546L68.5456 102.804C68.0169 102.828 67.2373 103.067 66.7461 102.944L62.1327 103.398C60.672 103.456 59.3823 103.425 57.9821 102.961C56.7333 102.547 55.7581 101.828 54.9207 100.815C53.1476 98.6697 52.0439 95.791 50.8154 93.3007L45.9408 83.6267L27.5623 47.0512L22.4301 36.8433C21.6176 35.2197 20.6336 33.7204 20.0555 31.9895L20.041 31.9921L17.1381 26.4943C16.3581 25.0471 14.6258 22.0447 14.6641 20.4603C14.6792 19.8375 15.1097 18.8162 15.2967 18.1921L15.6744 17.08C16.2163 15.7778 17.6462 13.5078 18.9658 12.9641Z"/>
	<path fill="#666567" transform="scale(1 1.00862)" d="M81.8929 89.875L82.5002 89.7226C83.2437 90.3953 84.2897 89.8407 84.8447 90.3966L83.8072 90.5342L83.5041 91.1917C82.901 91.5852 82.1937 91.5281 81.5 91.5396C80.9421 91.1677 80.8743 91.1188 80.6275 90.5C80.9733 90.0698 81.3793 90.035 81.8929 89.875Z"/>
	<path fill="#585757" transform="scale(1 1.00862)" d="M76.5995 90.6863C76.897 91.2392 77.1497 91.8295 77.6875 92.1875L77.7328 92.1473C78.4085 91.5743 80.023 91.5933 80.875 91.75C80.9791 91.7691 81.038 91.8157 81.1225 91.875C80.1506 92.5208 78.7386 91.8081 77.5 92.6203L76.625 92.0225C76.4742 92.3378 76.4036 92.3859 76.5217 92.7319L75.3061 93.0787C74.9767 92.6822 74.5851 92.3392 74.2092 91.9877C74.9001 91.3311 75.7306 91.0329 76.5995 90.6863Z"/>
	<path fill="#3C3A3A" transform="scale(1 1.00862)" d="M76.5217 92.7319C77.1792 92.7673 77.8428 92.8342 78.4909 92.6957C79.1913 92.5461 80.5791 93.3708 80.6959 93.2955C81.087 93.0434 81.9275 93.0268 82.3775 93.125C83.5109 93.3723 84.4407 93.3148 85.625 93.3725C86.4605 92.8808 87.6639 93.0741 88.6345 93.0614C83.3797 94.0817 77.8787 94.0166 72.5143 94.0361C72.9471 93.7427 73.4116 93.3672 73.9421 93.3046L75.3061 93.0787L76.5217 92.7319Z"/>
	<path fill="#272627" transform="scale(1 1.00862)" d="M40.9734 17.125C41.2091 17.0671 41.512 17.1583 41.75 17.1994C43.5092 18.7893 44.9515 21.0282 46.2626 22.9901C46.8087 23.8073 47.8284 25.0035 47.625 26.028C47.2208 26.3771 46.6299 26.3004 46.125 26.3029C45.4782 25.7032 44.8106 24.9714 44.375 24.2042C43.5977 22.8353 43.2681 21.1733 42.5443 19.7707C42.0787 18.8682 41.0678 18.1777 40.9734 17.125Z"/>
	<path fill="#666567" transform="scale(1 1.00862)" d="M67.331 88.8998L67.9953 88.6873C67.7876 89.161 67.6374 89.4967 67.8332 90.0055C68.2794 91.1649 67.0214 91.9386 68.4839 92.6159L68.4896 92.6463C67.1804 93.6145 67.5462 92.8003 66.6275 92.375C66.355 92.2489 65.7133 92.2491 65.3931 92.205C64.9143 92.695 64.8243 92.8601 64.125 92.9814L63.6275 92.625L63.6275 91.625L63.125 91.6225C62.7182 91.0995 62.7086 90.8874 62.6311 90.25C62.8304 89.9815 63.936 88.8546 64.25 88.7599C65.0307 89.1687 66.4386 88.8912 67.331 88.8998Z"/>
	<path fill="#585757" transform="scale(1 1.00862)" d="M67.331 88.8998L67.9953 88.6873C67.7876 89.161 67.6374 89.4967 67.8332 90.0055C68.2794 91.1649 67.0214 91.9386 68.4839 92.6159L68.4896 92.6463C67.1804 93.6145 67.5462 92.8003 66.6275 92.375C66.355 92.2489 65.7133 92.2491 65.3931 92.205L66.75 92.0028L66.966 91.5C66.4286 90.8569 65.6728 90.9233 65.2476 90.25C65.7803 89.7127 66.4541 90.2154 67.1082 89.7364C67.2723 89.6162 67.2931 89.1129 67.331 88.8998Z"/>
	<path fill="#666567" transform="scale(1 1.00862)" d="M67.9953 88.6873L69.375 88.4598L69.7672 89C69.5985 89.8769 68.9741 90.0459 69.125 90.9686L69.625 90.9832L70.375 90.2086C71.1046 90.4291 71.2116 90.8584 71.9988 90.9372L72.1963 90.5194L71.422 89.5012L71.5 89.0711C72.2578 88.9202 72.3825 88.7898 73.0589 89.2412C73.8863 89.7935 74.8551 89.2921 75.5851 89.7065C75.9122 89.8923 76.3085 90.4135 76.5995 90.6863C75.7306 91.0329 74.9001 91.3311 74.2092 91.9877C72.8691 92.0053 71.7157 92.1891 70.4155 92.3299C69.7525 92.4018 69.103 92.327 68.4839 92.6159C67.0214 91.9386 68.2794 91.1649 67.8332 90.0055C67.6374 89.4967 67.7876 89.161 67.9953 88.6873Z"/>
	<path fill="#272627" transform="scale(1 1.00862)" d="M18.9658 12.9641C19.8191 12.2145 21.3224 12.4475 22.4038 12.4871C21.6383 12.6827 20.9144 12.8391 20.125 12.8927L20.0607 13.2216C21.5214 14.6874 22.1917 16.9332 23.1649 18.75L29.817 31.3072L36.6717 43.9595L46.625 63.8013C46.9445 64.4235 47.5358 64.8859 47.8775 65.5L52.1791 73.75C54.9673 79.0493 57.2891 84.5491 60.3052 89.7153C60.8077 90.5759 61.1178 91.5492 61.6798 92.375C62.4932 93.5702 63.2354 94.0662 64.625 94.4433C67.1296 93.7428 69.9139 94.0993 72.5143 94.0361C77.8787 94.0166 83.3797 94.0817 88.6345 93.0614L94.2782 93.0527C95.8793 92.9985 97.7821 92.3931 99.2624 93.2488L99.5445 94.785L100.96 94.5334C99.6447 97.1045 97.3494 100.242 94.5085 101.188C92.8664 101.735 90.555 101.638 88.82 101.751L74.129 102.546L68.5456 102.804C68.0169 102.828 67.2373 103.067 66.7461 102.944L62.1327 103.398L61.25 103.127L61.1225 102.875C61.292 102.313 61.5559 101.985 61.9376 101.557C62.2582 100.344 62.7041 100.139 63.3215 99.1423C63.7825 98.398 64.592 97.9445 65.1875 97.3125C64.9329 97.3612 64.7873 97.3654 64.5566 97.2412C62.6493 96.2145 62.317 98.1923 61.0576 98.8023C60.8989 98.8792 60.4003 98.8803 60.2065 98.9032L62.9577 96.3755L60.2527 93.562C59.3035 92.662 58.7926 91.3316 58.1875 90.1911L54.125 82.2422L45.7467 66.7012L43.4115 61.8008L22.1637 21.8377C20.4812 21.1967 19.7706 19.9754 18.3248 19.0707C17.7222 18.6935 16.9111 18.5996 16.2491 18.247C15.927 18.3516 15.6198 18.2562 15.2967 18.1921L15.6744 17.08C16.2163 15.7778 17.6462 13.5078 18.9658 12.9641Z"/>
	<path fill="#585757" transform="scale(1 1.00862)" d="M15.2967 18.1921L15.6744 17.08C16.2163 15.7778 17.6462 13.5078 18.9658 12.9641C19.3474 13.9713 19.2045 15.0008 19.4998 16.017C20.0847 18.0293 21.2208 19.9664 22.1637 21.8377C20.4812 21.1967 19.7706 19.9754 18.3248 19.0707C17.7222 18.6935 16.9111 18.5996 16.2491 18.247C15.927 18.3516 15.6198 18.2562 15.2967 18.1921Z"/>
	<defs>
		<linearGradient id="gradient_0" gradientUnits="userSpaceOnUse" x1="61.866486" y1="103.9314" x2="98.881065" y2="92.448936">
			<stop offset="0" stop-color="#2E3033"/>
			<stop offset="1" stop-color="#5C5A59"/>
		</linearGradient>
	</defs>
	<path fill="url(#gradient_0)" transform="scale(1 1.00862)" d="M99.5445 94.785L100.96 94.5334C99.6447 97.1045 97.3494 100.242 94.5085 101.188C92.8664 101.735 90.555 101.638 88.82 101.751L74.129 102.546L68.5456 102.804C68.0169 102.828 67.2373 103.067 66.7461 102.944L62.1327 103.398L61.25 103.127L61.1225 102.875C61.292 102.313 61.5559 101.985 61.9376 101.557C62.5013 100.902 63.2574 100.13 63.6922 99.3932C64.1358 98.6413 65.1804 97.9253 65.8725 97.375C65.3829 96.9125 64.8886 96.8999 64.2684 96.6579L64.1757 96.375C64.7619 95.9289 65.4422 95.9825 66.1437 95.9504C69.2919 95.806 72.4494 96.0915 75.6164 96.0021L83.3717 95.5217C85.1688 95.4493 86.9782 95.5935 88.7741 95.4882C90.0663 95.4125 91.3413 95.1484 92.6356 95.0958C94.8537 95.0056 97.3969 95.3368 99.5445 94.785Z"/>
	<path fill="#272627" transform="scale(1 1.00862)" d="M94.7659 97.375L95.375 97.4522L95.4646 98L94.9252 98.625L91.625 98.9232L90.7987 98.6825L90.7401 98.25C91.4623 97.5179 93.693 97.5208 94.7659 97.375Z"/>
	<path fill="#272627" transform="scale(1 1.00862)" d="M84.9729 98.625L85.3022 98.6743L85.474 99C85.1145 99.7059 84.7792 100.095 84.125 100.54C82.7385 101.483 78.5963 101.029 76.875 101.028C76.6077 100.952 76.4693 100.817 76.2793 100.625C76.3955 100.502 76.6608 100.141 76.7949 100.08C77.0529 99.9628 78.0038 100.03 78.3284 100.014C79.8488 99.9393 81.56 99.9565 83.0463 99.6379C83.7158 99.4944 84.4092 99.001 84.9729 98.625Z"/>
	<path fill="#272627" transform="scale(1 1.00862)" d="M66.7461 102.944C66.0204 102.616 65.3932 102.268 64.625 102.008L64.5329 101.5C64.7476 101.295 64.8905 101.058 65.1934 101.049C67.441 100.978 72.058 100.897 73.625 99.2213L74.25 99.2049L74.4673 99.625C73.9647 100.897 72.264 101.648 71.1381 102.37L74.129 102.546L68.5456 102.804C68.0169 102.828 67.2373 103.067 66.7461 102.944Z"/>
	<defs>
		<linearGradient id="gradient_1" gradientUnits="userSpaceOnUse" x1="31.478605" y1="64.800423" x2="44.540306" y2="56.103443">
			<stop offset="0" stop-color="#141214"/>
			<stop offset="1" stop-color="#5B5A5A"/>
		</linearGradient>
	</defs>
	<path fill="url(#gradient_1)" transform="scale(1 1.00862)" d="M20.0555 31.9895L20.041 31.9921L17.1381 26.4943C16.3581 25.0471 14.6258 22.0447 14.6641 20.4603C14.6792 19.8375 15.1097 18.8162 15.2967 18.1921C15.6198 18.2562 15.927 18.3516 16.2491 18.247C16.9111 18.5996 17.7222 18.6935 18.3248 19.0707C19.7706 19.9754 20.4812 21.1967 22.1637 21.8377L43.4115 61.8008L45.7467 66.7012L54.125 82.2422L58.1875 90.1911C58.7926 91.3316 59.3035 92.662 60.2527 93.562L62.9577 96.3755L60.2065 98.9032C60.4003 98.8803 60.8989 98.8792 61.0576 98.8023C62.317 98.1923 62.6493 96.2145 64.5566 97.2412C64.7873 97.3654 64.9329 97.3612 65.1875 97.3125C64.592 97.9445 63.7825 98.398 63.3215 99.1423C62.7041 100.139 62.2582 100.344 61.9376 101.557C61.5559 101.985 61.292 102.313 61.1225 102.875L61.25 103.127L62.1327 103.398C60.672 103.456 59.3823 103.425 57.9821 102.961C56.7333 102.547 55.7581 101.828 54.9207 100.815C53.1476 98.6697 52.0439 95.791 50.8154 93.3007L45.9408 83.6267L27.5623 47.0512L22.4301 36.8433C21.6176 35.2197 20.6336 33.7204 20.0555 31.9895Z"/>
	<path fill="#464546" transform="scale(1 1.00862)" d="M60.2065 98.9032L58.9294 99.375L58.375 98.7946C58.1633 98.2244 58.1417 97.7399 58.2329 97.1391C58.3823 96.1543 59.4818 94.1282 60.2527 93.562L62.9577 96.3755L60.2065 98.9032Z"/>
	<path fill="#272627" transform="scale(1 1.00862)" d="M20.0555 31.9895C20.887 32.7901 21.952 34.0038 22.5592 34.9931C23.1225 35.911 23.4549 36.9502 23.9934 37.8902L35.0151 59.0535L43.6141 75.9411C45.5481 79.7258 47.5991 83.4697 49.2838 87.375L49 87.375C48.3811 86.2242 47.0886 82.9228 46.1236 82.4283L45.9408 83.6267L27.5623 47.0512L22.4301 36.8433C21.6176 35.2197 20.6336 33.7204 20.0555 31.9895Z"/>
</svg>
