<?xml version="1.0" encoding="utf-8" ?>
<svg xmlns="http://www.w3.org/2000/svg" xmlns:xlink="http://www.w3.org/1999/xlink" width="116" height="117">
	<path fill="#222" transform="scale(1 1.00862)" d="M78.4142 8.35763C81.804 7.81769 86.1875 8.29695 89.4418 9.38605C90.8284 10.7708 91.5165 11.8717 91.803 13.8705C92.1817 16.5117 91.9489 19.555 91.9508 22.2357L91.9564 38.1983L91.9754 94.0572C91.9797 97.4688 92.7598 102.965 90.1579 105.556C89.3266 106.383 88.3294 106.939 87.1629 107.132C85.4226 107.42 83.4304 107.285 81.6648 107.286L72.1766 107.292L38.5625 107.292C35.198 107.307 28.6163 108.137 25.9242 105.939C24.7113 104.948 24.2884 103.385 24.1511 101.9C23.6698 96.6925 24.0264 91.1532 24.0369 85.91L24.0291 57.2375L24.0252 28.1418C24.0224 23.5913 23.6464 18.7818 24.0339 14.2666C24.1563 12.8416 24.7129 11.434 25.6382 10.3411C26.6246 9.17611 27.9521 8.84197 29.4097 8.63196C31.0921 8.38957 32.8642 8.48286 34.5631 8.4785L43.8026 8.5434L64.3056 8.55282C68.9879 8.5476 73.7493 8.72035 78.4142 8.35763Z"/>
	<path fill="#1C6B5E" transform="scale(1 1.00862)" d="M67.9192 34.3889L72.962 35.4504L72.3773 36.1929C72.5401 37.0498 72.5839 37.4904 73.3373 38.0252C73.8398 38.3819 74.1596 38.6507 74.5522 39.125L73.6824 39.3903L72.259 38.8599L72.3634 38.5982C71.8642 37.4257 69.9473 36.7646 68.9493 35.9492C68.4676 35.5557 68.1855 34.9392 67.9192 34.3889Z"/>
	<path fill="#52309C" transform="scale(1 1.00862)" d="M32.9321 99.9558C33.2348 99.6966 33.7866 99.0741 34.125 98.9341C34.8006 98.6545 35.8276 98.7004 36.5696 98.4899C37.302 98.282 37.915 97.792 38.6355 97.6002C39.4682 97.3785 40.5956 97.5165 41.459 97.556L40.2908 97.875C39.7625 99.1233 39.0113 100.338 37.6923 100.871C36.3584 101.41 34.7478 100.874 33.511 100.321C33.2947 100.225 33.1124 100.108 32.9321 99.9558Z"/>
	<path fill="#95CEFB" transform="scale(1 1.00862)" d="M34.0437 50.0435C34.9355 50.054 35.8567 50.1231 36.6962 50.4477C37.6696 50.8242 38.6786 51.9312 39.0772 52.8837C39.5522 54.0186 39.5049 55.2444 39.0352 56.375C38.4012 57.9013 37.1473 58.5723 35.6984 59.1639C34.69 59.2342 33.8412 59.2285 32.9094 58.7923C31.6974 58.2249 30.8079 57.2407 30.3609 55.9783C29.989 54.9279 30.0743 53.7093 30.5644 52.7143C31.3371 51.1457 32.4812 50.5869 34.0437 50.0435Z"/>
	<path fill="#6BFAD9" transform="scale(1 1.00862)" d="M34.0268 14.7801C34.8485 14.7671 35.7272 14.8383 36.4882 15.1617C37.7357 15.6918 38.5345 16.4422 39.0346 17.7093C39.4753 18.8256 39.5801 20.0912 39.0706 21.2119C38.3969 22.6937 37.2147 23.543 35.7417 24.083C34.7988 24.0164 33.8967 24.1588 32.9997 23.7688C31.8359 23.2629 30.8534 22.055 30.4154 20.8828C30.0309 19.8541 30.0937 18.543 30.5636 17.5475C31.2782 16.0339 32.5315 15.3165 34.0268 14.7801Z"/>
	<defs>
		<linearGradient id="gradient_0" gradientUnits="userSpaceOnUse" x1="74.167557" y1="69.646355" x2="81.969383" y2="83.632713">
			<stop offset="0" stop-color="#26488C"/>
			<stop offset="1" stop-color="#5585E7"/>
		</linearGradient>
	</defs>
	<path fill="url(#gradient_0)" transform="scale(1 1.00862)" d="M66.0087 70.2656C70.0092 71.4778 74.6515 73.4358 78.8789 73.0858C80.0392 73.1042 80.9241 72.845 82.0004 72.4687C83.9212 74.6708 85.9403 77.2128 85.7537 80.3095C85.667 81.7466 84.8766 83.1331 83.8097 84.0767C82.269 85.4393 80.453 85.7992 78.461 85.8224C78.9348 85.5906 79.3345 85.3237 79.7512 85.0012L80.5 85.1275C81.8522 84.4498 82.7854 83.9577 83.875 82.8775L83.1269 79.4299C82.6018 78.8357 81.8888 77.8999 81.0448 77.921C80.8566 77.9257 80.2357 78.0085 80.0894 77.9448C79.6702 77.7621 79.3301 77.3933 78.875 77.2315C78.0378 76.9337 76.9488 76.9188 76.0436 76.6541C74.6681 76.3294 73.2877 75.9822 71.9948 75.4015L72.1989 74.9982L71.6566 74.1627L71.6109 74.1559C69.8248 73.7485 66.9644 71.7093 66.0087 70.2656Z"/>
	<path fill="#514BC5" transform="scale(1 1.00862)" d="M71.6566 74.1627C72.6602 74.2021 73.5138 74.6299 74.5 74.7041C75.3007 75.1864 75.7725 75.7434 76.0436 76.6541C74.6681 76.3294 73.2877 75.9822 71.9948 75.4015L72.1989 74.9982L71.6566 74.1627Z"/>
	<defs>
		<linearGradient id="gradient_1" gradientUnits="userSpaceOnUse" x1="30.645136" y1="95.576164" x2="42.290474" y2="92.694939">
			<stop offset="0" stop-color="#613CB1"/>
			<stop offset="1" stop-color="#8A68F6"/>
		</linearGradient>
	</defs>
	<path fill="url(#gradient_1)" transform="scale(1 1.00862)" d="M33.7443 90.2023C34.9882 89.8736 36.2589 89.3942 37.5278 89.2187C39.2246 88.984 40.9622 89.1953 42.6592 89.3527C41.8496 89.6183 41.3718 89.9172 40.9781 90.6955C40.3042 92.0277 40.6373 93.0012 40.2497 94.2588C40.0604 94.873 40.5635 96.5598 40.8472 97.0774L40.875 97.1275C41.9867 97.1454 43.1219 97.1981 43.9399 98.0511L44.0974 98.2389L41.459 97.556C40.5956 97.5165 39.4682 97.3785 38.6355 97.6002C37.915 97.792 37.302 98.282 36.5696 98.4899C35.8276 98.7004 34.8006 98.6545 34.125 98.9341C33.7866 99.0741 33.2348 99.6966 32.9321 99.9558C32.197 99.3511 31.5292 98.7418 31.0252 97.9247C30.3207 96.7828 30.1014 95.5264 30.4104 94.2204C30.8872 92.2056 32.0749 91.2358 33.7443 90.2023Z"/>
	<path fill="#807BFC" transform="scale(1 1.00862)" d="M42.6592 89.3527L46.6956 89.9761C49.2479 90.8341 54.8243 92.5839 56.1117 95.1148C56.5787 96.0329 56.6345 97.0904 56.3033 98.062C55.8988 99.2483 55.144 100.214 54 100.753C52.5601 101.431 52.1528 101.47 50.654 100.912L44.0974 98.2389L43.9399 98.0511C43.1219 97.1981 41.9867 97.1454 40.875 97.1275L40.8472 97.0774C40.5635 96.5598 40.0604 94.873 40.2497 94.2588C40.6373 93.0012 40.3042 92.0277 40.9781 90.6955C41.3718 89.9172 41.8496 89.6183 42.6592 89.3527Z"/>
	<path fill="#6BFAD9" transform="scale(1 1.00862)" d="M62.4756 32.6524C61.7913 32.6215 60.7817 32.1609 60.1107 31.9508L49.3734 28.3717C47.3615 27.7125 45.0142 27.2052 43.126 26.2624C42.345 25.8724 41.4998 25.2378 41.0963 24.445C40.6023 23.4742 40.4729 22.0899 40.8369 21.0548C41.2211 19.9621 42.3092 19.0545 43.3156 18.5531C44.0825 18.171 44.8505 18.155 45.6851 18.2783C47.6774 18.5726 49.7911 19.4479 51.7193 20.0527L68.1642 25.5894L67.625 25.8725L63.9375 24.5625C63.2345 25.6663 63.7689 29.1421 63.6785 30.5693C63.6348 31.2579 63.4136 31.5236 63.2395 32.1274C62.9593 32.2762 62.6841 32.4052 62.4756 32.6524Z"/>
	<defs>
		<linearGradient id="gradient_2" gradientUnits="userSpaceOnUse" x1="78.111343" y1="19.133308" x2="69.090752" y2="35.588833">
			<stop offset="0" stop-color="#24CCA8"/>
			<stop offset="1" stop-color="#5EFFE1"/>
		</linearGradient>
	</defs>
	<path fill="url(#gradient_2)" transform="scale(1 1.00862)" d="M66.3827 16.0573C67.7273 15.1731 68.5808 14.639 70.2161 14.9801C71.842 15.3192 73.4557 16.1584 74.9244 16.9073C78.4021 18.6808 82.0067 20.8532 84.171 24.198C85.3807 26.0675 86.1553 28.3041 85.6472 30.5527C85.2043 32.5126 83.6971 33.8659 82.0574 34.8713L81.7093 35.0806C78.5859 35.738 76.1262 35.9323 72.962 35.4504L67.9192 34.3889C66.2765 34.2923 64.0346 33.2018 62.4756 32.6524C62.6841 32.4052 62.9593 32.2762 63.2395 32.1274C63.4136 31.5236 63.6348 31.2579 63.6785 30.5693C63.7689 29.1421 63.2345 25.6663 63.9375 24.5625L67.625 25.8725L68.1642 25.5894C70.4016 26.146 72.7408 26.8994 75.0432 27.0804C74.5502 26.3821 73.6035 25.9678 72.8657 25.5723C70.8401 24.4863 68.3537 23.6557 66.5422 22.243C65.7119 21.5956 65.0932 20.6838 64.9827 19.6203C64.8317 18.1666 65.4961 17.1342 66.3827 16.0573Z"/>
	<path fill="#2BC2A0" transform="scale(1 1.00862)" d="M70.4098 20.6896L69.5 19.125L69.6641 18.7855L70.3738 18.8762L70.625 19.6275L71.4375 19.5625L70.8316 19.1684L70.8125 18.5012L71.5 18.875L71.75 18.6822C74.1993 20.1211 77.2673 21.4673 79.1781 23.5564C78.877 23.9841 78.5997 24.289 78.1719 24.5918C78.2335 24.9176 78.2081 25.0733 78.4636 25.2945L78.6641 25.0355L79.3742 24.9565C79.7689 25.3733 79.9313 25.6944 80.0709 26.25L79.9849 26.2815L78.0598 27.1879C78.0718 27.057 78.0729 26.9359 78.0485 26.8058C77.6028 24.432 72.3002 21.9485 70.4098 20.6896Z"/>
	<path fill="#21957C" transform="scale(1 1.00862)" d="M66.3827 16.0573L66.125 17.3775C66.5375 17.5141 66.8855 17.8337 67.0662 18.2515C67.4052 19.0356 67.1924 19.8171 68 20.3775C68.9359 20.3408 69.571 20.6651 70.4098 20.6896C72.3002 21.9485 77.6028 24.432 78.0485 26.8058C78.0729 26.9359 78.0718 27.057 78.0598 27.1879C77.0634 27.2297 76.016 27.3418 75.0432 27.0804C74.5502 26.3821 73.6035 25.9678 72.8657 25.5723C70.8401 24.4863 68.3537 23.6557 66.5422 22.243C65.7119 21.5956 65.0932 20.6838 64.9827 19.6203C64.8317 18.1666 65.4961 17.1342 66.3827 16.0573Z"/>
	<path fill="#95CEFB" transform="scale(1 1.00862)" d="M66.0087 70.2656L54.1306 65.6332L47.6804 63.4364C46.2038 62.9675 44.5642 62.5904 43.1707 61.9137C42.2966 61.4892 41.6023 60.8621 41.1186 60.0164C40.6081 59.1238 40.5276 57.8867 40.7979 56.9067C41.1218 55.7326 42.1282 54.6306 43.1774 54.0416C43.8335 53.6733 44.5531 53.563 45.2953 53.6689C47.7201 54.0149 50.3627 55.2676 52.6797 56.1002L63.8617 60.0794C67.0259 61.276 70.1806 62.684 73.4317 63.6207C74.2543 64.1141 75.2575 64.2883 76.1814 64.5139C78.8037 64.2667 81.8016 63.4973 84.0153 65.3242C84.9762 66.1171 85.0448 67.5072 85.4877 68.6085C84.7637 70.4309 83.753 71.5592 82.0004 72.4687C80.9241 72.845 80.0392 73.1042 78.8789 73.0858C74.6515 73.4358 70.0092 71.4778 66.0087 70.2656Z"/>
	<path fill="#75A3F9" transform="scale(1 1.00862)" d="M76.1814 64.5139C78.8037 64.2667 81.8016 63.4973 84.0153 65.3242C84.9762 66.1171 85.0448 67.5072 85.4877 68.6085C84.7637 70.4309 83.753 71.5592 82.0004 72.4687C80.9241 72.845 80.0392 73.1042 78.8789 73.0858C79.6935 72.6347 80.8278 72.5539 81.5 72.1275C81.8985 71.8747 82.0853 71.5313 82.6638 71.3406C82.8612 71.2756 83.2171 70.6124 83.3528 70.4085L82.7453 68.6273C82.1698 67.1301 80.8948 65.8054 79.424 65.1598L78.8861 65.6442L78.3203 65.3409C77.6812 64.9615 76.8861 64.7541 76.1814 64.5139Z"/>
	<path fill="#75A3F9" transform="scale(1 1.00862)" d="M35.5843 64.6818C42.0034 63.3065 49.31 66.7442 55.2134 68.9807L71.9948 75.4015C73.2877 75.9822 74.6681 76.3294 76.0436 76.6541C76.9488 76.9188 78.0378 76.9337 78.875 77.2315C79.3301 77.3933 79.6702 77.7621 80.0894 77.9448C80.2357 78.0085 80.8566 77.9257 81.0448 77.921C81.8888 77.8999 82.6018 78.8357 83.1269 79.4299L83.875 82.8775C82.7854 83.9577 81.8522 84.4498 80.5 85.1275L79.7512 85.0012C79.3345 85.3237 78.9348 85.5906 78.461 85.8224C77.3469 85.5985 76.2068 85.5951 75.0954 85.3131C68.4326 83.6226 62.1015 80.7206 55.6981 78.2785L42.5265 73.644C41.9435 73.057 39.2565 72.9673 38.4069 72.91L38.155 73.3814L39.1647 74.0805L39.045 74.5202C37.9772 74.8379 36.841 74.9493 35.7454 75.1449C35.5637 75.1774 35.0191 75.3749 34.8884 75.3471C33.693 75.0927 33.3946 74.4122 32.25 75.375L33.2146 76.2858L32.6298 76.2608L32.5135 76.2425C31.5939 75.1635 30.9144 74.0985 30.5066 72.729C30.0223 71.1028 30.0647 69.3131 30.9081 67.8086C31.8778 66.079 33.7605 65.1807 35.5843 64.6818Z"/>
	<path fill="#807BFC" transform="scale(1 1.00862)" d="M32.6298 76.2608L32.5135 76.2425C31.5939 75.1635 30.9144 74.0985 30.5066 72.729C30.0223 71.1028 30.0647 69.3131 30.9081 67.8086C31.8778 66.079 33.7605 65.1807 35.5843 64.6818C33.7168 66.363 31.0594 66.7164 30.8394 69.7151C30.817 70.0204 30.8633 70.3396 30.92 70.6391C31.9668 71.7047 32.7908 73.8339 34.5355 73.8773C35.4265 73.8994 36.2038 73.9589 37.0015 73.5002L36.9435 73.2769C36.4508 73.1477 36.1817 73.1175 35.8125 72.7512C36.0195 72.5666 36.1956 72.4037 36.4456 72.2804C36.5525 72.2276 36.6325 72.1177 36.7073 72.0271C36.8027 72.1495 37.0588 72.5665 37.1732 72.625C37.3887 72.7352 38.3022 72.7671 38.4069 72.91L38.155 73.3814L39.1647 74.0805L39.045 74.5202C37.9772 74.8379 36.841 74.9493 35.7454 75.1449C35.5637 75.1774 35.0191 75.3749 34.8884 75.3471C33.693 75.0927 33.3946 74.4122 32.25 75.375L33.2146 76.2858L32.6298 76.2608Z"/>
	<path fill="#6BFAD9" transform="scale(1 1.00862)" d="M32.5007 30.0542C34.6659 28.4985 37.1511 28.1282 39.7686 28.5483C44.0669 29.238 48.4636 30.8129 52.5831 32.1894L72.259 38.8599L73.6824 39.3903L74.5522 39.125C74.1596 38.6507 73.8398 38.3819 73.3373 38.0252C72.5839 37.4904 72.5401 37.0498 72.3773 36.1929L72.962 35.4504C76.1262 35.9323 78.5859 35.738 81.7093 35.0806C83.2079 36.7063 84.7029 38.2928 85.417 40.4388C85.8512 42.4643 86.0336 43.9889 84.8489 45.8337C83.907 47.3005 82.0454 48.5397 80.3314 48.8961C79.4806 49.073 78.5083 49.0955 77.643 49.0015C75.3878 49.0742 72.3179 47.8162 70.1702 47.1395L54.4837 41.8575L44.7383 38.6606C42.611 37.8723 40.4268 37.461 38.1937 37.1155C37.8765 37.3873 37.5623 37.6066 37.455 38.0292L36.6252 38.4196L36.75 38.75C37.3169 38.8581 37.3632 38.9123 37.7677 39.3308C35.6285 38.8375 34.2832 38.4705 32.1699 39.3103L31.4276 38.3567C30.4869 36.7387 29.9761 35.2864 30.2646 33.3915C30.4917 31.8997 31.32 30.9231 32.5007 30.0542Z"/>
	<path fill="#2BC2A0" transform="scale(1 1.00862)" d="M32.5007 30.0542C32.0943 31.2503 31.2408 31.9344 30.9163 33.1661L31.25 33.375L31.3125 32.7512C31.8099 33.5817 31.4152 34.1315 31.6701 34.9195C31.7626 35.2056 32.3002 35.7412 32.5028 36.0053L32.75 36L32.9141 35.7855C33.2236 36.1349 33.3029 36.2444 33.75 36.375L33.9141 36.0355C34.3566 36.2938 34.4883 36.3776 35 36.375L35.129 36.0948L35.1812 36.1413C35.7675 36.6402 36.6473 36.9805 37.3279 37.3492C37.5803 37.2472 37.9437 37.0122 38.1937 37.1155C37.8765 37.3873 37.5623 37.6066 37.455 38.0292L36.6252 38.4196L36.75 38.75C37.3169 38.8581 37.3632 38.9123 37.7677 39.3308C35.6285 38.8375 34.2832 38.4705 32.1699 39.3103L31.4276 38.3567C30.4869 36.7387 29.9761 35.2864 30.2646 33.3915C30.4917 31.8997 31.32 30.9231 32.5007 30.0542Z"/>
	<path fill="#37B7A2" transform="scale(1 1.00862)" d="M37.3279 37.3492C37.5803 37.2472 37.9437 37.0122 38.1937 37.1155C37.8765 37.3873 37.5623 37.6066 37.455 38.0292L36.6252 38.4196L36.75 38.75C37.3169 38.8581 37.3632 38.9123 37.7677 39.3308C35.6285 38.8375 34.2832 38.4705 32.1699 39.3103L31.4276 38.3567C32.204 38.3435 33.2353 38.413 33.9733 38.1921C34.3938 38.0661 34.7873 37.7104 35.2084 37.6467C36.0019 37.5268 36.5493 37.6938 37.3279 37.3492Z"/>
	<defs>
		<linearGradient id="gradient_3" gradientUnits="userSpaceOnUse" x1="85.077049" y1="42.128391" x2="81.437332" y2="44.312637">
			<stop offset="0" stop-color="#2FB795"/>
			<stop offset="1" stop-color="#46D6B0"/>
		</linearGradient>
	</defs>
	<path fill="url(#gradient_3)" transform="scale(1 1.00862)" d="M73.9592 39.5443C75.0439 39.7799 76.6282 40.3027 77.7201 40.2656C79.2648 40.2132 81.4368 39.1346 82.9645 39.5459C83.4993 39.6898 84.4607 40.5387 84.9997 40.8683C85.1341 40.7204 85.2647 40.5687 85.417 40.4388C85.8512 42.4643 86.0336 43.9889 84.8489 45.8337C83.907 47.3005 82.0454 48.5397 80.3314 48.8961C79.4806 49.073 78.5083 49.0955 77.643 49.0015C78.0218 48.9304 78.6631 48.8897 78.9865 48.6996C79.3404 48.4915 79.6173 48.5818 80 48.5C80.7752 48.3344 82.2317 47.7364 82.7699 47.1873L82.2285 45.0844C81.8084 43.6004 81.0881 42.6989 79.7662 41.9636C78.5737 42.2206 77.9622 40.8775 76.806 40.6423C75.7805 40.4338 74.6166 40.3732 73.9592 39.5443Z"/>
	<defs>
		<linearGradient id="gradient_4" gradientUnits="userSpaceOnUse" x1="73.280922" y1="34.407734" x2="84.255707" y2="41.513439">
			<stop offset="0" stop-color="#1D6C5C"/>
			<stop offset="1" stop-color="#2DA783"/>
		</linearGradient>
	</defs>
	<path fill="url(#gradient_4)" transform="scale(1 1.00862)" d="M72.962 35.4504C76.1262 35.9323 78.5859 35.738 81.7093 35.0806C83.2079 36.7063 84.7029 38.2928 85.417 40.4388C85.2647 40.5687 85.1341 40.7204 84.9997 40.8683C84.4607 40.5387 83.4993 39.6898 82.9645 39.5459C81.4368 39.1346 79.2648 40.2132 77.7201 40.2656C76.6282 40.3027 75.0439 39.7799 73.9592 39.5443L73.6824 39.3903L74.5522 39.125C74.1596 38.6507 73.8398 38.3819 73.3373 38.0252C72.5839 37.4904 72.5401 37.0498 72.3773 36.1929L72.962 35.4504Z"/>
	<defs>
		<linearGradient id="gradient_5" gradientUnits="userSpaceOnUse" x1="59.278824" y1="46.717552" x2="56.615852" y2="54.603985">
			<stop offset="0" stop-color="#60F1D5"/>
			<stop offset="1" stop-color="#8FE1FF"/>
		</linearGradient>
	</defs>
	<path fill="url(#gradient_5)" transform="scale(1 1.00862)" d="M38.1937 37.1155C40.4268 37.461 42.611 37.8723 44.7383 38.6606C45.378 40.3646 47.3338 40.1584 48.2609 41.375C48.515 41.7084 48.7258 42.4387 48.872 42.8399C51.1356 43.4509 53.3244 44.3671 55.5432 45.1252L69.0852 49.8238C73.599 51.4362 78.4905 52.7778 82.7821 54.8725C83.7032 55.3221 84.7473 55.9654 85.2706 56.866C85.8425 57.8502 85.9273 59.2426 85.6252 60.3278C85.4057 61.1163 84.7864 61.9323 84.1696 62.4608C85.2243 63.6084 85.8538 65.5349 85.7764 67.0999C85.7524 67.5858 85.6622 68.1521 85.4877 68.6085C85.0448 67.5072 84.9762 66.1171 84.0153 65.3242C81.8016 63.4973 78.8037 64.2667 76.1814 64.5139C75.2575 64.2883 74.2543 64.1141 73.4317 63.6207C73.4005 62.4133 69.0636 60.4674 67.9613 59.6583C67.419 59.2602 66.9811 58.6568 66.5988 58.1107L49.1663 52.0051L37.1759 48.1638C35.8562 47.7397 34.4559 47.4789 33.1618 46.9944C32.494 46.7444 31.7836 46.3422 31.2941 45.8181C30.4941 44.9615 30.1455 43.9883 30.1819 42.829C30.2372 41.065 30.9682 40.4397 32.1699 39.3103C34.2832 38.4705 35.6285 38.8375 37.7677 39.3308C37.3632 38.9123 37.3169 38.8581 36.75 38.75L36.6252 38.4196L37.455 38.0292C37.5623 37.6066 37.8765 37.3873 38.1937 37.1155Z"/>
	<path fill="#21957C" transform="scale(1 1.00862)" d="M38.1937 37.1155C40.4268 37.461 42.611 37.8723 44.7383 38.6606C45.378 40.3646 47.3338 40.1584 48.2609 41.375C48.515 41.7084 48.7258 42.4387 48.872 42.8399C45.1352 42.0914 41.4164 40.4686 37.7677 39.3308C37.3632 38.9123 37.3169 38.8581 36.75 38.75L36.6252 38.4196L37.455 38.0292C37.5623 37.6066 37.8765 37.3873 38.1937 37.1155Z"/>
	<defs>
		<linearGradient id="gradient_6" gradientUnits="userSpaceOnUse" x1="70.077309" y1="60.996651" x2="79.516251" y2="63.179737">
			<stop offset="0" stop-color="#275180"/>
			<stop offset="1" stop-color="#3F78AD"/>
		</linearGradient>
	</defs>
	<path fill="url(#gradient_6)" transform="scale(1 1.00862)" d="M66.5988 58.1107L73.3967 60.356C75.8202 61.2662 78.743 63.0681 81.292 63.3085C82.3151 63.405 83.0723 63.0311 83.9502 62.5761L84.1696 62.4608C85.2243 63.6084 85.8538 65.5349 85.7764 67.0999C85.7524 67.5858 85.6622 68.1521 85.4877 68.6085C85.0448 67.5072 84.9762 66.1171 84.0153 65.3242C81.8016 63.4973 78.8037 64.2667 76.1814 64.5139C75.2575 64.2883 74.2543 64.1141 73.4317 63.6207C73.4005 62.4133 69.0636 60.4674 67.9613 59.6583C67.419 59.2602 66.9811 58.6568 66.5988 58.1107Z"/>
	<path fill="#807BFC" transform="scale(1 1.00862)" d="M38.4069 72.91C39.2565 72.9673 41.9435 73.057 42.5265 73.644L42.4066 74.125C44.2861 75.3594 47.3607 76.4827 48.3831 78.4991C51.4571 79.3842 54.4526 80.9666 57.4446 82.1453L74.4981 89.1185C77.3814 90.3284 80.4884 91.4049 83.2029 92.9528C84.0904 93.4589 84.8722 94.101 85.3711 95.0072C85.8482 95.8739 85.9232 97.1553 85.6348 98.092C85.2907 99.2101 84.4032 100.253 83.3642 100.781C81.9486 101.501 81.581 101.441 80.1423 100.961L42.9542 86.1104L42.625 86.3933C43.9109 87.7502 45.4517 88.4417 46.6956 89.9761L42.6592 89.3527C40.9622 89.1953 39.2246 88.984 37.5278 89.2187C36.2589 89.3942 34.9882 89.8736 33.7443 90.2023L33.4953 89.3985C31.9576 88.0856 30.9427 86.1009 30.4121 84.1834C30.1922 83.374 30.1996 82.3939 30.2928 81.5593C30.5122 79.5942 31.5935 78.4778 33.0406 77.3113L32.6298 76.2608L33.2146 76.2858L32.25 75.375C33.3946 74.4122 33.693 75.0927 34.8884 75.3471C35.0191 75.3749 35.5637 75.1774 35.7454 75.1449C36.841 74.9493 37.9772 74.8379 39.045 74.5202L39.1647 74.0805L38.155 73.3814L38.4069 72.91Z"/>
	<path fill="#514BC5" transform="scale(1 1.00862)" d="M38.4069 72.91C39.2565 72.9673 41.9435 73.057 42.5265 73.644L42.4066 74.125C44.2861 75.3594 47.3607 76.4827 48.3831 78.4991C47.2366 78.5716 45.8924 78.0976 44.811 77.7681C40.7414 76.5279 37.1305 75.4425 33.0406 77.3113L32.6298 76.2608L33.2146 76.2858L32.25 75.375C33.3946 74.4122 33.693 75.0927 34.8884 75.3471C35.0191 75.3749 35.5637 75.1774 35.7454 75.1449C36.841 74.9493 37.9772 74.8379 39.045 74.5202L39.1647 74.0805L38.155 73.3814L38.4069 72.91Z"/>
	<path fill="#514BC5" transform="scale(1 1.00862)" d="M30.4121 84.1834C31.2032 85.1426 31.7324 86.0784 32.3775 87.125C32.787 86.8529 32.8484 86.8908 33.3351 86.9565L33.9162 87.5802C33.5688 87.656 33.4369 87.7065 33.0912 87.5865L33.25 88.375C34.0976 88.0659 34.8302 87.7364 35.5 87.1275L35.524 86.7731L35.4198 86.7927C34.8507 86.8909 34.7426 86.5879 34.25 86.5C33.7552 86.4117 33.1953 86.4372 32.6918 86.4332L32.5 86.125C32.7145 85.8741 32.9676 85.7345 33.25 85.5722C36.0809 85.731 38.2562 84.8924 41.1885 85.5935C41.4171 85.6561 42.8905 86.0039 42.9542 86.1104L42.625 86.3933C43.9109 87.7502 45.4517 88.4417 46.6956 89.9761L42.6592 89.3527C40.9622 89.1953 39.2246 88.984 37.5278 89.2187C36.2589 89.3942 34.9882 89.8736 33.7443 90.2023L33.4953 89.3985C31.9576 88.0856 30.9427 86.1009 30.4121 84.1834Z"/>
	<path fill="#52309C" transform="scale(1 1.00862)" d="M41.1885 85.5935C41.4171 85.6561 42.8905 86.0039 42.9542 86.1104L42.625 86.3933C43.9109 87.7502 45.4517 88.4417 46.6956 89.9761L42.6592 89.3527C40.9622 89.1953 39.2246 88.984 37.5278 89.2187C36.2589 89.3942 34.9882 89.8736 33.7443 90.2023L33.4953 89.3985C33.8733 89.3166 34.562 89.2669 34.8847 89.0973C35.0503 89.0104 35.1947 88.7391 35.3609 88.67C35.6624 88.5444 36.502 88.6153 36.8645 88.5979C37.5941 88.0624 40.5802 87.473 40.875 86.923C41.0646 86.5692 40.8533 86.1229 41.1885 85.5935Z"/>
</svg>
