<svg xmlns="http://www.w3.org/2000/svg" xmlns:xlink="http://www.w3.org/1999/xlink" width="465.37" height="89.935" viewBox="0 0 465.37 89.935">
  <defs>
    <linearGradient id="linear-gradient" x1="0.5" x2="0.5" y2="1" gradientUnits="objectBoundingBox">
      <stop offset="0" stop-color="#fff"/>
      <stop offset="1" stop-color="#e2e2e2"/>
    </linearGradient>
  </defs>
  <g id="Group_1شس_یس" data-name="Group 1شس یس" transform="translate(-619.763 -25.738)">
    <g id="Group_9670" data-name="Group 9670" transform="translate(12.641 25.738)">
      <g id="Path_20806" transform="translate(0 0)">
        <path id="Path_20316" data-name="Path 20316" d="M659.224,85.616l-.008,0c-1.453-.554-2.855-1.015-4.168-1.379-1.023-.283-1.629-.4-1.694-.416a7.414,7.414,0,0,0-8.006,3.555l-.1.191a92.6,92.6,0,0,0-5.977,15.458l-.02.082-.008.018a7.314,7.314,0,0,0,3.554,8.036c.039.023.569.336,1.525.807,1.219.6,2.574,1.186,4.027,1.741s2.864,1.019,4.176,1.383c1.025.283,1.63.4,1.7.416a7.417,7.417,0,0,0,8.007-3.554l.1-.191a77.854,77.854,0,0,0,3.332-7.58,78.193,78.193,0,0,0,2.647-7.881l.02-.081.008-.019a7.314,7.314,0,0,0-3.555-8.035c-.036-.023-.569-.337-1.523-.806C662.035,86.757,660.681,86.17,659.224,85.616Zm-1.185,3.062c1.636.623,2.893,1.2,3.748,1.618s1.308.692,1.308.692a4.084,4.084,0,0,1,2.027,4.433l-.014.06a75.333,75.333,0,0,1-2.534,7.528,75.585,75.585,0,0,1-3.195,7.277l-.03.053a4.142,4.142,0,0,1-4.5,1.949,10.263,10.263,0,0,1-1.438-.354c-.925-.256-2.24-.663-3.877-1.285s-2.893-1.2-3.746-1.618-1.313-.693-1.313-.693a4.084,4.084,0,0,1-2.029-4.433l.019-.06a74.849,74.849,0,0,1,2.535-7.528,74.756,74.756,0,0,1,3.194-7.277l.029-.054a4.141,4.141,0,0,1,4.493-1.948,10.1,10.1,0,0,1,1.438.354c.927.256,2.238.663,3.875,1.285ZM681.526,83.9c-2.315,1.023-4.014,3.978-6.06,10.541l-.108.342a7.016,7.016,0,0,0-.111,4.067,31.154,31.154,0,0,0,1.859,5.126l.043.1a31.275,31.275,0,0,0,2.618,4.851,6.727,6.727,0,0,0,3.4,2.587,7.411,7.411,0,0,0,4.317.087,40.565,40.565,0,0,0,5.46-2.013l.166-.073a40.312,40.312,0,0,0,5.21-2.711,7.245,7.245,0,0,0,2.766-3.176,6.7,6.7,0,0,0,.337-4.332,31.173,31.173,0,0,0-1.868-5.122l-.044-.1a31.275,31.275,0,0,0-2.619-4.855,8.2,8.2,0,0,0-2.364-2.262c-.748-.527-8.914-4.865-13.009-3.055Zm384.63,18.044c.227-.61.345-.99.371-1.086a5.793,5.793,0,0,0,.236-1.654,5.592,5.592,0,0,0-.27-1.665,5.254,5.254,0,0,0-2.147-2.826l-.084-.052c-.135-.088-.522-.322-1.12-.666l1.928-.789a1.453,1.453,0,0,0,.151-2.679,1.489,1.489,0,0,0-1.271-.009l-4.185,1.706-.421-.206-1.221-4.318a1.461,1.461,0,0,0-.766-.917,1.48,1.48,0,0,0-1.962.672,1.453,1.453,0,0,0-.1,1.029l.564,1.993c-.64-.259-1.061-.41-1.213-.465l-.093-.031a5.346,5.346,0,0,0-1.836-.273,5.459,5.459,0,0,0-1.735.332,5.726,5.726,0,0,0-2.661,2.018c-.059.082-.295.4-.632.961-.455.749-.918,1.582-1.356,2.479l-.008.008c-.438.9-.817,1.769-1.128,2.588-.227.61-.345.989-.371,1.086a5.5,5.5,0,0,0-.227,1.653,5.589,5.589,0,0,0,.261,1.666,5.466,5.466,0,0,0,.808,1.562,5.224,5.224,0,0,0,1.347,1.263l.084.055a51.884,51.884,0,0,0,4.7,2.537,51.24,51.24,0,0,0,4.918,2.109l.093.031a5.278,5.278,0,0,0,1.827.274,5.513,5.513,0,0,0,1.743-.335,5.75,5.75,0,0,0,2.653-2.017c.059-.081.295-.4.632-.961.463-.748.918-1.582,1.356-2.479l.008-.007C1065.466,103.637,1065.845,102.766,1066.156,101.946ZM941.82,83.651v.007c1,1.183,1.9,2.347,2.678,3.46.6.871.918,1.4.952,1.457a7.308,7.308,0,0,1-.783,8.666l-.152.154a79.684,79.684,0,0,1-6.139,5.591,79.878,79.878,0,0,1-6.653,5.05l-.067.046-.017.013a7.438,7.438,0,0,1-8.817-.718c-.042-.029-.505-.424-1.272-1.167-.96-.947-1.962-2.028-2.964-3.211s-1.9-2.354-2.678-3.466c-.606-.87-.918-1.4-.952-1.456a7.285,7.285,0,0,1,.783-8.668l.152-.156a93.488,93.488,0,0,1,12.783-10.641l.076-.046.008-.013a7.442,7.442,0,0,1,8.817.718c.042.028.505.424,1.263,1.165.968.95,1.97,2.029,2.973,3.211Zm-84.4,9.052c2.762,1.781,4.4,3.005,4.707,3.231l.118.093a5.688,5.688,0,0,1,2.147,6.2,9.775,9.775,0,0,1-.4.957,17.091,17.091,0,0,1-2.535,3.874,10.013,10.013,0,0,1-.741.768,5.82,5.82,0,0,1-6.636.511L854,108.3c-.32-.171-2.114-1.158-4.876-2.939s-4.4-3.005-4.7-3.232l-.059-.041a5.72,5.72,0,0,1-2.214-6.251,9.6,9.6,0,0,1,.4-.957,17.222,17.222,0,0,1,2.534-3.872,9.01,9.01,0,0,1,.749-.77,5.813,5.813,0,0,1,6.627-.51l.076.043c.32.171,2.105,1.157,4.876,2.938Zm151.023-13.09.008,0a34.184,34.184,0,0,1,3.469,1.463c.825.4,1.28.682,1.364.734a6.984,6.984,0,0,1,3.057,7.74l-.025.111c-.135.5-.893,3.312-2.509,7.715s-2.855,7.04-3.082,7.524l-.042.082a7.1,7.1,0,0,1-7.377,3.98c-.076-.01-.615-.092-1.5-.3a35.324,35.324,0,0,1-3.613-1.094,35.832,35.832,0,0,1-3.478-1.466c-.817-.4-1.28-.682-1.364-.734a6.98,6.98,0,0,1-3.048-7.74l.025-.119c.126-.488.884-3.3,2.5-7.7s2.855-7.041,3.091-7.524l.042-.085a7.092,7.092,0,0,1,7.377-3.981c.067.011.606.092,1.49.306A34.484,34.484,0,0,1,1008.439,79.613Zm-325.568,7.3c2.056-.908,8.527,1.88,9.741,2.733a5.088,5.088,0,0,1,1.56,1.463,28.566,28.566,0,0,1,2.311,4.312l.044.1a28.461,28.461,0,0,1,1.684,4.588,3.442,3.442,0,0,1-.162,2.209,4.02,4.02,0,0,1-1.554,1.747,36.921,36.921,0,0,1-4.733,2.451l-.154.068a36.9,36.9,0,0,1-5,1.85,4.058,4.058,0,0,1-2.346-.022,3.477,3.477,0,0,1-1.764-1.358,28.576,28.576,0,0,1-2.311-4.312l-.043-.1a28.38,28.38,0,0,1-1.684-4.588,3.787,3.787,0,0,1,.038-2.2c.255-.743,2.324-8.029,4.382-8.938Zm-31.4,20.936-1.474-.561a1.644,1.644,0,0,1-.952-2.119,1.665,1.665,0,0,1,2.136-.943l1.474.561a1.643,1.643,0,0,1,.951,2.119A1.665,1.665,0,0,1,651.467,107.845Zm409.7-2.341c-.32.513-.514.777-.514.777a2.6,2.6,0,0,1-2.905,1.019l-.042-.013a47.272,47.272,0,0,1-4.615-1.988,47.938,47.938,0,0,1-4.43-2.384l-.034-.022a2.585,2.585,0,0,1-.985-2.9,7.288,7.288,0,0,1,.3-.876c.219-.563.547-1.357,1.027-2.34s.918-1.734,1.229-2.242.505-.777.505-.777a2.615,2.615,0,0,1,2.914-1.019l.034.013a48.563,48.563,0,0,1,4.623,1.987,48,48,0,0,1,4.421,2.384l.034.022a2.562,2.562,0,0,1,.985,2.9,7.338,7.338,0,0,1-.3.876,24.927,24.927,0,0,1-1.028,2.34C1061.9,104.247,1061.474,105,1061.163,105.5ZM773.58,81.3l-.174-.1a41.185,41.185,0,0,0-5.859-2.838,7.489,7.489,0,0,0-8.542,2.313,40.832,40.832,0,0,0-3.587,5.329l-.064.11a40.277,40.277,0,0,0-2.875,5.8,7.36,7.36,0,0,0,2.309,8.477,40.86,40.86,0,0,0,5.358,3.577l.173.1a41.13,41.13,0,0,0,5.861,2.839,7.5,7.5,0,0,0,8.538-2.316,40.35,40.35,0,0,0,3.588-5.329l.064-.11a40.245,40.245,0,0,0,2.875-5.8,7.462,7.462,0,0,0,.268-4.573,7.574,7.574,0,0,0-2.574-3.9A40.835,40.835,0,0,0,773.58,81.3ZM887.647,97.086l.042-.026a13.35,13.35,0,0,1,1.912-.885,3.476,3.476,0,0,1,3.907,1.14,12.015,12.015,0,0,1,1.12,1.724,11.8,11.8,0,0,1,.909,1.919,3.418,3.418,0,0,1-1.137,3.88,11.884,11.884,0,0,1-1.735,1.118l-.051.029a12.744,12.744,0,0,1-1.912.88,3.471,3.471,0,0,1-2.105.069,3.513,3.513,0,0,1-1.8-1.21,12.73,12.73,0,0,1-1.12-1.719,12.543,12.543,0,0,1-.9-1.924,3.357,3.357,0,0,1-.076-2.093,3.433,3.433,0,0,1,1.213-1.782,12.924,12.924,0,0,1,1.726-1.115Zm76.1-16.865-.194.048a41.193,41.193,0,0,0-6.206,2,7.4,7.4,0,0,0-4.522,7.551,40.1,40.1,0,0,0,1.154,6.306l.025.124a39.573,39.573,0,0,0,2,6.152,7.465,7.465,0,0,0,7.6,4.506,41.207,41.207,0,0,0,6.358-1.12l.194-.048a41.108,41.108,0,0,0,6.206-2,7.4,7.4,0,0,0,4.522-7.55,40.1,40.1,0,0,0-1.154-6.307l-.034-.124a40.458,40.458,0,0,0-1.987-6.152,7.52,7.52,0,0,0-3.015-3.474,7.674,7.674,0,0,0-4.581-1.032A41,41,0,0,0,963.748,80.221Zm-24.463,5.536c-1.12-1.332-2.08-2.324-2.762-2.988s-1.086-1-1.086-1a4.152,4.152,0,0,0-4.884-.458l-.051.033a90.274,90.274,0,0,0-12.244,10.194l-.042.045a4.083,4.083,0,0,0-.4,4.851,9.946,9.946,0,0,0,.808,1.234c.547.785,1.364,1.886,2.484,3.219s2.089,2.323,2.762,2.987,1.086,1.008,1.086,1.008a4.155,4.155,0,0,0,4.884.459l.051-.034a74.89,74.89,0,0,0,6.358-4.828,76.441,76.441,0,0,0,5.895-5.365l.042-.044a4.071,4.071,0,0,0,.387-4.853,10.879,10.879,0,0,0-.8-1.234c-.547-.786-1.364-1.884-2.493-3.217Zm-83.672,9.7c-2.686-1.73-4.4-2.672-4.674-2.822l-.034-.023a2.541,2.541,0,0,0-2.855.057c-.16.156-.32.321-.472.494a14.225,14.225,0,0,0-2.029,3.1c-.093.2-.185.414-.261.627a2.486,2.486,0,0,0,1.112,2.6l.034.023c.253.189,1.81,1.359,4.5,3.091s4.4,2.671,4.674,2.82l.042.023a2.534,2.534,0,0,0,2.846-.052,6.618,6.618,0,0,0,.463-.494,13.963,13.963,0,0,0,2.038-3.1c.093-.2.185-.414.261-.627a2.489,2.489,0,0,0-1.1-2.607l-.042-.023C859.866,98.357,858.3,97.186,855.613,95.455Zm151.7-12.748a31.8,31.8,0,0,0-3.259-.99c-.783-.187-1.213-.249-1.213-.249a3.8,3.8,0,0,0-3.9,2.171l-.025.055c-.2.406-1.4,2.939-2.973,7.234s-2.3,6.994-2.408,7.432l-.017.06a3.742,3.742,0,0,0,1.575,4.148c1.381.891.37.229,1.095.584a32.976,32.976,0,0,0,6.4,2.31c.783.188,1.213.25,1.213.25a3.785,3.785,0,0,0,3.891-2.173l.034-.055c.194-.408,1.389-2.938,2.964-7.231s2.3-7,2.417-7.435l.017-.059a3.748,3.748,0,0,0-1.583-4.149c-1.381-.891-.371-.228-1.086-.583A32.017,32.017,0,0,0,1007.31,82.707ZM888.75,99.06a10.651,10.651,0,0,0-1.432.917,1.173,1.173,0,0,0-.4,1.373,11.222,11.222,0,0,0,.724,1.527l.025.032a9.923,9.923,0,0,0,.918,1.423,1.2,1.2,0,0,0,1.381.4,11.092,11.092,0,0,0,1.541-.716l.05-.027a11.3,11.3,0,0,0,1.432-.915,1.178,1.178,0,0,0,.4-1.377,10.373,10.373,0,0,0-.733-1.529l-.017-.032a10.7,10.7,0,0,0-.918-1.423,1.2,1.2,0,0,0-1.39-.394,11,11,0,0,0-1.541.717ZM771.915,84.145a37.761,37.761,0,0,1,4.928,3.28,4.083,4.083,0,0,1,1.29,4.808,37.06,37.06,0,0,1-2.629,5.278l-.065.111a37.2,37.2,0,0,1-3.293,4.9,4.168,4.168,0,0,1-4.843,1.3,37.727,37.727,0,0,1-5.327-2.594l-.165-.094a37.619,37.619,0,0,1-4.924-3.276,4.084,4.084,0,0,1-1.292-4.81,37.338,37.338,0,0,1,2.631-5.278l.065-.11a37.384,37.384,0,0,1,3.292-4.9,4.146,4.146,0,0,1,4.844-1.295,37.854,37.854,0,0,1,5.326,2.593l.164.094Zm192.625-.732a37.777,37.777,0,0,1,5.844-1.037,4.354,4.354,0,0,1,2.585.566,4.3,4.3,0,0,1,1.71,2,37.463,37.463,0,0,1,1.8,5.609l.034.124a37.6,37.6,0,0,1,1.061,5.794,4.127,4.127,0,0,1-2.577,4.27,37.989,37.989,0,0,1-5.651,1.8l-.185.046a37.765,37.765,0,0,1-5.836,1.036,4.138,4.138,0,0,1-4.295-2.568,36.547,36.547,0,0,1-1.8-5.61l-.034-.124a37.556,37.556,0,0,1-1.061-5.793,4.207,4.207,0,0,1,.556-2.564,4.35,4.35,0,0,1,2.021-1.707,37.784,37.784,0,0,1,5.651-1.8l.177-.046ZM797.86,76.74l-.184.074a41.151,41.151,0,0,0-5.869,2.836,7.376,7.376,0,0,0-3.421,8.1,40.71,40.71,0,0,0,2.025,6.089l.049.119a40.316,40.316,0,0,0,2.837,5.82,7.487,7.487,0,0,0,8.158,3.415,41.1,41.1,0,0,0,6.144-1.987l.184-.074a41.219,41.219,0,0,0,5.867-2.835,7.369,7.369,0,0,0,3.421-8.1,40.585,40.585,0,0,0-2.025-6.089L815,83.99a40.267,40.267,0,0,0-2.837-5.82,7.549,7.549,0,0,0-3.469-3.025A7.692,7.692,0,0,0,804,74.753,41.138,41.138,0,0,0,797.86,76.74Zm200.776,23.832,3.84,1.387a1.669,1.669,0,0,0,2.122-.983,1.647,1.647,0,0,0-.994-2.109l-3.84-1.386a1.668,1.668,0,0,0-2.122.983A1.646,1.646,0,0,0,998.636,100.572ZM898.611,91.056l.051-.027a12.829,12.829,0,0,1,1.9-.883,3.513,3.513,0,0,1,2.114-.068,3.555,3.555,0,0,1,1.8,1.209,13.731,13.731,0,0,1,1.12,1.721,12.511,12.511,0,0,1,.9,1.92,3.42,3.42,0,0,1,.076,2.094,3.479,3.479,0,0,1-1.2,1.786,12.936,12.936,0,0,1-1.735,1.118l-.059.029a12.748,12.748,0,0,1-1.912.882,3.476,3.476,0,0,1-3.907-1.14,12.739,12.739,0,0,1-1.12-1.72,13.433,13.433,0,0,1-.909-1.924,3.4,3.4,0,0,1,1.145-3.876,12.914,12.914,0,0,1,1.726-1.115ZM799.093,79.793a37.915,37.915,0,0,1,5.642-1.835,4.357,4.357,0,0,1,2.641.2,4.309,4.309,0,0,1,1.976,1.749,37.31,37.31,0,0,1,2.573,5.308l.049.119a37.233,37.233,0,0,1,1.865,5.592,4.107,4.107,0,0,1-1.955,4.587,37.81,37.81,0,0,1-5.342,2.568l-.175.07a37.937,37.937,0,0,1-5.641,1.833,4.153,4.153,0,0,1-4.618-1.952,37.3,37.3,0,0,1-2.573-5.308l-.049-.119a37.192,37.192,0,0,1-1.865-5.591,4.252,4.252,0,0,1,.2-2.62,4.3,4.3,0,0,1,1.758-1.967,37.863,37.863,0,0,1,5.342-2.569l.174-.07ZM923.159,98.165l1.01,1.2a1.675,1.675,0,0,0,2.333.2,1.644,1.644,0,0,0,.2-2.31l-1.019-1.2a1.664,1.664,0,0,0-2.324-.2A1.629,1.629,0,0,0,923.159,98.165ZM717.627,95.031l-.072-.172-.068-.114-.033-.122c-.039-.076-.778-2.109-1.448-4.429-.691-2.344-1.128-4.449-1.153-4.533l-.041-.24-.025-.192a7.472,7.472,0,0,1,.463-4.325,6.316,6.316,0,0,1,1.929-2.519,9.469,9.469,0,0,1,3.255-1.5,68.948,68.948,0,0,1,9.048-1.443l.563-.061c3.08-.364,3.4-.407,4.805-.47a8.152,8.152,0,0,1,4.477.933,7.59,7.59,0,0,1,2.9,3.117,17.269,17.269,0,0,1,1.233,3.406,16.4,16.4,0,0,1,.781,3.551,7.515,7.515,0,0,1-.787,4.159,7.191,7.191,0,0,1-1.994,2.3c-.144.111-.274.212-.429.311a4.887,4.887,0,0,1-1.31,6.172,4.986,4.986,0,0,1-6.928-.842,4.9,4.9,0,0,1-.6-.982,41.648,41.648,0,0,1-5.311,2.094c-2.02.586-4.232.9-6.542-.666A7.489,7.489,0,0,1,717.627,95.031Zm182.088-2a10.737,10.737,0,0,0-1.432.917,1.172,1.172,0,0,0-.4,1.373,10.357,10.357,0,0,0,.733,1.528l.017.032a10.689,10.689,0,0,0,.918,1.423,1.194,1.194,0,0,0,1.381.4,11.287,11.287,0,0,0,1.549-.716l.042-.027a11.289,11.289,0,0,0,1.432-.916,1.177,1.177,0,0,0,.4-1.376,10.415,10.415,0,0,0-.733-1.53L903.6,94.1a9.865,9.865,0,0,0-.918-1.423,1.191,1.191,0,0,0-1.381-.394,10.572,10.572,0,0,0-1.541.717ZM809.47,90.764a1.668,1.668,0,0,1,1.536,1.028,1.648,1.648,0,0,1-.883,2.127l-9.291,3.724-.034.014a1.671,1.671,0,0,1-2.158-.909,1.647,1.647,0,0,1,.916-2.141l.035-.014,9.292-3.724a1.625,1.625,0,0,1,.578-.105Zm-74.091,5.195a1.644,1.644,0,0,0,2.281.273,1.61,1.61,0,0,0,.467-1.967c-.528.264-1.241.587-2.308,1.1l-.49.233c-.05.018-.077.038-.124.055A1.256,1.256,0,0,0,735.379,95.958ZM722.2,95.74c1.109.768,2.073.709,3.762.235a74.507,74.507,0,0,0,8.45-3.589c2.818-1.308,3.008-1.415,4.11-2.021a7.334,7.334,0,0,0,.888-.583,3.942,3.942,0,0,0,1.083-1.216,4.376,4.376,0,0,0,.44-2.427,16.447,16.447,0,0,0-.659-2.871A15.329,15.329,0,0,0,739.3,80.5a4.149,4.149,0,0,0-1.664-1.819A4.859,4.859,0,0,0,735,78.2c-1.258.058-1.472.081-4.567.452a73.2,73.2,0,0,0-9.078,1.4,5.893,5.893,0,0,0-2.133.924,3.116,3.116,0,0,0-.934,1.246A4.64,4.64,0,0,0,718.1,85c.223.923.436,2.021,1.089,4.292.645,2.234,1.371,4.2,1.371,4.2A4.6,4.6,0,0,0,722.2,95.74Zm159.371-9.548h0a5.186,5.186,0,0,1,6.981,1.986,5.1,5.1,0,0,1-2,6.923,5.181,5.181,0,0,1-6.981-1.985h0A5.107,5.107,0,0,1,881.575,86.191Zm-115.2,7.283a6.265,6.265,0,0,1-2.864-8.352c.016-.033.034-.065.051-.1a1.657,1.657,0,0,1,2.929,1.542c-.277.593-.977,2.618,1.54,4.06s3.9-.186,4.268-.718a1.683,1.683,0,0,1,2.3-.443,1.635,1.635,0,0,1,.472,2.257A6.281,6.281,0,0,1,766.376,93.475Zm200.715.467a6.361,6.361,0,0,1-7.916-4.035l-.025-.105a1.647,1.647,0,0,1,1.1-1.962,1.7,1.7,0,0,1,2.08,1.054c.219.617,1.137,2.556,3.949,1.859s2.678-2.822,2.568-3.458a1.662,1.662,0,0,1,3.267-.6A6.206,6.206,0,0,1,967.091,93.942ZM882.679,88.17h0a2.827,2.827,0,0,0-1.112,3.846,2.875,2.875,0,0,0,3.874,1.1,2.821,2.821,0,0,0,1.112-3.846h0A2.874,2.874,0,0,0,882.679,88.17Zm-75.356-2.68a1.669,1.669,0,0,1,1.536,1.028,1.649,1.649,0,0,1-.882,2.128l-9.292,3.724-.035.014a1.67,1.67,0,0,1-2.158-.909,1.648,1.648,0,0,1,.916-2.141l.035-.013,9.292-3.724a1.663,1.663,0,0,1,.578-.105Zm58.059-4.9a5.582,5.582,0,0,1,1.65,7.715,5.682,5.682,0,0,1-7.781,1.639,5.575,5.575,0,0,1-1.651-7.716h0A5.686,5.686,0,0,1,865.382,80.589ZM1031.4,64.03l.194-.071a41.251,41.251,0,0,1,6.24-1.9,7.47,7.47,0,0,1,8.084,3.617,41.3,41.3,0,0,1,2.712,5.828l.042.119a39.78,39.78,0,0,1,1.928,6.183,7.5,7.5,0,0,1-.455,4.56,7.646,7.646,0,0,1-3.175,3.466,40.8,40.8,0,0,1-5.861,2.709l-.185.071a41.255,41.255,0,0,1-6.248,1.9,7.484,7.484,0,0,1-8.076-3.618,40.32,40.32,0,0,1-2.712-5.831l-.042-.12a39.77,39.77,0,0,1-1.928-6.182,7.4,7.4,0,0,1,3.613-8.027,41.659,41.659,0,0,1,5.87-2.707ZM825.982,88.012l-.137-.128-.109-.077-.08-.1c-.066-.054-1.576-1.613-3.138-3.46-1.592-1.862-2.854-3.607-2.911-3.674l-.136-.2-.1-.165a7.488,7.488,0,0,1-1.351-4.136,6.266,6.266,0,0,1,.729-3.079,9.391,9.391,0,0,1,2.357-2.686,68.441,68.441,0,0,1,7.67-4.968l.488-.282c2.664-1.575,2.942-1.745,4.2-2.368a8.141,8.141,0,0,1,4.47-.954,7.656,7.656,0,0,1,3.924,1.677,17.215,17.215,0,0,1,2.519,2.613,16.467,16.467,0,0,1,2.173,2.927,7.493,7.493,0,0,1,.985,4.115,7.071,7.071,0,0,1-.876,2.9,5.027,5.027,0,0,1-.261.457,4.891,4.891,0,0,1,1.33,6.166,4.955,4.955,0,0,1-7.623,1.372,41.3,41.3,0,0,1-3.992,4.054c-1.605,1.351-3.5,2.533-6.248,2.032A7.56,7.56,0,0,1,825.982,88.012Zm66.49-7.954.025-.013a3.384,3.384,0,0,1,2.021-.384,11.825,11.825,0,0,1,1.811.383h.008l.05.015a11.726,11.726,0,0,1,1.777.648,3.254,3.254,0,0,1,1.465,1.369,3.328,3.328,0,0,1,.4,2.025,11.89,11.89,0,0,1-.387,1.8,11.373,11.373,0,0,1-.657,1.793,3.319,3.319,0,0,1-1.373,1.466,3.4,3.4,0,0,1-2.046.4,11.42,11.42,0,0,1-1.811-.378l-.059-.017a11.642,11.642,0,0,1-1.777-.648,3.315,3.315,0,0,1-1.474-1.37,3.27,3.27,0,0,1-.387-2.028,10.925,10.925,0,0,1,.387-1.8,12.19,12.19,0,0,1,.648-1.792A3.293,3.293,0,0,1,892.472,80.058Zm-28.9,3.284h0a2.326,2.326,0,0,0-3.192.674,2.288,2.288,0,0,0,.674,3.174,2.336,2.336,0,0,0,3.2-.674h0A2.289,2.289,0,0,0,863.571,83.342ZM1032.607,67.1a38.265,38.265,0,0,0-5.4,2.479,4.12,4.12,0,0,0-2.038,4.557,38.637,38.637,0,0,0,1.768,5.63l.051.12a37.022,37.022,0,0,0,2.484,5.358,4.3,4.3,0,0,0,1.945,1.785,4.354,4.354,0,0,0,2.636.248,38.053,38.053,0,0,0,5.684-1.739l.177-.068a37.732,37.732,0,0,0,5.39-2.478,4.1,4.1,0,0,0,2.038-4.555,37.641,37.641,0,0,0-1.768-5.629l-.051-.12a37.113,37.113,0,0,0-2.484-5.359,4.262,4.262,0,0,0-1.945-1.784,4.348,4.348,0,0,0-2.636-.247,37.645,37.645,0,0,0-5.676,1.737l-.185.069ZM893.592,82.03a1.084,1.084,0,0,0-.446.488,10.128,10.128,0,0,0-.505,1.394l-.008.03a9.367,9.367,0,0,0-.312,1.444,1.019,1.019,0,0,0,.606,1.1,10.035,10.035,0,0,0,1.4.5l.05.013a9.208,9.208,0,0,0,1.457.312,1.038,1.038,0,0,0,1.1-.607,9.069,9.069,0,0,0,.5-1.393l.008-.03a8.528,8.528,0,0,0,.32-1.446,1.035,1.035,0,0,0-.615-1.1,9.127,9.127,0,0,0-1.4-.5l-.042-.013a9.626,9.626,0,0,0-1.457-.309,1.1,1.1,0,0,0-.657.12Zm-88.451-1.9a1.667,1.667,0,0,1,1.535,1.028,1.647,1.647,0,0,1-.882,2.127L796.5,87.011l-.035.014a1.671,1.671,0,0,1-2.159-.909,1.649,1.649,0,0,1,.916-2.141l.035-.013,9.291-3.724a1.652,1.652,0,0,1,.579-.105Zm25.311,6.682c1.327.253,2.184-.19,3.531-1.3a73.756,73.756,0,0,0,6.244-6.687c2.036-2.332,2.167-2.506,2.925-3.5a7.17,7.17,0,0,0,.572-.891,3.858,3.858,0,0,0,.488-1.547,4.321,4.321,0,0,0-.591-2.394,16.505,16.505,0,0,0-1.779-2.356A15.374,15.374,0,0,0,839.812,66a4.194,4.194,0,0,0-2.266-.99,4.854,4.854,0,0,0-2.6.621c-1.126.561-1.311.668-3.985,2.256a72.829,72.829,0,0,0-7.714,4.945,5.845,5.845,0,0,0-1.57,1.705,3.1,3.1,0,0,0-.341,1.514,4.636,4.636,0,0,0,.966,2.612c.582.753,1.226,1.67,2.752,3.48,1.5,1.78,2.973,3.279,2.973,3.279a4.638,4.638,0,0,0,2.426,1.39ZM1063.723,71.4c.185-.487.379-.957.573-1.4.286-.669.489-1.051.522-1.119a5.834,5.834,0,0,1,.985-1.336,5.571,5.571,0,0,1,1.339-1,5.367,5.367,0,0,1,1.642-.561,5.215,5.215,0,0,1,1.819.021l.093.018a66.78,66.78,0,0,1,11.318,3.649l.084.038a5.026,5.026,0,0,1,1.482,1.043,5.2,5.2,0,0,1,1,1.411,5.552,5.552,0,0,1,.489,1.592,5.443,5.443,0,0,1,0,1.653c-.009.079-.076.509-.236,1.216-.211.941-.488,1.952-.834,3v.005c-.345,1.048-.716,2.028-1.1,2.912-.295.671-.488,1.053-.531,1.121a5.828,5.828,0,0,1-.977,1.338,5.638,5.638,0,0,1-1.347,1,5.216,5.216,0,0,1-3.461.539l-.084-.017a66.988,66.988,0,0,1-11.318-3.649l-.084-.038a5.167,5.167,0,0,1-1.49-1.045,5.355,5.355,0,0,1-.994-1.41,5.545,5.545,0,0,1-.489-1.592,5.728,5.728,0,0,1-.008-1.653c.017-.079.084-.507.236-1.216.219-.942.5-1.949.842-3V72.92C1063.361,72.4,1063.546,71.887,1063.723,71.4Zm-27.992,3.412a6.371,6.371,0,0,1,8.362,3.049c.017.033.025.068.042.1a1.649,1.649,0,0,1-.859,2.087,1.7,1.7,0,0,1-2.2-.795c-.286-.589-1.44-2.405-4.152-1.37s-2.316,3.129-2.13,3.748a1.66,1.66,0,0,1-3.166.993A6.2,6.2,0,0,1,1035.731,74.814Zm30.61-.876c-.194.595-.354,1.126-.472,1.582s-.219.835-.286,1.125c-.126.573-.177.916-.185.961v.008a2.1,2.1,0,0,0,1.1,2.257l.034.016a53.845,53.845,0,0,0,5.238,1.945,53.079,53.079,0,0,0,5.4,1.481l.034.008a2.123,2.123,0,0,0,2.231-1.18v-.009c.017-.027.177-.335.421-.887s.6-1.441.994-2.627.623-2.128.75-2.706.185-.919.194-.961v-.006a2.092,2.092,0,0,0-1.112-2.257l-.025-.014a64.448,64.448,0,0,0-10.636-3.428l-.034-.01a2.123,2.123,0,0,0-2.232,1.18v.008c-.017.028-.177.336-.421.887S1066.729,72.752,1066.342,73.938Zm-59.031,8.77ZM623.869,77.544a4.423,4.423,0,0,1,.3-1.238,3.859,3.859,0,0,1,1.346-1.7,6.019,6.019,0,0,1-2.172-1.983c-.025-.062-.3-.466-.694-1.175-.471-.892-.951-1.887-1.392-2.969a32.489,32.489,0,0,1-1.08-3.1c-.212-.783-.3-1.262-.316-1.344a6.48,6.48,0,0,1,3.464-6.888.334.334,0,0,0,.117-.064c.371-.185,2.649-1.348,6.444-2.87s6.246-2.259,6.695-2.386l.078-.032a7,7,0,0,1,4.159.109A6.388,6.388,0,0,1,644,54.375c.025.061.3.465.688,1.16.477.907.957,1.9,1.4,2.984a32.491,32.491,0,0,1,1.081,3.1c.212.784.3,1.262.316,1.344a6,6,0,0,1-.145,2.893,3.894,3.894,0,0,1,2.189.329,4.4,4.4,0,0,1,1.033.65,4.761,4.761,0,0,1,1.7,4.16,4.981,4.981,0,0,1-.3,1.237c-.214.528-.771,1.922-4.657,3.57-.547.238-3.124,1.325-7.379,3.033s-6.868,2.7-7.362,2.884l-.078.031c-3.934,1.49-5.31.871-5.884.607a4.159,4.159,0,0,1-1.027-.634,4.848,4.848,0,0,1-1.368-1.863A4.738,4.738,0,0,1,623.869,77.544Zm218.7,4.152a1.641,1.641,0,0,0,2.194-.671,1.619,1.619,0,0,0-.379-1.984c-.376.454-.893,1.038-1.657,1.938l-.351.411c-.039.035-.055.066-.091.1A1.27,1.27,0,0,0,842.572,81.7ZM627.706,79.2a.823.823,0,0,0,.264.165c.379.185,1.692-.058,3.363-.693l.046-.018c.42-.151,3.05-1.154,7.305-2.861s6.831-2.8,7.255-2.983l.045-.018c1.646-.7,2.76-1.426,2.9-1.821a.823.823,0,0,0,.074-.3,1.59,1.59,0,0,0-.1-.723,1.524,1.524,0,0,0-.436-.587.773.773,0,0,0-.268-.176c-.379-.185-1.693.058-3.363.693l-.046.018c-.375.133-2.323.879-5.5,2.155-.559.206-1.159.447-1.8.705-.814.327-1.551.622-2.237.915-2.918,1.171-4.688,1.917-5.019,2.068l-.045.018c-1.646.7-2.76,1.427-2.9,1.821a.771.771,0,0,0-.069.312,1.5,1.5,0,0,0,.1.723,1.583,1.583,0,0,0,.434.588Zm84.848-9.4c.242-.6.363-.982.394-1.079a5.716,5.716,0,0,0,.261-1.65,5.578,5.578,0,0,0-.237-1.669,5.343,5.343,0,0,0-.776-1.576,5.247,5.247,0,0,0-1.324-1.287l-.083-.053c-.136-.089-.512-.332-1.11-.686l1.944-.754a1.457,1.457,0,1,0-1.067-2.709l-4.216,1.632-.424-.214-1.138-4.339a1.46,1.46,0,0,0-.755-.932,1.481,1.481,0,0,0-1.975.637,1.445,1.445,0,0,0-.112,1.028l.526,2c-.638-.271-1.054-.429-1.208-.486l-.092-.033a5.315,5.315,0,0,0-1.827-.306,5.457,5.457,0,0,0-1.744.3,5.667,5.667,0,0,0-1.5.79A5.757,5.757,0,0,0,694.9,59.6c-.06.08-.3.4-.648.949-.473.74-.946,1.566-1.4,2.455l0,.007c-.457.889-.852,1.754-1.176,2.568-.242.6-.363.982-.393,1.079a5.689,5.689,0,0,0-.261,1.65,5.533,5.533,0,0,0,.237,1.67,5.322,5.322,0,0,0,.776,1.576,5.245,5.245,0,0,0,1.323,1.287l.088.056a59.788,59.788,0,0,0,9.528,4.816l.092.033a5.317,5.317,0,0,0,1.827.306,5.449,5.449,0,0,0,1.742-.3,5.647,5.647,0,0,0,1.5-.791,5.735,5.735,0,0,0,1.192-1.179c.061-.08.3-.4.648-.949.474-.739.945-1.566,1.4-2.455l0-.007C711.834,71.477,712.229,70.613,712.554,69.8Zm-5.059,3.47c-.325.507-.522.768-.522.768a2.609,2.609,0,0,1-2.93.967l-.037-.013a57.1,57.1,0,0,1-8.962-4.531l-.033-.022a2.567,2.567,0,0,1-.934-2.92,6.055,6.055,0,0,1,.32-.871c.223-.559.565-1.347,1.064-2.322s.947-1.717,1.267-2.219.522-.768.522-.768a2.61,2.61,0,0,1,2.93-.967l.038.013a57.106,57.106,0,0,1,8.962,4.531l.033.022a2.566,2.566,0,0,1,.933,2.92,6.123,6.123,0,0,1-.319.871c-.224.559-.565,1.347-1.064,2.321S707.815,72.766,707.494,73.268ZM978.8,44.751c2.316-1.023,5.667-.3,11.95,2.584l.328.149a7.117,7.117,0,0,1,3.124,2.639,31.573,31.573,0,0,1,2.594,4.8l.042.1a30.7,30.7,0,0,1,1.886,5.179,6.658,6.658,0,0,1-.337,4.238,7.294,7.294,0,0,1-2.821,3.242,40.764,40.764,0,0,1-5.162,2.679l-.168.073a40.231,40.231,0,0,1-5.516,2.029,7.324,7.324,0,0,1-4.228-.086,6.758,6.758,0,0,1-3.469-2.649,31.542,31.542,0,0,1-2.594-4.8l-.042-.1a31.462,31.462,0,0,1-1.878-5.179,8.026,8.026,0,0,1-.118-3.26c.1-.9,2.324-9.827,6.408-11.636ZM944.464,70.308l-.135-.129-.109-.076-.076-.1c-.067-.054-1.583-1.612-3.141-3.46-1.591-1.862-2.855-3.607-2.914-3.674l-.135-.2-.1-.165a7.444,7.444,0,0,1-1.347-4.136,6.226,6.226,0,0,1,.724-3.079,9.408,9.408,0,0,1,2.358-2.686,68.138,68.138,0,0,1,7.672-4.968l.488-.283c2.661-1.575,2.939-1.744,4.194-2.368a8.155,8.155,0,0,1,4.472-.955,7.672,7.672,0,0,1,3.924,1.677,17.3,17.3,0,0,1,2.518,2.614,16.406,16.406,0,0,1,2.173,2.927,7.488,7.488,0,0,1,.985,4.114,7.2,7.2,0,0,1-.876,2.906,5.245,5.245,0,0,1-.269.457,4.884,4.884,0,0,1,1.339,6.166,4.976,4.976,0,0,1-6.67,2.027,4.726,4.726,0,0,1-.952-.656,41.587,41.587,0,0,1-3.992,4.055c-1.608,1.35-3.495,2.532-6.248,2.032A7.557,7.557,0,0,1,944.464,70.308Zm-302.69-13.2c-.339-.609-.536-.92-.536-.92a3.306,3.306,0,0,0-3.663-1.226l-.046.018c-.386.1-2.711.8-6.4,2.284s-5.848,2.577-6.2,2.771l-.046.018a3.259,3.259,0,0,0-1.774,3.408c.216,1.394.075.36.259,1.03a29.1,29.1,0,0,0,.962,2.753c.472,1.159.923,2.041,1.238,2.643.339.608.536.919.536.919a3.305,3.305,0,0,0,3.663,1.226l.046-.018c.3-.087,1.8-.53,4.211-1.42.661-.265,1.389-.539,2.188-.86.63-.252,1.213-.487,1.76-.724,2.607-1.1,4.143-1.893,4.433-2.049l.05-.02a3.258,3.258,0,0,0,1.774-3.407c-.216-1.394-.075-.361-.259-1.031a27.95,27.95,0,0,0-2.2-5.395ZM915.47,44.96l.185.072a41.116,41.116,0,0,1,5.87,2.836,7.385,7.385,0,0,1,3.419,8.1,40.8,40.8,0,0,1-2.03,6.087l-.042.119A41.4,41.4,0,0,1,920.034,68a7.613,7.613,0,0,1-3.469,3.024,7.7,7.7,0,0,1-4.691.39,41.326,41.326,0,0,1-6.147-1.987l-.185-.074a40.581,40.581,0,0,1-5.861-2.836,7.356,7.356,0,0,1-3.419-8.1,40.756,40.756,0,0,1,2.021-6.089l.051-.119a39.593,39.593,0,0,1,2.838-5.82,7.479,7.479,0,0,1,8.152-3.416,40.809,40.809,0,0,1,6.147,1.988ZM861.7,60.695c-.227-.72-.345-1.17-.37-1.286a6.819,6.819,0,0,1-.168-1.938,6.524,6.524,0,0,1,.413-1.919,6.273,6.273,0,0,1,1.027-1.769,6.093,6.093,0,0,1,1.651-1.39l.1-.056c.16-.093.623-.343,1.339-.708L863.5,50.6a1.694,1.694,0,0,1,.067-3.091,1.736,1.736,0,0,1,1.406.029l4.749,2.242.514-.215,1.684-4.953a1.686,1.686,0,0,1,.943-1.019,1.73,1.73,0,0,1,2.248.9,1.69,1.69,0,0,1,.042,1.2l-.775,2.284c.766-.262,1.255-.414,1.44-.468l.109-.032a6.184,6.184,0,0,1,2.147-.206,6.384,6.384,0,0,1,2,.493,6.648,6.648,0,0,1,1.676,1.039,6.751,6.751,0,0,1,1.289,1.467c.067.1.312.489.674,1.155a31.827,31.827,0,0,1,1.432,2.963l.008.008c.455,1.07.842,2.107,1.154,3.078.227.72.345,1.171.371,1.286a6.832,6.832,0,0,1,.168,1.94,6.526,6.526,0,0,1-.413,1.918,6.224,6.224,0,0,1-2.678,3.16l-.1.056a58.856,58.856,0,0,1-5.617,2.668,59.97,59.97,0,0,1-5.844,2.159l-.118.034a6.166,6.166,0,0,1-2.147.21,6.28,6.28,0,0,1-2-.494,6.675,6.675,0,0,1-2.964-2.506c-.068-.1-.32-.489-.682-1.155-.488-.9-.968-1.894-1.431-2.964v-.008C862.4,62.7,862.013,61.667,861.7,60.695ZM980.152,47.758c-2.055.908-4.295,7.544-4.472,9.011a5.04,5.04,0,0,0,.051,2.129,28.7,28.7,0,0,0,1.684,4.589l.042.1a28.9,28.9,0,0,0,2.316,4.312,3.462,3.462,0,0,0,1.76,1.358,4.07,4.07,0,0,0,2.349.026,36.831,36.831,0,0,0,5-1.85l.151-.068a36.476,36.476,0,0,0,4.733-2.452,4.049,4.049,0,0,0,1.558-1.747,3.5,3.5,0,0,0,.169-2.211,28.727,28.727,0,0,0-1.684-4.588l-.051-.1a28.079,28.079,0,0,0-2.307-4.312,3.829,3.829,0,0,0-1.676-1.448c-.733-.309-7.571-3.658-9.625-2.75ZM948.935,69.109c1.33.253,2.181-.189,3.528-1.3a73.9,73.9,0,0,0,6.248-6.688c2.038-2.332,2.164-2.506,2.922-3.5a7.423,7.423,0,0,0,.573-.89,3.875,3.875,0,0,0,.488-1.547,4.415,4.415,0,0,0-.589-2.394,17,17,0,0,0-1.777-2.355,15.055,15.055,0,0,0-2.038-2.131,4.155,4.155,0,0,0-2.265-.989,4.854,4.854,0,0,0-2.6.62c-1.12.561-1.305.668-3.983,2.256a73.471,73.471,0,0,0-7.714,4.946,5.855,5.855,0,0,0-1.566,1.7,3.062,3.062,0,0,0-.345,1.515,4.682,4.682,0,0,0,.969,2.612c.581.754,1.229,1.67,2.754,3.48,1.507,1.78,2.973,3.279,2.973,3.279a4.611,4.611,0,0,0,2.425,1.39ZM748.129,52.543l.05-.18.017-.131.05-.115c.017-.084.7-2.138,1.608-4.374.911-2.27,1.872-4.193,1.9-4.276l.116-.214.1-.167a7.56,7.56,0,0,1,3.049-3.124,6.4,6.4,0,0,1,3.083-.805,9.493,9.493,0,0,1,3.5.805,68.523,68.523,0,0,1,8.022,4.39l.481.3c2.652,1.595,2.934,1.759,4.077,2.565a8.049,8.049,0,0,1,2.947,3.47,7.518,7.518,0,0,1,.348,4.226,17.228,17.228,0,0,1-1.144,3.436,16.378,16.378,0,0,1-1.586,3.275,7.6,7.6,0,0,1-3.2,2.8,7.294,7.294,0,0,1-3,.592c-.182,0-.348,0-.531-.017a4.938,4.938,0,0,1-9.8-.841,4.834,4.834,0,0,1,.134-1.132,41.757,41.757,0,0,1-5.483-1.595c-1.956-.773-3.893-1.875-4.739-4.521A7.419,7.419,0,0,1,748.129,52.543ZM662.744,42.1l-.184.074a41.093,41.093,0,0,0-5.868,2.836,7.373,7.373,0,0,0-3.421,8.1A40.616,40.616,0,0,0,655.3,59.2l.049.119a40.322,40.322,0,0,0,2.837,5.82,7.485,7.485,0,0,0,8.158,3.415,41.131,41.131,0,0,0,6.144-1.987l.184-.074a41.266,41.266,0,0,0,5.867-2.836,7.369,7.369,0,0,0,3.421-8.1,40.674,40.674,0,0,0-2.025-6.089l-.049-.119a40.292,40.292,0,0,0-2.837-5.82,7.554,7.554,0,0,0-3.469-3.025,7.694,7.694,0,0,0-4.689-.392A41.136,41.136,0,0,0,662.744,42.1ZM914.232,48.01a38.111,38.111,0,0,0-5.634-1.834,4.173,4.173,0,0,0-4.623,1.952,37.611,37.611,0,0,0-2.568,5.308l-.051.119a37.388,37.388,0,0,0-1.869,5.591,4.1,4.1,0,0,0,1.962,4.586,37.379,37.379,0,0,0,5.339,2.568l.177.07a37.8,37.8,0,0,0,5.642,1.835,4.157,4.157,0,0,0,4.615-1.952,36.713,36.713,0,0,0,2.568-5.308l.05-.119c.775-1.813,1.87-5.593,1.87-5.593a7.778,7.778,0,0,0-.2-2.619,4.3,4.3,0,0,0-1.752-1.966,37.995,37.995,0,0,0-5.347-2.569l-.177-.07ZM867.293,65.133c.337.615.547.933.547.933a3.034,3.034,0,0,0,3.326,1.358l.042-.013a55.582,55.582,0,0,0,5.491-2.034A55.671,55.671,0,0,0,882,62.87l.034-.023a3,3,0,0,0,1.33-3.318,6.6,6.6,0,0,0-.3-1.037c-.211-.668-.547-1.609-1.044-2.783s-.96-2.071-1.289-2.68-.547-.933-.547-.933a3.033,3.033,0,0,0-3.326-1.358l-.042.013a67.154,67.154,0,0,0-10.787,4.542l-.034.023a3,3,0,0,0-1.331,3.318,6.585,6.585,0,0,0,.3,1.037A29.333,29.333,0,0,0,866,62.453C866.51,63.626,866.965,64.524,867.293,65.133Zm35.907-3,9.3,3.724c.008.005.025.01.034.014a1.666,1.666,0,0,0,2.156-.909,1.643,1.643,0,0,0-.91-2.141c-.017,0-.025-.009-.042-.013l-9.288-3.724a1.667,1.667,0,0,0-2.122.922,1.648,1.648,0,0,0,.876,2.127ZM761.536,64.121a1.628,1.628,0,0,0,3.215.345c-.58-.115-1.342-.3-2.5-.542l-.531-.115c-.05-.017-.084-.017-.132-.033A1.228,1.228,0,0,0,761.536,64.121Zm46.921-25.779c-2.148-1.332-5.566-1.078-12.191.908l-.345.1a7.132,7.132,0,0,0-3.459,2.181,31.288,31.288,0,0,0-3.243,4.393l-.056.089a31.284,31.284,0,0,0-2.589,4.864,6.627,6.627,0,0,0-.261,4.24,7.291,7.291,0,0,0,2.34,3.6,40.476,40.476,0,0,0,4.732,3.365l.154.1a40.277,40.277,0,0,0,5.175,2.769,7.334,7.334,0,0,0,4.2.5,6.81,6.81,0,0,0,3.806-2.143,31.3,31.3,0,0,0,3.234-4.4l.057-.089a31.181,31.181,0,0,0,2.591-4.866,8.1,8.1,0,0,0,.569-3.207c.022-.909-.917-10.046-4.717-12.4Zm-144.48,6.807a37.946,37.946,0,0,1,5.641-1.835,4.357,4.357,0,0,1,2.641.2,4.311,4.311,0,0,1,1.977,1.749,37.314,37.314,0,0,1,2.574,5.308l.048.119a37.215,37.215,0,0,1,1.866,5.592,4.109,4.109,0,0,1-1.954,4.587,37.775,37.775,0,0,1-5.343,2.568l-.174.07a37.842,37.842,0,0,1-5.641,1.833,4.155,4.155,0,0,1-4.619-1.952,37.307,37.307,0,0,1-2.573-5.308l-.049-.119a37.165,37.165,0,0,1-1.865-5.591,4.254,4.254,0,0,1,.2-2.619,4.3,4.3,0,0,1,1.758-1.967,37.9,37.9,0,0,1,5.342-2.569l.175-.069ZM961.053,63.992a1.645,1.645,0,0,0,2.2-.67,1.619,1.619,0,0,0-.379-1.984c-.379.454-.893,1.037-1.659,1.938l-.354.41c-.034.036-.051.066-.084.1A1.269,1.269,0,0,0,961.053,63.992Zm-286.7-7.872a1.666,1.666,0,0,1,1.535,1.028,1.647,1.647,0,0,1-.882,2.127L665.717,63l-.034.014a1.671,1.671,0,0,1-2.159-.909,1.649,1.649,0,0,1,.916-2.141l.035-.014,9.291-3.724a1.634,1.634,0,0,1,.579-.105ZM806.7,41.127c1.907,1.182,3.194,8.06,3.16,9.536a5.016,5.016,0,0,1-.349,2.1,28.539,28.539,0,0,1-2.311,4.309l-.057.089a28.546,28.546,0,0,1-2.892,3.949,3.494,3.494,0,0,1-1.935,1.1,4.063,4.063,0,0,1-2.328-.3,36.9,36.9,0,0,1-4.691-2.521l-.143-.089a36.72,36.72,0,0,1-4.342-3.08,4,4,0,0,1-1.293-1.941,3.43,3.43,0,0,1,.148-2.209,28.509,28.509,0,0,1,2.311-4.309l.056-.089a28.615,28.615,0,0,1,2.892-3.948,3.85,3.85,0,0,1,1.862-1.2c.764-.206,8.006-2.576,9.914-1.392ZM751.294,55.9c.4,1.282,1.193,1.825,2.818,2.483A74.481,74.481,0,0,0,763,60.716c3.032.691,3.248.723,4.491.919a7.273,7.273,0,0,0,1.061.084,4,4,0,0,0,1.608-.3,4.427,4.427,0,0,0,1.853-1.644,16.447,16.447,0,0,0,1.263-2.663,15.216,15.216,0,0,0,.945-2.779,4.11,4.11,0,0,0-.182-2.45A4.8,4.8,0,0,0,772.26,49.9c-1.027-.723-1.21-.835-3.878-2.434a72.814,72.814,0,0,0-8.022-4.44,5.913,5.913,0,0,0-2.254-.576,3.16,3.16,0,0,0-1.508.411,4.684,4.684,0,0,0-1.873,2.072c-.4.863-.911,1.858-1.806,4.044-.878,2.154-1.525,4.144-1.525,4.144A4.557,4.557,0,0,0,751.294,55.9Zm154.054.964,9.3,3.725c.008.005.025.01.034.014a1.666,1.666,0,0,0,2.156-.909,1.642,1.642,0,0,0-.909-2.141c-.017-.005-.025-.009-.042-.013l-9.289-3.724a1.667,1.667,0,0,0-2.122.922,1.645,1.645,0,0,0,.884,2.127ZM672.207,50.846a1.667,1.667,0,0,1,1.535,1.028A1.647,1.647,0,0,1,672.86,54l-9.291,3.724-.034.015a1.672,1.672,0,0,1-2.159-.909,1.65,1.65,0,0,1,.917-2.142l.035-.013,9.291-3.724a1.671,1.671,0,0,1,.578-.105Zm60.316-20.364.179.072a41.2,41.2,0,0,1,5.869,2.836,7.371,7.371,0,0,1,3.421,8.1,40.711,40.711,0,0,1-2.025,6.088l-.049.119a40.31,40.31,0,0,1-2.837,5.82,7.547,7.547,0,0,1-3.469,3.024,7.688,7.688,0,0,1-4.689.39,41.149,41.149,0,0,1-6.145-1.987l-.184-.074a41.258,41.258,0,0,1-5.866-2.836,7.364,7.364,0,0,1-3.42-8.1,40.649,40.649,0,0,1,2.025-6.089l.049-.119a40.2,40.2,0,0,1,2.837-5.821,7.486,7.486,0,0,1,8.158-3.415,41.136,41.136,0,0,1,6.144,1.987Zm318.552,10.78a4.487,4.487,0,0,1,1.069-.7,3.94,3.94,0,0,1,2.156-.328,5.931,5.931,0,0,1-.227-2.92c.025-.062.1-.541.3-1.328.27-.972.6-2.024,1.019-3.114s.884-2.094,1.347-2.993c.379-.717.648-1.127.69-1.2a6.567,6.567,0,0,1,7.267-2.69.34.34,0,0,0,.135.032c.4.116,2.863.809,6.686,2.263s6.114,2.577,6.535,2.788l.076.03a6.909,6.909,0,0,1,2.964,2.894,6.261,6.261,0,0,1,.632,3.957c-.017.061-.1.541-.295,1.313a32.27,32.27,0,0,1-1.027,3.13c-.421,1.089-.884,2.094-1.339,2.993-.387.717-.648,1.127-.691,1.2a6.159,6.159,0,0,1-2.1,2.016,3.852,3.852,0,0,1,1.373,1.724,4.382,4.382,0,0,1,.312,1.175,4.746,4.746,0,0,1-.278,2.272,4.7,4.7,0,0,1-1.347,1.917,5.084,5.084,0,0,1-1.07.7c-.522.241-1.886.883-5.861-.542-.564-.2-3.192-1.146-7.478-2.778s-6.88-2.673-7.368-2.876l-.076-.03c-3.9-1.575-4.48-2.959-4.716-3.54a3.988,3.988,0,0,1-.32-1.16,4.818,4.818,0,0,1,.286-2.287A4.762,4.762,0,0,1,1051.074,41.262Zm-44.531,9.625-.068-.173-.076-.114-.034-.121c-.034-.076-.775-2.11-1.44-4.429-.7-2.344-1.128-4.449-1.154-4.533l-.042-.24-.025-.192a7.464,7.464,0,0,1,.463-4.325,6.256,6.256,0,0,1,1.928-2.519,9.445,9.445,0,0,1,3.251-1.5A68.683,68.683,0,0,1,1018.4,31.3l.564-.061c3.074-.364,3.4-.407,4.8-.47a8.17,8.17,0,0,1,4.48.933,7.6,7.6,0,0,1,2.9,3.117,16.946,16.946,0,0,1,1.229,3.406,16.051,16.051,0,0,1,.783,3.551,7.49,7.49,0,0,1-.783,4.159,7.331,7.331,0,0,1-2,2.3c-.143.111-.278.212-.43.311a4.887,4.887,0,0,1-1.314,6.172,4.979,4.979,0,0,1-6.922-.842,4.634,4.634,0,0,1-.606-.982,41.84,41.84,0,0,1-5.305,2.094c-2.021.586-4.236.9-6.543-.666A7.473,7.473,0,0,1,1006.544,50.887Zm-99.006.617,9.288,3.725c.008.005.025.009.034.014a1.667,1.667,0,0,0,2.156-.909,1.642,1.642,0,0,0-.909-2.141.131.131,0,0,1-.034-.014l-9.3-3.724a1.67,1.67,0,0,0-2.122.922,1.645,1.645,0,0,0,.884,2.127Zm-74.1.013a66.654,66.654,0,0,1-6.211-3.081l-.091-.053a6,6,0,0,1-1.589-1.389,6.1,6.1,0,0,1-.981-1.755,6.388,6.388,0,0,1-.374-1.9,6.554,6.554,0,0,1,.2-1.921c.023-.089.149-.575.423-1.379.361-1.066.809-2.2,1.336-3.376l0-.005c.527-1.175,1.08-2.267,1.635-3.247.421-.734.7-1.155.751-1.235a6.632,6.632,0,0,1,1.3-1.43,6.516,6.516,0,0,1,1.676-1,6.2,6.2,0,0,1,1.972-.451,6.05,6.05,0,0,1,2.1.242l.1.032a78.064,78.064,0,0,1,12.673,5.6l.093.055a5.954,5.954,0,0,1,1.592,1.388,6.133,6.133,0,0,1,.985,1.755,6.382,6.382,0,0,1,.371,1.9,6.719,6.719,0,0,1-.2,1.922c-.025.089-.152.575-.421,1.379-.177.529-.387,1.084-.615,1.651s-.463,1.143-.724,1.729v.005c-.531,1.175-1.086,2.267-1.642,3.247-.421.735-.7,1.153-.75,1.235a6.765,6.765,0,0,1-1.3,1.43,6.476,6.476,0,0,1-1.678,1,6.22,6.22,0,0,1-1.971.451,6.05,6.05,0,0,1-2.1-.242l-.1-.032a66.326,66.326,0,0,1-6.462-2.517ZM731.286,33.533a37.922,37.922,0,0,0-5.642-1.835,4.167,4.167,0,0,0-4.617,1.952,37.313,37.313,0,0,0-2.573,5.308l-.049.119a37.191,37.191,0,0,0-1.865,5.591,4.094,4.094,0,0,0,1.955,4.586,37.766,37.766,0,0,0,5.342,2.568l.175.07a37.9,37.9,0,0,0,5.64,1.835,4.154,4.154,0,0,0,4.618-1.951,37.313,37.313,0,0,0,2.573-5.308l.049-.119a37.2,37.2,0,0,0,1.865-5.592,4.257,4.257,0,0,0-.2-2.62,4.307,4.307,0,0,0-1.758-1.966A37.765,37.765,0,0,0,731.46,33.6l-.175-.07ZM1052.75,45.066a.739.739,0,0,0,.076.3c.152.392,1.28,1.1,2.939,1.77l.042.018c.413.175,3.023,1.222,7.309,2.854s6.914,2.582,7.352,2.731l.05.018c1.684.606,3,.825,3.377.633a.89.89,0,0,0,.261-.169,1.581,1.581,0,0,0,.421-.6,1.515,1.515,0,0,0,.084-.724.667.667,0,0,0-.076-.31c-.143-.392-1.271-1.1-2.93-1.77l-.051-.018c-.362-.156-2.3-.929-5.507-2.149-.547-.227-1.154-.458-1.794-.7-.825-.312-1.566-.595-2.265-.845-2.939-1.119-4.75-1.772-5.095-1.886l-.051-.018c-1.676-.606-3-.825-3.368-.634a.807.807,0,0,0-.269.18,1.566,1.566,0,0,0-.421.6,1.628,1.628,0,0,0-.093.723Zm-382.726.421a1.669,1.669,0,0,1,1.536,1.028,1.648,1.648,0,0,1-.882,2.127l-9.292,3.724-.035.014a1.67,1.67,0,0,1-2.158-.909,1.648,1.648,0,0,1,.916-2.141l.034-.013,9.292-3.724a1.644,1.644,0,0,1,.578-.105ZM1024.3,51.814a1.646,1.646,0,0,0,2.282.273,1.622,1.622,0,0,0,.472-1.967c-.531.264-1.246.587-2.316,1.1l-.488.233c-.051.018-.076.038-.118.055A1.346,1.346,0,0,0,1024.3,51.814Zm-13.171-.219c1.1.768,2.072.709,3.756.235a73.744,73.744,0,0,0,8.455-3.589c2.813-1.308,3.006-1.415,4.109-2.021a6.923,6.923,0,0,0,.884-.583,3.87,3.87,0,0,0,1.086-1.216,4.326,4.326,0,0,0,.438-2.428,16.75,16.75,0,0,0-.657-2.871,14.761,14.761,0,0,0-.985-2.767,4.142,4.142,0,0,0-1.659-1.819,4.868,4.868,0,0,0-2.636-.484c-1.255.058-1.474.081-4.564.452a72.941,72.941,0,0,0-9.078,1.4,5.869,5.869,0,0,0-2.13.924,3.053,3.053,0,0,0-.935,1.246,4.674,4.674,0,0,0-.194,2.777c.227.923.438,2.021,1.086,4.292.648,2.234,1.373,4.2,1.373,4.2A4.585,4.585,0,0,0,1011.125,51.6ZM720.254,47.658l9.292,3.724.034.014a1.671,1.671,0,0,0,2.158-.909,1.649,1.649,0,0,0-.916-2.142l-.034-.013L721.5,44.608a1.669,1.669,0,0,0-2.124.922A1.649,1.649,0,0,0,720.254,47.658ZM842.9,50.181a2.77,2.77,0,0,0,.945-.883l0-.008c.029-.043.25-.38.6-.977.168-.3.387-.7.64-1.191s.531-1.071.825-1.735c.6-1.328.985-2.389,1.213-3.043s.328-1.056.337-1.09v-.009a2.441,2.441,0,0,0-1-2.749l-.042-.015a61.659,61.659,0,0,0-5.83-2.889,62.435,62.435,0,0,0-6.074-2.373l-.04-.012a2.477,2.477,0,0,0-2.733,1.1l0,.007c-.028.041-.251.378-.592.979s-.875,1.6-1.473,2.927c-.314.7-.57,1.325-.773,1.854,1.32-1.236,4.515-3.864,6.626-2.6,2.718,1.632-.338,7.472,2.125,7.928,1.3.241,2.5-.463,3.45-.043C841.914,45.719,842.546,46.893,842.9,50.181Zm-120.5-7.8,9.292,3.724.034.014a1.67,1.67,0,0,0,2.158-.909,1.649,1.649,0,0,0-.916-2.141l-.035-.013-9.292-3.724a1.67,1.67,0,0,0-2.124.922A1.647,1.647,0,0,0,722.4,42.384Zm355.814-3.939c.177-.674.244-1.035.244-1.035a3.259,3.259,0,0,0-1.836-3.376l-.042-.018c-.354-.187-2.535-1.247-6.248-2.661s-6.055-2.074-6.442-2.17l-.042-.018a3.317,3.317,0,0,0-3.646,1.29c-.8,1.165-.194.314-.514.929a26.4,26.4,0,0,0-1.187,2.663c-.455,1.167-.733,2.118-.918,2.77-.168.674-.236,1.034-.236,1.034a3.252,3.252,0,0,0,1.827,3.376l.05.018c.286.142,1.684.834,4.059,1.813.665.253,1.381.546,2.189.852.632.241,1.221.465,1.785.662,2.661.962,4.328,1.42,4.648,1.5l.05.018a3.3,3.3,0,0,0,3.638-1.29c.8-1.165.194-.314.522-.929a28.505,28.505,0,0,0,1.187-2.663A26.521,26.521,0,0,0,1078.215,38.445Zm-235.05,1.588a1.9,1.9,0,0,1,.97,2.511,1.922,1.922,0,0,1-2.53.963,1.9,1.9,0,0,1-.971-2.51A1.923,1.923,0,0,1,843.165,40.033ZM724.584,37.026l9.291,3.724.034.014a1.67,1.67,0,0,0,2.158-.909,1.648,1.648,0,0,0-.916-2.141l-.035-.013-9.291-3.724a1.67,1.67,0,0,0-2.124.922A1.647,1.647,0,0,0,724.584,37.026Z" transform="translate(-12.641 -25.738)" fill="url(#linear-gradient)"/>
      </g>
    </g>
  </g>
</svg>
