<!-- All Svg -->
<svg xmlns="http://www.w3.org/2000/svg" style="display: none;">
  <symbol id="home" viewBox="0 0 24 24">
    <path d="M10 20v-6h4v6h5v-8h3L12 3 2 12h3v8z" />
  </symbol>

  <symbol id="sol" viewBox="0 0 24 24">
    <path fill="currentColor"
      d="M12 22c-4.714 0-7.071 0-8.536-1.465C2 19.072 2 16.714 2 12s0-7.071 1.464-8.536C4.93 2 7.286 2 12 2s7.071 0 8.535 1.464C22 4.93 22 7.286 22 12s0 7.071-1.465 8.535C19.072 22 16.714 22 12 22"
      opacity="0.5" />
    <path fill="currentColor"
      d="M19.02 7.46a.75.75 0 0 1 .02 1.06l-2.666 2.773l2.757 4.302a.75.75 0 1 1-1.262.81l-2.564-4l-1.055 1.097V16a.75.75 0 0 1-1.5 0V8a.75.75 0 0 1 1.5 0v3.338l3.71-3.858a.75.75 0 0 1 1.06-.02M5.5 7.25a.75.75 0 0 1 .75.75v2c0 .69.56 1.25 1.25 1.25h2.25V8a.75.75 0 0 1 1.5 0v8a.75.75 0 0 1-1.5 0v-3.25H7.5A2.75 2.75 0 0 1 4.75 10V8a.75.75 0 0 1 .75-.75" />
  </symbol>

  <symbol xmlns="http://www.w3.org/2000/svg" id="i-cartfill" viewBox="0 0 634.792 634.791"
  >
    <path data-name="Path 20820" fill="currentColor"
      d="M521.987 212.629a120.6 120.6 0 00-33.058-65.856 122.978 122.978 0 00-66.918-33.86c-.794-.264-38.881-6.877-102.889-7.141h-3.174c-64.273.264-102.36 6.877-103.947 7.406a120.724 120.724 0 00-65.6 33.062 122.865 122.865 0 00-33.855 67.182c0 .793-6.612 38.881-6.612 102.889v2.116c0 64.008 6.612 102.1 6.877 103.683a120.6 120.6 0 0033.066 65.863c18.25 18.25 41.261 29.624 66.918 33.856.793.265 38.881 6.877 102.889 7.141h3.174c64.273-.264 102.36-6.877 103.947-7.141 24.863-4.232 47.874-15.605 65.6-33.327a122.865 122.865 0 0033.856-67.182c0-.793 6.612-38.881 6.612-102.889v-2.116c-.005-64.012-6.618-102.099-6.886-103.686zM317.535 332.973c-79.878 0-104.741-61.1-106.857-93.632a26.53 26.53 0 0124.6-28.037 27.084 27.084 0 0128.3 24.334c.794 10.58 7.406 44.435 53.957 44.435 46.022 0 52.37-33.856 53.164-44.171a26.319 26.319 0 0128.037-24.329 26.051 26.051 0 0124.6 27.508c-1.589 32.53-26.188 93.892-105.801 93.892z" />
  </symbol>
</svg>