<!-- All Svg -->
<svg xmlns="http://www.w3.org/2000/svg" xmlns:xlink="http://www.w3.org/1999/xlink" version="1.1">
  <symbol
    id="i-cart-fill-new"
    xmlns="http://www.w3.org/2000/svg"
    viewBox="0 0 23 24"
  >
    <g data-name="Group 14446">
      <g data-name="Group 9958">
        <path
          fill="currentColor"
          data-name="Subtraction 1"
          d="M11.435 2.498h.145a29.062 29.062 0 014.615.315 5.5 5.5 0 013.017 1.523A5.414 5.414 0 0120.7 7.291a29.638 29.638 0 01.3 4.659v.093a28.732 28.732 0 01-.3 4.623 5.513 5.513 0 01-1.51 3.013 5.346 5.346 0 01-2.951 1.494 28.054 28.054 0 01-4.667.325h-.143a28.811 28.811 0 01-4.618-.315A5.476 5.476 0 013.8 19.659a5.45 5.45 0 01-1.488-2.961A29.182 29.182 0 012 12.043v-.093a28.7 28.7 0 01.306-4.616A5.356 5.356 0 016.768 2.82a.217.217 0 00.043-.007h.013a31.542 31.542 0 014.611-.315zm.1 8.244a2.119 2.119 0 01-2.4-1.978 1.188 1.188 0 00-1.195-1.1h-.067a1.193 1.193 0 00-1.108 1.247 4.485 4.485 0 004.77 4.213 4.529 4.529 0 004.793-4.2 1.2 1.2 0 00-.3-.867 1.184 1.184 0 00-.815-.4h-.067a1.193 1.193 0 00-1.195 1.095 2.151 2.151 0 01-2.416 1.994z"
          stroke="rgba(0,0,0,0)"
          stroke-miterlimit="10"
        />
      </g>
    </g>
  </symbol>
  <symbol
    id="i-profilefill"
    xmlns="http://www.w3.org/2000/svg"
    viewBox="0 0 634.791 634.791"
  >
    <path
      data-name="Path 20807"
      fill="currentColor"
      d="M500.033 433.938a238 238 0 01-2.645 37.294c-1.323 8.993-2.645 14.812-2.909 16.134-4.5 17.721-15.341 33.327-30.153 44.7-14.812 11.638-33.591 19.044-54.486 20.631h-1.058c-6.083.529-38.881 2.645-91.516 2.645s-85.432-2.116-90.987-2.645h-1.586c-41.526-3.438-75.381-29.624-84.374-64.8a151.5 151.5 0 01-3.175-16.929 270.752 270.752 0 01-2.378-37.294 275.2 275.2 0 012.38-37.03 131.727 131.727 0 013.174-16.4c8.991-35.441 42.846-61.626 83.315-65.065a8.159 8.159 0 002.38-.265c5.819-.265 38.616-2.645 91.251-2.645s85.432 2.38 91.251 2.645a11.456 11.456 0 001.323.265c41.526 3.438 75.381 29.624 84.374 64.537.529 2.116 1.851 7.935 3.174 16.928a238 238 0 012.645 37.294z"
    />
    <path
      data-name="Path 20808"
      fill="currentColor"
      d="M406.666 169.178c0 49.461-40.2 89.929-89.664 89.929a89.929 89.929 0 010-179.857c49.461-.001 89.664 40.467 89.664 89.928z"
    />
  </symbol>
  <symbol id="i-homefill" xmlns="http://www.w3.org/2000/svg" viewBox="0 0 634.791 634.791">
    <path data-name="Path 20805" fill="currentColor"
      d="M513.524 371.378v1.851c0 53.164-5.819 84.639-6.348 87.284a108.639 108.639 0 01-33.327 61.363c-16.663 15.341-38.087 25.127-61.1 28.566-.793.264-17.192 2.909-45.758 4.761v-117.7a39.621 39.621 0 00-39.674-39.674h-26.45a39.621 39.621 0 00-39.674 39.674v117.171c-23.8-1.851-37.294-3.967-37.558-3.967-23.8-3.7-45.229-13.489-62.421-29.359a107.955 107.955 0 01-32.533-60.041c-.529-3.438-6.348-34.914-6.348-88.077v-1.851c0-53.164 5.819-84.9 6.083-87.284 4.232-23.276 13.754-43.113 28.3-58.983l3.967-4.5c72.741-83.048 116.641-115.319 157.112-115.319 71.414 0 162.136 116.643 169.542 129.339 9.257 15.605 16.134 28.3 19.573 48.4.793 3.443 6.614 35.182 6.614 88.346z" />
  </symbol>
  <symbol id="i-categoryfill" xmlns="http://www.w3.org/2000/svg" viewBox="0 0 634.792 634.792">
    <path data-name="Path 20833"
      fill="currentColor"
      d="M529.657 436.472c0 18.779-1.851 30.682-2.116 32a69.728 69.728 0 01-19.837 38.881 67.578 67.578 0 01-37.294 19.044c-2.116.529-14.283 2.381-34.12 2.645-18.779-.265-30.682-2.116-32-2.381a70.035 70.035 0 01-57.925-57.4 234.3 234.3 0 01-2.116-33.327c0-18.779 1.851-30.682 2.116-32a71.056 71.056 0 0119.569-38.876 69.191 69.191 0 0137.558-19.044c2.116-.529 14.018-2.38 33.062-2.645h.794c18.779.264 30.946 2.116 32.269 2.38a69.858 69.858 0 0138.616 19.838 67.579 67.579 0 0119.044 37.294c.529 2.38 2.38 14.283 2.38 33.591z" />
    <path data-name="Path 20834"
      fill="currentColor"
      d="M291.081 436.472c0 18.779-2.116 30.682-2.38 32a71.056 71.056 0 01-19.573 38.881 67.578 67.578 0 01-37.294 19.044c-2.38.529-14.283 2.381-34.12 2.645-18.779-.265-30.682-2.116-32-2.381a69.728 69.728 0 01-38.881-19.837 71.009 71.009 0 01-19.049-37.555 213.371 213.371 0 01-2.38-33.327c0-18.779 2.116-30.682 2.38-32a71.056 71.056 0 0119.573-38.884 67.579 67.579 0 0137.294-19.044c2.38-.529 14.283-2.38 33.327-2.645h.793c18.779.264 30.682 2.116 32 2.38a69.728 69.728 0 0138.885 19.838 71.195 71.195 0 0119.044 37.294 222.672 222.672 0 012.381 33.591z" />
    <path data-name="Path 20835"
      fill="currentColor"
      d="M297.962 203.715a68.451 68.451 0 01-12.7 39.145c-1.851 2.645-8.2 11.373-20.631 23.8-12.167 12.167-21.16 18.779-22.747 19.837a69.192 69.192 0 01-40.468 13.225 65.947 65.947 0 01-39.145-12.7c-2.645-1.587-11.373-7.935-24.334-20.9-12.167-12.167-18.515-20.9-19.837-22.747a68.352 68.352 0 01-12.96-40.468 69.758 69.758 0 0112.7-39.145c1.587-2.38 8.2-11.373 20.631-23.8 12.162-12.158 20.891-18.506 22.742-19.828a70.1 70.1 0 0139.939-13.225h.529a69.759 69.759 0 0139.145 12.7c2.38 1.587 11.373 8.2 24.334 20.9 11.9 12.167 18.515 21.16 19.573 22.747a71.1 71.1 0 0113.229 40.459z" />
    <path data-name="Path 20836"
      fill="currentColor"
      d="M529.657 198.689a92.706 92.706 0 01-185.412 0c0-51.048 41.526-92.84 92.574-92.84a92.958 92.958 0 0192.838 92.84z" />
  </symbol>
  <symbol id="i-discountfill" xmlns="http://www.w3.org/2000/svg" viewBox="0 0 24 24">
    <g data-name="Group 14035">
      <g data-name="Group 9977">
        <path data-name="Path 20875" fill="currentColor"
          d="M12.058 5.997a22.66 22.66 0 013.574.242 2.5 2.5 0 012.138 2.144 22.761 22.761 0 01.23 3.575v.078a22.761 22.761 0 01-.23 3.575 2.5 2.5 0 01-2.138 2.145 22.756 22.756 0 01-3.574.241h-.115a22.756 22.756 0 01-3.574-.241 2.5 2.5 0 01-2.138-2.145A22.664 22.664 0 016 12.036v-.078a22.664 22.664 0 01.231-3.575A2.5 2.5 0 018.37 6.242a22.66 22.66 0 013.574-.245h.114m0-2h-.118a24.734 24.734 0 00-3.928.273 4.493 4.493 0 00-3.754 3.799 24.752 24.752 0 00-.256 3.891v.078a24.746 24.746 0 00.256 3.923 4.492 4.492 0 003.786 3.77 24.677 24.677 0 003.894.266h.12a24.734 24.734 0 003.928-.273 4.573 4.573 0 002.486-1.259 4.621 4.621 0 001.273-2.538A24.845 24.845 0 0020 12.036v-.078a24.834 24.834 0 00-.26-3.923 4.492 4.492 0 00-3.782-3.768 24.638 24.638 0 00-3.893-.27z" />
      </g>
      <g data-name="Group 14037">
        <g data-name="Group 9976">
          <circle data-name="Ellipse 607" cx=".985" cy=".985" r=".985"
            transform="translate(13.166 13.216)" fill="currentColor" />
        </g>
        <g data-name="Group 14036">
          <circle data-name="Ellipse 607" cx=".985" cy=".985" r=".985"
            transform="translate(8.818 8.816)" fill="currentColor" />
        </g>
        <g data-name="Group 9978">
          <path data-name="Path 20876" fill="currentColor"
            d="M9.508 14.493a.978.978 0 010-1.383l3.602-3.602a.978.978 0 011.384 1.383l-3.602 3.602a.978.978 0 01-1.384 0z" />
        </g>
      </g>
    </g>
  </symbol>
  <symbol id="i-mag-g-fill" xmlns="http://www.w3.org/2000/svg"
    viewBox="0 0 24 24">
    <g data-name="Group 9923">
      <path data-name="Path 20837" fill="currentColor"
        d="M20.175 10.686l-.029-.106-.01-.077-.029-.068a37.97 37.97 0 00-.936-2.566c-.53-1.331-1.09-2.46-1.109-2.508l-.029-.058-.039-.068-.058-.1a4.416 4.416 0 00-1.775-1.833 3.7 3.7 0 00-1.794-.473 5.49 5.49 0 00-2.035.473 39.792 39.792 0 00-4.667 2.581l-.28.174c-1.543.936-1.707 1.032-2.373 1.5a4.713 4.713 0 00-1.717 2.039 4.441 4.441 0 00-.2 2.479 10.174 10.174 0 00.666 2.016 9.65 9.65 0 00.923 1.922 4.435 4.435 0 001.862 1.64A4.21 4.21 0 008.292 18c.106 0 .2 0 .309-.01a2.872 2.872 0 105.623-1.157 24.141 24.141 0 003.193-.936 4.156 4.156 0 002.759-2.652 4.389 4.389 0 00-.001-2.559zm-7.8 6.79a.947.947 0 01-1.871.2c.338-.068.781-.174 1.456-.318l.309-.068c.029-.01.048-.01.077-.019a.734.734 0 01.026.205zm5.961-4.823c-.231.752-.694 1.071-1.64 1.456a43.051 43.051 0 01-5.17 1.37c-1.765.405-1.89.424-2.614.54a4.214 4.214 0 01-.617.048 2.309 2.309 0 01-.936-.174 2.586 2.586 0 01-1.08-.965 9.66 9.66 0 01-.733-1.563 8.985 8.985 0 01-.55-1.63 2.428 2.428 0 01.106-1.437 2.807 2.807 0 011.029-1.165c.6-.424.7-.492 2.257-1.427a42.258 42.258 0 014.668-2.6 3.415 3.415 0 011.312-.338 1.829 1.829 0 01.878.241 2.738 2.738 0 011.09 1.215s.53 1.09 1.051 2.373c.511 1.264.887 2.431.887 2.431a2.7 2.7 0 01.058 1.626z" />
    </g>
  </symbol>
  <symbol id="i-shop-logo" xmlns="http://www.w3.org/2000/svg" viewBox="0 0 48 48">
    <g data-name="vuesax/linear/shop">
      <path data-name="Union 25" fill="currentColor"
        d="M27.502 39.879h-7.311c-3.729 0-6.281-.82-8.037-2.582S9.59 32.98 9.59 29.234v-6.336-.094a6.494 6.494 0 01-.936-4.129l.385-3.878v-.063c.645-4.636 2.846-6.609 7.352-6.609H31.5c4.506 0 6.707 1.973 7.34 6.609 0 .02.012.043.012.063l.393 3.879a6.523 6.523 0 01-.881 4.043 1.781 1.781 0 01.01.18v6.336c0 3.746-.822 6.3-2.576 8.063s-4.309 2.582-8.037 2.582zm-1.781-3.554v-1.751a2.165 2.165 0 00-.352-1.387 2.088 2.088 0 00-1.393-.363 2.051 2.051 0 00-1.381.363 2.165 2.165 0 00-.352 1.387v1.751zm-12.59-7.091c0 2.7.5 4.516 1.525 5.551a6.309 6.309 0 004.049 1.484v-1.7c0-3.316 1.973-5.3 5.275-5.3s5.285 1.98 5.285 5.3v1.691a6.24 6.24 0 004.029-1.48c1.027-1.035 1.537-2.848 1.537-5.551V25.48a6.667 6.667 0 01-1.984.3 6.39 6.39 0 01-4.287-1.691c-.062-.059-.125-.113-.186-.172a5.93 5.93 0 01-4.395 1.863 5.911 5.911 0 01-4.424-1.906c-.07.07-.143.141-.217.207a6.381 6.381 0 01-4.289 1.7 6.633 6.633 0 01-1.92-.277zm19.717-7.009a2.881 2.881 0 002.173-.92 2.933 2.933 0 00.705-2.273l-.395-3.844a4.629 4.629 0 00-1.049-2.82c-.322-.3-.955-.7-2.781-.7h-2.273l.732 7.477a6.194 6.194 0 01.029.656 3.019 3.019 0 002.859 2.424zm-11.317-2.733a2.512 2.512 0 00.6 1.949A2.466 2.466 0 0026.444 20a.136.136 0 010-.031l-.826-8.3h-3.3zm-7.933-7.125a4.767 4.767 0 00-1.049 2.82l-.373 3.844a2.925 2.925 0 00.705 2.274 2.877 2.877 0 002.17.918 2.986 2.986 0 002.877-2.605l.793-7.946h-2.33c-1.829 0-2.47.394-2.793.695z" />
    </g>
  </symbol>
</svg>