<!-- All Svg -->
<svg xmlns="http://www.w3.org/2000/svg" version="1.1">
  <symbol
    id="i-cart-fill-new"
    xmlns="http://www.w3.org/2000/svg"
    viewBox="0 0 23 24"
  >
    <g data-name="Group 14446">
      <g data-name="Group 9958">
        <path
          fill="currentColor"
          data-name="Subtraction 1"
          d="M11.435 2.498h.145a29.062 29.062 0 014.615.315 5.5 5.5 0 013.017 1.523A5.414 5.414 0 0120.7 7.291a29.638 29.638 0 01.3 4.659v.093a28.732 28.732 0 01-.3 4.623 5.513 5.513 0 01-1.51 3.013 5.346 5.346 0 01-2.951 1.494 28.054 28.054 0 01-4.667.325h-.143a28.811 28.811 0 01-4.618-.315A5.476 5.476 0 013.8 19.659a5.45 5.45 0 01-1.488-2.961A29.182 29.182 0 012 12.043v-.093a28.7 28.7 0 01.306-4.616A5.356 5.356 0 016.768 2.82a.217.217 0 00.043-.007h.013a31.542 31.542 0 014.611-.315zm.1 8.244a2.119 2.119 0 01-2.4-1.978 1.188 1.188 0 00-1.195-1.1h-.067a1.193 1.193 0 00-1.108 1.247 4.485 4.485 0 004.77 4.213 4.529 4.529 0 004.793-4.2 1.2 1.2 0 00-.3-.867 1.184 1.184 0 00-.815-.4h-.067a1.193 1.193 0 00-1.195 1.095 2.151 2.151 0 01-2.416 1.994z"
          stroke="rgba(0,0,0,0)"
          stroke-miterlimit="10"
        />
      </g>
    </g>
  </symbol>
  <symbol
    id="i-profilefill"
    xmlns="http://www.w3.org/2000/svg"
    viewBox="0 0 634.791 634.791"
  >
    <path
      data-name="Path 20807"
      fill="currentColor"
      d="M500.033 433.938a238 238 0 01-2.645 37.294c-1.323 8.993-2.645 14.812-2.909 16.134-4.5 17.721-15.341 33.327-30.153 44.7-14.812 11.638-33.591 19.044-54.486 20.631h-1.058c-6.083.529-38.881 2.645-91.516 2.645s-85.432-2.116-90.987-2.645h-1.586c-41.526-3.438-75.381-29.624-84.374-64.8a151.5 151.5 0 01-3.175-16.929 270.752 270.752 0 01-2.378-37.294 275.2 275.2 0 012.38-37.03 131.727 131.727 0 013.174-16.4c8.991-35.441 42.846-61.626 83.315-65.065a8.159 8.159 0 002.38-.265c5.819-.265 38.616-2.645 91.251-2.645s85.432 2.38 91.251 2.645a11.456 11.456 0 001.323.265c41.526 3.438 75.381 29.624 84.374 64.537.529 2.116 1.851 7.935 3.174 16.928a238 238 0 012.645 37.294z"
    />
    <path
      data-name="Path 20808"
      fill="currentColor"
      d="M406.666 169.178c0 49.461-40.2 89.929-89.664 89.929a89.929 89.929 0 010-179.857c49.461-.001 89.664 40.467 89.664 89.928z"
    />
  </symbol>
  <symbol id="i-homefill" xmlns="http://www.w3.org/2000/svg" viewBox="0 0 634.791 634.791">
    <path data-name="Path 20805" fill="currentColor"
      d="M513.524 371.378v1.851c0 53.164-5.819 84.639-6.348 87.284a108.639 108.639 0 01-33.327 61.363c-16.663 15.341-38.087 25.127-61.1 28.566-.793.264-17.192 2.909-45.758 4.761v-117.7a39.621 39.621 0 00-39.674-39.674h-26.45a39.621 39.621 0 00-39.674 39.674v117.171c-23.8-1.851-37.294-3.967-37.558-3.967-23.8-3.7-45.229-13.489-62.421-29.359a107.955 107.955 0 01-32.533-60.041c-.529-3.438-6.348-34.914-6.348-88.077v-1.851c0-53.164 5.819-84.9 6.083-87.284 4.232-23.276 13.754-43.113 28.3-58.983l3.967-4.5c72.741-83.048 116.641-115.319 157.112-115.319 71.414 0 162.136 116.643 169.542 129.339 9.257 15.605 16.134 28.3 19.573 48.4.793 3.443 6.614 35.182 6.614 88.346z" />
  </symbol>
  <symbol id="i-categoryfill" xmlns="http://www.w3.org/2000/svg" viewBox="0 0 634.792 634.792">
    <path data-name="Path 20833"
      fill="currentColor"
      d="M529.657 436.472c0 18.779-1.851 30.682-2.116 32a69.728 69.728 0 01-19.837 38.881 67.578 67.578 0 01-37.294 19.044c-2.116.529-14.283 2.381-34.12 2.645-18.779-.265-30.682-2.116-32-2.381a70.035 70.035 0 01-57.925-57.4 234.3 234.3 0 01-2.116-33.327c0-18.779 1.851-30.682 2.116-32a71.056 71.056 0 0119.569-38.876 69.191 69.191 0 0137.558-19.044c2.116-.529 14.018-2.38 33.062-2.645h.794c18.779.264 30.946 2.116 32.269 2.38a69.858 69.858 0 0138.616 19.838 67.579 67.579 0 0119.044 37.294c.529 2.38 2.38 14.283 2.38 33.591z" />
    <path data-name="Path 20834"
      fill="currentColor"
      d="M291.081 436.472c0 18.779-2.116 30.682-2.38 32a71.056 71.056 0 01-19.573 38.881 67.578 67.578 0 01-37.294 19.044c-2.38.529-14.283 2.381-34.12 2.645-18.779-.265-30.682-2.116-32-2.381a69.728 69.728 0 01-38.881-19.837 71.009 71.009 0 01-19.049-37.555 213.371 213.371 0 01-2.38-33.327c0-18.779 2.116-30.682 2.38-32a71.056 71.056 0 0119.573-38.884 67.579 67.579 0 0137.294-19.044c2.38-.529 14.283-2.38 33.327-2.645h.793c18.779.264 30.682 2.116 32 2.38a69.728 69.728 0 0138.885 19.838 71.195 71.195 0 0119.044 37.294 222.672 222.672 0 012.381 33.591z" />
    <path data-name="Path 20835"
      fill="currentColor"
      d="M297.962 203.715a68.451 68.451 0 01-12.7 39.145c-1.851 2.645-8.2 11.373-20.631 23.8-12.167 12.167-21.16 18.779-22.747 19.837a69.192 69.192 0 01-40.468 13.225 65.947 65.947 0 01-39.145-12.7c-2.645-1.587-11.373-7.935-24.334-20.9-12.167-12.167-18.515-20.9-19.837-22.747a68.352 68.352 0 01-12.96-40.468 69.758 69.758 0 0112.7-39.145c1.587-2.38 8.2-11.373 20.631-23.8 12.162-12.158 20.891-18.506 22.742-19.828a70.1 70.1 0 0139.939-13.225h.529a69.759 69.759 0 0139.145 12.7c2.38 1.587 11.373 8.2 24.334 20.9 11.9 12.167 18.515 21.16 19.573 22.747a71.1 71.1 0 0113.229 40.459z" />
    <path data-name="Path 20836"
      fill="currentColor"
      d="M529.657 198.689a92.706 92.706 0 01-185.412 0c0-51.048 41.526-92.84 92.574-92.84a92.958 92.958 0 0192.838 92.84z" />
  </symbol>
  <symbol id="i-discountfill" xmlns="http://www.w3.org/2000/svg" viewBox="0 0 24 24">
    <g data-name="Group 14035">
      <g data-name="Group 9977">
        <path data-name="Path 20875" fill="currentColor"
          d="M12.058 5.997a22.66 22.66 0 013.574.242 2.5 2.5 0 012.138 2.144 22.761 22.761 0 01.23 3.575v.078a22.761 22.761 0 01-.23 3.575 2.5 2.5 0 01-2.138 2.145 22.756 22.756 0 01-3.574.241h-.115a22.756 22.756 0 01-3.574-.241 2.5 2.5 0 01-2.138-2.145A22.664 22.664 0 016 12.036v-.078a22.664 22.664 0 01.231-3.575A2.5 2.5 0 018.37 6.242a22.66 22.66 0 013.574-.245h.114m0-2h-.118a24.734 24.734 0 00-3.928.273 4.493 4.493 0 00-3.754 3.799 24.752 24.752 0 00-.256 3.891v.078a24.746 24.746 0 00.256 3.923 4.492 4.492 0 003.786 3.77 24.677 24.677 0 003.894.266h.12a24.734 24.734 0 003.928-.273 4.573 4.573 0 002.486-1.259 4.621 4.621 0 001.273-2.538A24.845 24.845 0 0020 12.036v-.078a24.834 24.834 0 00-.26-3.923 4.492 4.492 0 00-3.782-3.768 24.638 24.638 0 00-3.893-.27z" />
      </g>
      <g data-name="Group 14037">
        <g data-name="Group 9976">
          <circle data-name="Ellipse 607" cx=".985" cy=".985" r=".985"
            transform="translate(13.166 13.216)" fill="currentColor" />
        </g>
        <g data-name="Group 14036">
          <circle data-name="Ellipse 607" cx=".985" cy=".985" r=".985"
            transform="translate(8.818 8.816)" fill="currentColor" />
        </g>
        <g data-name="Group 9978">
          <path data-name="Path 20876" fill="currentColor"
            d="M9.508 14.493a.978.978 0 010-1.383l3.602-3.602a.978.978 0 011.384 1.383l-3.602 3.602a.978.978 0 01-1.384 0z" />
        </g>
      </g>
    </g>
  </symbol>
  <symbol id="i-mag-g-fill" xmlns="http://www.w3.org/2000/svg"
    viewBox="0 0 24 24">
    <g data-name="Group 9923">
      <path data-name="Path 20837" fill="currentColor"
        d="M20.175 10.686l-.029-.106-.01-.077-.029-.068a37.97 37.97 0 00-.936-2.566c-.53-1.331-1.09-2.46-1.109-2.508l-.029-.058-.039-.068-.058-.1a4.416 4.416 0 00-1.775-1.833 3.7 3.7 0 00-1.794-.473 5.49 5.49 0 00-2.035.473 39.792 39.792 0 00-4.667 2.581l-.28.174c-1.543.936-1.707 1.032-2.373 1.5a4.713 4.713 0 00-1.717 2.039 4.441 4.441 0 00-.2 2.479 10.174 10.174 0 00.666 2.016 9.65 9.65 0 00.923 1.922 4.435 4.435 0 001.862 1.64A4.21 4.21 0 008.292 18c.106 0 .2 0 .309-.01a2.872 2.872 0 105.623-1.157 24.141 24.141 0 003.193-.936 4.156 4.156 0 002.759-2.652 4.389 4.389 0 00-.001-2.559zm-7.8 6.79a.947.947 0 01-1.871.2c.338-.068.781-.174 1.456-.318l.309-.068c.029-.01.048-.01.077-.019a.734.734 0 01.026.205zm5.961-4.823c-.231.752-.694 1.071-1.64 1.456a43.051 43.051 0 01-5.17 1.37c-1.765.405-1.89.424-2.614.54a4.214 4.214 0 01-.617.048 2.309 2.309 0 01-.936-.174 2.586 2.586 0 01-1.08-.965 9.66 9.66 0 01-.733-1.563 8.985 8.985 0 01-.55-1.63 2.428 2.428 0 01.106-1.437 2.807 2.807 0 011.029-1.165c.6-.424.7-.492 2.257-1.427a42.258 42.258 0 014.668-2.6 3.415 3.415 0 011.312-.338 1.829 1.829 0 01.878.241 2.738 2.738 0 011.09 1.215s.53 1.09 1.051 2.373c.511 1.264.887 2.431.887 2.431a2.7 2.7 0 01.058 1.626z" />
    </g>
  </symbol>
  <symbol id="i-shop-logo" xmlns="http://www.w3.org/2000/svg" viewBox="0 0 48 48">
    <g data-name="vuesax/linear/shop">
      <path data-name="Union 25" fill="currentColor"
        d="M27.502 39.879h-7.311c-3.729 0-6.281-.82-8.037-2.582S9.59 32.98 9.59 29.234v-6.336-.094a6.494 6.494 0 01-.936-4.129l.385-3.878v-.063c.645-4.636 2.846-6.609 7.352-6.609H31.5c4.506 0 6.707 1.973 7.34 6.609 0 .02.012.043.012.063l.393 3.879a6.523 6.523 0 01-.881 4.043 1.781 1.781 0 01.01.18v6.336c0 3.746-.822 6.3-2.576 8.063s-4.309 2.582-8.037 2.582zm-1.781-3.554v-1.751a2.165 2.165 0 00-.352-1.387 2.088 2.088 0 00-1.393-.363 2.051 2.051 0 00-1.381.363 2.165 2.165 0 00-.352 1.387v1.751zm-12.59-7.091c0 2.7.5 4.516 1.525 5.551a6.309 6.309 0 004.049 1.484v-1.7c0-3.316 1.973-5.3 5.275-5.3s5.285 1.98 5.285 5.3v1.691a6.24 6.24 0 004.029-1.48c1.027-1.035 1.537-2.848 1.537-5.551V25.48a6.667 6.667 0 01-1.984.3 6.39 6.39 0 01-4.287-1.691c-.062-.059-.125-.113-.186-.172a5.93 5.93 0 01-4.395 1.863 5.911 5.911 0 01-4.424-1.906c-.07.07-.143.141-.217.207a6.381 6.381 0 01-4.289 1.7 6.633 6.633 0 01-1.92-.277zm19.717-7.009a2.881 2.881 0 002.173-.92 2.933 2.933 0 00.705-2.273l-.395-3.844a4.629 4.629 0 00-1.049-2.82c-.322-.3-.955-.7-2.781-.7h-2.273l.732 7.477a6.194 6.194 0 01.029.656 3.019 3.019 0 002.859 2.424zm-11.317-2.733a2.512 2.512 0 00.6 1.949A2.466 2.466 0 0026.444 20a.136.136 0 010-.031l-.826-8.3h-3.3zm-7.933-7.125a4.767 4.767 0 00-1.049 2.82l-.373 3.844a2.925 2.925 0 00.705 2.274 2.877 2.877 0 002.17.918 2.986 2.986 0 002.877-2.605l.793-7.946h-2.33c-1.829 0-2.47.394-2.793.695z" />
    </g>
  </symbol>
  <symbol id="i-promotion-percent" xmlns="http://www.w3.org/2000/svg" viewBox="0 0 28 28">
    <g data-name="Group 14097">
      <g data-name="Group 9977">
        <path data-name="Path 20875" fill="currentColor"
          d="M14.085 5.251a33.045 33.045 0 015.212.353 3.64 3.64 0 013.117 3.128 33.193 33.193 0 01.335 5.213v.114a33.193 33.193 0 01-.335 5.213 3.643 3.643 0 01-3.117 3.127 33.185 33.185 0 01-5.212.352h-.168a33.185 33.185 0 01-5.212-.352 3.643 3.643 0 01-3.114-3.128 33.052 33.052 0 01-.337-5.213v-.114a33.052 33.052 0 01.337-5.212 3.64 3.64 0 013.117-3.126 33.045 33.045 0 015.212-.353h.168m.003-2.921h-.172a36.07 36.07 0 00-5.728.4 6.664 6.664 0 00-3.627 1.837 6.729 6.729 0 00-1.857 3.7 36.1 36.1 0 00-.373 5.674v.114a36.089 36.089 0 00.381 5.721 6.551 6.551 0 005.521 5.5 35.988 35.988 0 005.673.391h.177a36.071 36.071 0 005.728-.4 6.669 6.669 0 003.624-1.837 6.739 6.739 0 001.853-3.7 36.232 36.232 0 00.372-5.674v-.114a36.216 36.216 0 00-.372-5.721 6.551 6.551 0 00-5.523-5.5 35.93 35.93 0 00-5.677-.391z" />
      </g>
      <g data-name="Group 14037">
        <g data-name="Group 9976">
          <circle data-name="Ellipse 607" cx="1.436" cy="1.436" r="1.436"
            transform="translate(15.698 15.775)" fill="currentColor" />
        </g>
        <g data-name="Group 14036">
          <circle data-name="Ellipse 607" cx="1.436" cy="1.436" r="1.436"
            transform="translate(9.358 9.359)" fill="currentColor" />
        </g>
        <g data-name="Group 9978">
          <path data-name="Path 20876" fill="currentColor"
            d="M10.366 17.639a1.427 1.427 0 010-2.019l5.252-5.252a1.427 1.427 0 012.018 2.018l-5.252 5.253a1.426 1.426 0 01-2.018 0z" />
        </g>
      </g>
    </g>
  </symbol>
  <symbol id="i-not-fullscreen" xmlns="http://www.w3.org/2000/svg"
    viewBox="0 0 24 24">
    <g fill="none" stroke="currentColor" stroke-width="1.5">
      <path stroke-linecap="round"
        d="M6 9.997c.014-1.706.11-2.647.73-3.267S8.29 6.014 9.997 6M6 14c.014 1.707.11 2.648.73 3.268s1.56.716 3.267.73m8.001-8.001c-.015-1.706-.11-2.647-.73-3.267S15.707 6.014 14 6m3.998 8c-.015 1.707-.11 2.648-.73 3.268s-1.561.716-3.268.73" />
      <path
        d="M2 12c0-4.714 0-7.071 1.464-8.536C4.93 2 7.286 2 12 2s7.071 0 8.535 1.464C22 4.93 22 7.286 22 12s0 7.071-1.465 8.535C19.072 22 16.714 22 12 22s-7.071 0-8.536-1.465C2 19.072 2 16.714 2 12Z"
        opacity="0.3" />
    </g>
  </symbol>
  <symbol id="i-fullscreen" xmlns="http://www.w3.org/2000/svg"
    viewBox="0 0 24 24">
    <g fill="none" stroke="currentColor" stroke-width="1.5">
      <path stroke-linecap="round"
        d="M9.998 6c-.015 1.707-.11 2.648-.73 3.268s-1.561.716-3.268.73m3.998 7.999c-.015-1.706-.11-2.647-.73-3.267S7.707 14.014 6 14m8-8c.014 1.707.11 2.648.73 3.268s1.56.716 3.267.73M14 17.997c.014-1.706.11-2.647.73-3.267s1.56-.716 3.267-.73" />
      <path
        d="M2 12c0-4.714 0-7.071 1.464-8.536C4.93 2 7.286 2 12 2s7.071 0 8.535 1.464C22 4.93 22 7.286 22 12s0 7.071-1.465 8.535C19.072 22 16.714 22 12 22s-7.071 0-8.536-1.465C2 19.072 2 16.714 2 12Z"
        opacity="0.2" />
    </g>
  </symbol>
  <symbol id="i-dashboard" xmlns="http://www.w3.org/2000/svg"
    viewBox="0 0 24 24">
    <path fill="currentColor"
      d="M5.6 2A2.6 2.6 0 0 0 3 4.6v4.8A2.6 2.6 0 0 0 5.6 12h2.8A2.6 2.6 0 0 0 11 9.4V4.6A2.6 2.6 0 0 0 8.4 2zm0 12A2.6 2.6 0 0 0 3 16.6v2.8A2.6 2.6 0 0 0 5.6 22h2.8a2.6 2.6 0 0 0 2.6-2.6v-2.8A2.6 2.6 0 0 0 8.4 14zm10-12A2.6 2.6 0 0 0 13 4.6v2.8a2.6 2.6 0 0 0 2.6 2.6h2.8A2.6 2.6 0 0 0 21 7.4V4.6A2.6 2.6 0 0 0 18.4 2zm0 10a2.6 2.6 0 0 0-2.6 2.6v4.8a2.6 2.6 0 0 0 2.6 2.6h2.8a2.6 2.6 0 0 0 2.6-2.6v-4.8a2.6 2.6 0 0 0-2.6-2.6z" />
  </symbol>
  <symbol id="i-order" xmlns="http://www.w3.org/2000/svg"
    viewBox="0 0 24 24">
    <path fill="currentColor"
      d="M8.422 20.618C10.178 21.54 11.056 22 12 22V12L2.638 7.073l-.04.067C2 8.154 2 9.417 2 11.942v.117c0 2.524 0 3.787.597 4.801c.598 1.015 1.674 1.58 3.825 2.709z" />
    <path fill="currentColor"
      d="m17.577 4.432l-2-1.05C13.822 2.461 12.944 2 12 2c-.945 0-1.822.46-3.578 1.382l-2 1.05C4.318 5.536 3.242 6.1 2.638 7.072L12 12l9.362-4.927c-.606-.973-1.68-1.537-3.785-2.641"
      opacity="0.7" />
    <path fill="currentColor"
      d="m21.403 7.14l-.041-.067L12 12v10c.944 0 1.822-.46 3.578-1.382l2-1.05c2.151-1.129 3.227-1.693 3.825-2.708c.597-1.014.597-2.277.597-4.8v-.117c0-2.525 0-3.788-.597-4.802"
      opacity="0.3" />
    <path fill="currentColor"
      d="m6.323 4.484l.1-.052l1.493-.784l9.1 5.005l4.025-2.011q.205.232.362.498c.15.254.262.524.346.825L17.75 9.964V13a.75.75 0 0 1-1.5 0v-2.286l-3.5 1.75v9.44A3 3 0 0 1 12 22c-.248 0-.493-.032-.75-.096v-9.44l-8.998-4.5c.084-.3.196-.57.346-.824q.156-.266.362-.498l9.04 4.52l3.387-1.693z" />
  </symbol>
  <symbol id="i-menu" xmlns="http://www.w3.org/2000/svg" viewBox="0 0 24 24">
    <path
      fill="currentColor"
      d="M12 22c-4.714 0-7.071 0-8.536-1.465C2 19.072 2 16.714 2 12s0-7.071 1.464-8.536C4.93 2 7.286 2 12 2s7.071 0 8.535 1.464C22 4.93 22 7.286 22 12s0 7.071-1.465 8.535C19.072 22 16.714 22 12 22"
      opacity="0.1"
    />
    <path
      fill="currentColor"
      d="M18.75 8a.75.75 0 0 1-.75.75H6a.75.75 0 0 1 0-1.5h12a.75.75 0 0 1 .75.75m0 4a.75.75 0 0 1-.75.75H6a.75.75 0 0 1 0-1.5h12a.75.75 0 0 1 .75.75m0 4a.75.75 0 0 1-.75.75H6a.75.75 0 0 1 0-1.5h12a.75.75 0 0 1 .75.75"
    />
  </symbol>
  <symbol
    id="i-profile"
    xmlns="http://www.w3.org/2000/svg"
    viewBox="0 0 24 24"
  >
    <path
      fill="currentColor"
      d="M22 12c0 5.523-4.477 10-10 10S2 17.523 2 12S6.477 2 12 2s10 4.477 10 10"
      opacity="0.2"
    />
    <path
      fill="currentColor"
      d="M16.807 19.011A8.46 8.46 0 0 1 12 20.5a8.46 8.46 0 0 1-4.807-1.489c-.604-.415-.862-1.205-.51-1.848C7.41 15.83 8.91 15 12 15s4.59.83 5.318 2.163c.35.643.093 1.433-.511 1.848M12 12a3 3 0 1 0 0-6a3 3 0 0 0 0 6"
    />
  </symbol>
  <symbol xmlns="http://www.w3.org/2000/svg" id="i-mobit-score" viewBox="0 0 24 24" fill="none">
    <path
      d="M21.21 13.24l-6.85 7.54c-1.3 1.43-3.42 1.43-4.72 0l-6.85-7.54c-.77-.85-1.02-2.39-.56-3.44l.8-1.8h17.94l.8 1.8c.46 1.05.21 2.59-.56 3.44z"
      fill="#00A693" />
    <path opacity=".4"
      d="M20.97 8H3.03l1.76-3.96C5.26 3 6 2.15 7.7 2.15h8.6c1.7 0 2.44.85 2.91 1.89L20.97 8z"
      fill="#00A693" />
  </symbol>
  <symbol xmlns="http://www.w3.org/2000/svg" id="i-star" viewBox="0 0 28 28">
    <g data-name="Group 14310">
      <path data-name="Path 2456" d="M0 0h28v28H0z" fill="none" />
      <g data-name="Group 2807">
        <path data-name="Path 2460"
          d="M13.999 20.148l4.842 2.928a1.164 1.164 0 001.738-1.26l-1.283-5.507 4.277-3.714a1.164 1.164 0 00-.665-2.042l-5.635-.473-2.2-5.204a1.167 1.167 0 00-2.147 0l-2.2 5.192-5.635.478a1.164 1.164 0 00-.665 2.042l4.276 3.707-1.283 5.51a1.164 1.164 0 001.738 1.26z"
          fill="#ffa726" />
      </g>
    </g>
  </symbol>
  <symbol xmlns="http://www.w3.org/2000/svg" id="i-percent"
    data-name="Stockholm-icons-/-Shopping-/-Sale#1" viewBox="0 0 19 20">
    <path fill="none" d="M0 0h19v20H0z" />
    <path
      d="M12.677 4.765L4.529 12.9a1.292 1.292 0 000 1.827 1.292 1.292 0 001.826 0l8.136-8.151a1.283 1.283 0 000-1.813 1.283 1.283 0 00-1.814.002z"
      fill="#fff" />
    <path
      d="M7.78 5.749a2.322 2.322 0 11-2.321-2.322A2.321 2.321 0 017.78 5.749zm8.043 8.043a2.322 2.322 0 11-2.321-2.322 2.321 2.321 0 012.321 2.323z"
      fill="#fff" fill-rule="evenodd" />
  </symbol>
  <symbol xmlns="http://www.w3.org/2000/svg" id="i-fast" viewBox="0 0 20 20">
    <g data-name="Group 14112">
      <g data-name="Group 14099">
        <g data-name="Group 9977">
          <path data-name="Path 20875"
            d="M13.35 5.742a16.085 16.085 0 012.537.172 1.772 1.772 0 011.517 1.522 16.157 16.157 0 01.163 2.538v.055a16.157 16.157 0 01-.163 2.538 1.773 1.773 0 01-1.517 1.521 16.154 16.154 0 01-2.537.171h-.082a16.154 16.154 0 01-2.537-.171 1.773 1.773 0 01-1.517-1.522 16.088 16.088 0 01-.164-2.538v-.055a16.088 16.088 0 01.164-2.538 1.772 1.772 0 011.517-1.521 16.085 16.085 0 012.537-.172h.082m0-1.42h-.082a17.557 17.557 0 00-2.788.198 3.189 3.189 0 00-2.668 2.7 17.571 17.571 0 00-.182 2.762v.055a17.566 17.566 0 00.185 2.785 3.189 3.189 0 002.687 2.676 17.517 17.517 0 002.761.19h.086a17.558 17.558 0 002.788-.194 3.246 3.246 0 001.764-.894 3.28 3.28 0 00.9-1.8 17.636 17.636 0 00.186-2.772v-.055a17.629 17.629 0 00-.185-2.785 3.189 3.189 0 00-2.688-2.676 17.489 17.489 0 00-2.76-.192z"
            fill="#fff" />
        </g>
        <g data-name="Group 9978">
          <path data-name="Path 20876"
            d="M13.309 8.602a.783.783 0 01-.695-.848V5.419a.783.783 0 01.695-.848.783.783 0 01.695.848v2.335a.783.783 0 01-.695.848z"
            fill="#fff" />
        </g>
        <g data-name="Group 14101">
          <path data-name="Path 20876"
            d="M2.015 10.002a.682.682 0 01.669-.695h2.662a.682.682 0 01.669.695.682.682 0 01-.669.695H2.684a.682.682 0 01-.669-.695z"
            fill="#fff" />
        </g>
        <g data-name="Group 14103">
          <path data-name="Path 20876"
            d="M1.015 13.057a.694.694 0 01.694-.695h3.612a.695.695 0 010 1.389H1.709a.694.694 0 01-.694-.694z"
            fill="#fff" />
        </g>
        <g data-name="Group 14102">
          <path data-name="Path 20876"
            d="M3.015 6.947a.665.665 0 01.631-.695h1.738a.665.665 0 01.631.695.665.665 0 01-.631.695H3.646a.665.665 0 01-.631-.695z"
            fill="#fff" />
        </g>
      </g>
    </g>
  </symbol>
  <symbol xmlns="http://www.w3.org/2000/svg" id="i-notification" viewBox="0 0 24 24">
    <path data-name="Path 2478" d="M0 0h24v24H0z" fill="none" />
    <path data-name="Path 2488"
      d="M18 16v-5c0-3.07-1.64-5.64-4.5-6.32V4a1.507 1.507 0 00-1.51-1.5A1.49 1.49 0 0010.5 4v.68C7.63 5.36 6 7.92 6 11v5l-1.3 1.29A1 1 0 005.4 19h13.17a1 1 0 00.71-1.71zm-6.01 6a2.006 2.006 0 002-2h-4a2 2 0 002 2zM6.77 4.73A.985.985 0 006.8 3.3a1 1 0 00-1.39-.02 10.424 10.424 0 00-3.27 6.06 1.011 1.011 0 001 1.16 1 1 0 00.98-.83 8.44 8.44 0 012.65-4.94zM18.6 3.28a1.012 1.012 0 00-1.4.02.982.982 0 00.03 1.42 8.5 8.5 0 012.65 4.94.982.982 0 00.98.83 1 1 0 00.99-1.16 10.488 10.488 0 00-3.25-6.05z"
      fill="#377dff" />
  </symbol>
  <symbol xmlns="http://www.w3.org/2000/svg" id="i-share" viewBox="0 0 24 24">
    <path data-name="Path 2483" d="M0 0h24v24H0z" fill="none" />
    <path data-name="Path 2484"
      d="M18 16.08a2.912 2.912 0 00-1.96.77L8.91 12.7A3.274 3.274 0 009 12a3.274 3.274 0 00-.09-.7l7.05-4.11A2.993 2.993 0 1015 5a3.274 3.274 0 00.09.7L8.04 9.81a3 3 0 100 4.38l7.12 4.16a2.821 2.821 0 00-.08.65A2.92 2.92 0 1018 16.08z"
      fill="currentColor" />
  </symbol>
  <symbol xmlns="http://www.w3.org/2000/svg" id="i-price-chart" viewBox="0 0 24 24">
    <path data-name="Path 2485" d="M0 0h24v24H0z" fill="none" />
    <path data-name="Path 2486"
      d="M19 3H5a2.006 2.006 0 00-2 2v14a2.006 2.006 0 002 2h14a2.006 2.006 0 002-2V5a2.006 2.006 0 00-2-2zM8 17a1 1 0 01-1-1v-5a1 1 0 112 0v5a1 1 0 01-1 1zm4 0a1 1 0 01-1-1V8a1 1 0 012 0v8a1 1 0 01-1 1zm4 0a1 1 0 01-1-1v-2a1 1 0 112 0v2a1 1 0 01-1 1z"
      fill="currentColor" />
  </symbol>
  <symbol xmlns="http://www.w3.org/2000/svg" id="i-compare" viewBox="0 0 24 24">
    <path data-name="Path 2481" d="M0 0h24v24H0z" fill="none" />
    <path data-name="Path 2482"
      d="M10 3H5a2.006 2.006 0 00-2 2v14a2.006 2.006 0 002 2h5v1a1 1 0 002 0V2a1 1 0 00-2 0zm0 15H5l5-6zm9-15h-5v2h4a1 1 0 011 1v12l-5-6v9h5a2.006 2.006 0 002-2V5a2.006 2.006 0 00-2-2z"
      fill="currentColor" />
  </symbol>
  <symbol xmlns="http://www.w3.org/2000/svg" id="i-changeprice-deactive" data-name="Layer 2"
    viewBox="0 0 512 512.1">
    <g data-name="Layer 1" fill="currentColor">
      <path
        d="M277.33 43.84V21.42C277.33 9.64 267.78.09 256 .09s-21.33 9.55-21.33 21.33v22.42C105.82 55.39 10.73 169.21 22.28 298.06a234.28 234.28 0 0056.25 132.45c-22.78 11.27-36.82 34.85-35.86 60.25 0 11.78 9.55 21.33 21.33 21.33s21.33-9.55 21.33-21.33c-.37-13.66 10.05-25.2 23.68-26.22 1.47-.28 2.9-.72 4.27-1.32 84.06 65.2 201.6 65.2 285.65 0 1.25.58 2.55 1.03 3.88 1.37 13.68.93 24.19 12.47 23.85 26.18 0 11.78 9.55 21.33 21.33 21.33s21.33-9.55 21.33-21.33c.95-25.39-13.09-48.98-35.86-60.25 84.7-97.78 74.09-245.72-23.69-330.42a234.252 234.252 0 00-132.45-56.25zM64 277.42c0-106.04 85.96-192 192-192s192 85.96 192 192-85.96 192-192 192c-105.99-.13-191.87-86.01-192-192zM409.92.08c-11.78 0-21.33 9.55-21.33 21.33s9.55 21.33 21.33 21.33c30.43-2.31 56.97 20.48 59.28 50.91.06.81.11 1.62.13 2.43 0 11.78 9.55 21.33 21.33 21.33s21.33-9.55 21.33-21.33C510.87 41.9 466.02-1.11 411.84.02c-.64.01-1.28.03-1.92.06zM42.67 96.08c.97-30.5 26.49-54.44 56.99-53.46.81.03 1.62.07 2.43.13 11.78 0 21.33-9.55 21.33-21.33S113.86.08 102.08.08C47.93-2.11 2.25 40.01.06 94.17c-.03.64-.05 1.28-.06 1.92 0 11.78 9.55 21.33 21.33 21.33s21.33-9.55 21.33-21.33z" />
      <path
        d="M281.83 265.98l-47.51-7.92a12.002 12.002 0 01-10.05-11.87c0-8.61 6.99-15.63 15.62-15.63h35.43c5.57 0 10.75 2.99 13.55 7.81 4.3 7.47 13.84 10.03 21.34 5.7 7.46-4.33 10.02-13.88 5.69-21.34-8.36-14.46-23.92-23.43-40.59-23.43h-4.19v-15.63c0-8.62-6.98-15.62-15.62-15.62s-15.62 7-15.62 15.62v15.63c-25.84 0-46.87 21.02-46.87 46.87 0 21.24 15.2 39.21 36.16 42.69l47.51 7.92c5.83.97 10.06 5.97 10.06 11.87 0 8.63-7 15.62-15.63 15.62h-35.43c-5.56 0-10.75-2.98-13.55-7.83-4.29-7.45-13.86-10.04-21.34-5.68-7.45 4.31-10.01 13.86-5.68 21.34 8.36 14.45 23.92 23.42 40.59 23.42h4.19v15.62c0 8.64 6.99 15.63 15.62 15.63s15.63-6.99 15.63-15.63v-15.62c25.84 0 46.87-21.03 46.87-46.87 0-21.24-15.21-39.2-36.17-42.68zm0 0l-47.51-7.92a12.002 12.002 0 01-10.05-11.87c0-8.61 6.99-15.63 15.62-15.63h35.43c5.57 0 10.75 2.99 13.55 7.81 4.3 7.47 13.84 10.03 21.34 5.7 7.46-4.33 10.02-13.88 5.69-21.34-8.36-14.46-23.92-23.43-40.59-23.43h-4.19v-15.63c0-8.62-6.98-15.62-15.62-15.62s-15.62 7-15.62 15.62v15.63c-25.84 0-46.87 21.02-46.87 46.87 0 21.24 15.2 39.21 36.16 42.69l47.51 7.92c5.83.97 10.06 5.97 10.06 11.87 0 8.63-7 15.62-15.63 15.62h-35.43c-5.56 0-10.75-2.98-13.55-7.83-4.29-7.45-13.86-10.04-21.34-5.68-7.45 4.31-10.01 13.86-5.68 21.34 8.36 14.45 23.92 23.42 40.59 23.42h4.19v15.62c0 8.64 6.99 15.63 15.62 15.63s15.63-6.99 15.63-15.63v-15.62c25.84 0 46.87-21.03 46.87-46.87 0-21.24-15.21-39.2-36.17-42.68z" />
    </g>
  </symbol>
  <symbol xmlns="http://www.w3.org/2000/svg" id="i-favorite" viewBox="0 0 24 24">
    <path data-name="Path 2475" d="M0 0h24v24H0z" fill="none" />
    <path data-name="Path 2476" fill="currentColor"
      d="M19.661 3.99a5.8 5.8 0 00-7.66 1.1 5.784 5.784 0 00-7.66-1.1 5.472 5.472 0 00-2.34 4.29c-.14 3.88 3.3 6.99 8.55 11.76l.1.09a2 2 0 002.69-.01l.11-.1c5.25-4.76 8.68-7.87 8.55-11.75a5.468 5.468 0 00-2.34-4.28zm-7.56 14.56l-.1.1-.1-.1c-4.76-4.31-7.9-7.16-7.9-10.05a3.418 3.418 0 013.5-3.5 3.909 3.909 0 013.57 2.36h1.87A3.885 3.885 0 0116.501 5a3.418 3.418 0 013.5 3.5c0 2.89-3.14 5.74-7.9 10.05z" />
  </symbol>
  <symbol
    xmlns="http://www.w3.org/2000/svg"
    viewBox="0 0 24 24"
    id="i-zemanat-product"
  >
    <path
      fill="currentColor"
      d="M3.378 5.082C3 5.62 3 7.22 3 10.417v1.574c0 5.638 4.239 8.375 6.899 9.536c.721.315 1.082.473 2.101.473c1.02 0 1.38-.158 2.101-.473C16.761 20.365 21 17.63 21 11.991v-1.574c0-3.198 0-4.797-.378-5.335c-.377-.537-1.88-1.052-4.887-2.081l-.573-.196C13.595 2.268 12.812 2 12 2s-1.595.268-3.162.805L8.265 3c-3.007 1.03-4.51 1.545-4.887 2.082"
      opacity="0.5"
    />
    <path
      fill="currentColor"
      d="M15.06 10.5a.75.75 0 0 0-1.12-1l-3.011 3.374l-.87-.974a.75.75 0 0 0-1.118 1l1.428 1.6a.75.75 0 0 0 1.119 0z"
    />
  </symbol>
  <symbol
    xmlns="http://www.w3.org/2000/svg"
    width="1.5em"
    height="1.5em"
    id="i-plus"
    viewBox="0 0 24 24"
  >
    <path
      fill="none"
      stroke="currentColor"
      stroke-linecap="round"
      stroke-linejoin="round"
      stroke-width="2"
      d="M12 5v14m-7-7h14"
    />
  </symbol>
  <symbol
    xmlns="http://www.w3.org/2000/svg"
    width="1.2em"
    height="1.5em"
    id="i-minus"
    viewBox="0 0 256 256"
  >
    <path
      fill="currentColor"
      d="M228 128a12 12 0 0 1-12 12H40a12 12 0 0 1 0-24h176a12 12 0 0 1 12 12"
    />
  </symbol>
  <symbol
    xmlns="http://www.w3.org/2000/svg"
    width="1.4em"
    height="1.4em"
    viewBox="0 0 24 24"
    id="i-remove"
  >
    <path
      fill="currentColor"
      d="M19 4h-3.5l-1-1h-5l-1 1H5v2h14M6 19a2 2 0 0 0 2 2h8a2 2 0 0 0 2-2V7H6z"
    />
  </symbol>
  <symbol xmlns="http://www.w3.org/2000/svg" id="i-store-fill" viewBox="0 0 40 40">
    <path data-name="Path 2452" d="M0 0h40v40H0z" fill="none" />
    <path data-name="Path 2453" fill="currentColor"
      d="M33.6 13a1.663 1.663 0 00-1.633-1.333H8.033A1.663 1.663 0 006.4 13L5 20v1.667a1.672 1.672 0 001.667 1.667v8.333a1.672 1.672 0 001.667 1.667h13.333a1.672 1.672 0 001.666-1.667v-8.333H30v8.333a1.667 1.667 0 103.333 0v-8.333A1.672 1.672 0 0035 21.667V20zM20 30H10v-6.666h10zM8.333 10h23.334a1.667 1.667 0 000-3.333H8.333a1.667 1.667 0 100 3.333z" />
  </symbol>
  <symbol xmlns="http://www.w3.org/2000/svg" id="i-cart-list"
    viewBox="0 0 24 24">
    <g data-name="Group 9901">
      <path data-name="Path 20805" fill="currentColor"
        d="M11.899 5.757a23.074 23.074 0 013.624.244 2.535 2.535 0 012.168 2.174 23.079 23.079 0 01.233 3.625v.079a23.079 23.079 0 01-.233 3.625 2.535 2.535 0 01-2.164 2.176 23.074 23.074 0 01-3.624.244h-.116a23.074 23.074 0 01-3.624-.244 2.535 2.535 0 01-2.168-2.174 23.079 23.079 0 01-.233-3.625v-.079a23.079 23.079 0 01.233-3.625 2.535 2.535 0 012.164-2.175 23.074 23.074 0 013.624-.244h.116m0-2.028h-.119a25.079 25.079 0 00-3.983.277 4.63 4.63 0 00-2.52 1.277 4.68 4.68 0 00-1.289 2.572 25.192 25.192 0 00-.261 3.945v.079a24.944 24.944 0 00.265 3.978 4.555 4.555 0 003.839 3.823 25.02 25.02 0 003.944.272h.122a25.078 25.078 0 003.983-.277 4.63 4.63 0 002.52-1.277 4.68 4.68 0 001.294-2.572 25.192 25.192 0 00.259-3.945v-.079a24.944 24.944 0 00-.265-3.976 4.555 4.555 0 00-3.839-3.823 25.021 25.021 0 00-3.944-.277z" />
    </g>
    <g data-name="Group 9902">
      <path data-name="Path 20806" fill="currentColor"
        d="M14.893 9.29H8.761a1.014 1.014 0 010-2.028h6.132a1.014 1.014 0 010 2.028z" />
    </g>
    <g data-name="Group 9903">
      <path data-name="Path 20807" fill="currentColor"
        d="M14.893 12.854H8.761a1.014 1.014 0 010-2.028h6.132a1.014 1.014 0 010 2.028z" />
    </g>
    <g data-name="Group 9904">
      <path data-name="Path 20808" fill="currentColor"
        d="M14.893 16.361H8.761a1.014 1.014 0 110-2.028h6.132a1.014 1.014 0 110 2.028z" />
    </g>
  </symbol>
  <symbol xmlns="http://www.w3.org/2000/svg" id="i-invitetext" viewBox="0 0 223.87 89">
    <g data-name="Group 9599">
      <path data-name="Rectangle 2369" fill="none" d="M17.87 0h206v89h-206z" />
      <g data-name="Line 229">
        <path data-name="Path 20207"
          d="M19.195 39.03a2.485 2.485 0 01-1.171-.293L2.13 30.295a2.5 2.5 0 112.341-4.414l15.9 8.442a2.5 2.5 0 01-1.174 4.707z"
          fill="#fff" />
      </g>
      <g data-name="Line 230">
        <path data-name="Path 20208"
          d="M32.498 30.692a2.5 2.5 0 01-2.389-1.77l-5.263-17.213a2.5 2.5 0 114.781-1.461l5.263 17.218a2.5 2.5 0 01-2.392 3.231z"
          fill="#fff" opacity=".5" />
      </g>
      <g data-name="Line 231">
        <path data-name="Path 20209"
          d="M2.499 60a2.5 2.5 0 01-.73-4.892l17.214-5.263a2.5 2.5 0 011.462 4.782L3.231 59.889a2.482 2.482 0 01-.732.111z"
          fill="#fff" opacity=".5" />
      </g>
      <g data-name="Group 9598" fill="#fff">
        <path data-name="Path 20210"
          d="M52.769 45.769a12.971 12.971 0 011.432 5.187 8.245 8.245 0 01-.829 4.4 8.376 8.376 0 01-1.741 2.242 10.1 10.1 0 01-2.224 1.531 9.71 9.71 0 01-2.443.857 11.126 11.126 0 01-4.741 0 9.406 9.406 0 01-2.424-.857 10.714 10.714 0 01-2.225-1.531 7.606 7.606 0 01-1.722-2.242 6.526 6.526 0 01-.693-2.015 10.794 10.794 0 01-.146-2.388 12.008 12.008 0 01.41-2.6 13.227 13.227 0 01.993-2.589l5.214 2.206a5.433 5.433 0 00-.4 4.43 3.46 3.46 0 001.5 1.686 3.885 3.885 0 003.755 0 3.316 3.316 0 001.441-1.686q.82-1.712-.383-4.43zm-8.113.292a3.19 3.19 0 01-3.244-3.246 3.086 3.086 0 01.938-2.279 3.154 3.154 0 012.306-.929 3.172 3.172 0 013.208 3.208 3.146 3.146 0 01-.929 2.316 3.1 3.1 0 01-2.278.932z" />
        <path data-name="Path 20211"
          d="M62.688 55.287q-5.853 0-5.853-5.233V36.946h5.375v11.139a2.8 2.8 0 00.3 1.186 1.255 1.255 0 001.267.639h.475v5.378z" />
        <path data-name="Path 20212"
          d="M73.955 55.287a6.809 6.809 0 01-3.647-.82 1.056 1.056 0 01-.565-.383 1.483 1.483 0 01-.529.383 7.248 7.248 0 01-3.683.82h-1.275a1.228 1.228 0 01-.592-.164c-.2-.11-.3-.206-.3-.293v-4.5c0-.133.112-.237.337-.31a1.864 1.864 0 01.556-.11h1.276a1.369 1.369 0 001.121-.5 2.02 2.02 0 00.41-1.322v-2.066h5.324v2.06a2.247 2.247 0 00.374 1.25 1.319 1.319 0 001.195.574h1.276v5.378zm-9.061-17.665h9.552v4.592h-9.552z" />
        <path data-name="Path 20213"
          d="M96.545 49.909v5.375H75.231a1.232 1.232 0 01-.592-.164c-.2-.11-.3-.206-.3-.293v-4.5c0-.133.112-.237.337-.31a1.872 1.872 0 01.556-.11z" />
        <path data-name="Path 20214"
          d="M105.969 43.528a5.133 5.133 0 013.109.912 7.17 7.17 0 011.978 2.143 8.944 8.944 0 011.031 2.505 9.353 9.353 0 01.3 1.988 11.22 11.22 0 01-1.8 6.044 14.874 14.874 0 01-5.405 4.932q-.42-.455-.867-.993t-.93-1.085c-.321-.364-.626-.715-.911-1.049s-.544-.635-.775-.9a16.864 16.864 0 001.97-1.149 7.325 7.325 0 001.659-1.585h-5.2a7.891 7.891 0 01-.611-1.614 9.732 9.732 0 01-.355-2.762 9.6 9.6 0 01.355-2.5 7.041 7.041 0 011.158-2.389 6.409 6.409 0 012.105-1.787 6.573 6.573 0 013.189-.711zm1.369 6.382a1.667 1.667 0 00-.575-1.25 1.841 1.841 0 00-1.285-.538 1.863 1.863 0 00-1.285.521 1.642 1.642 0 00-.575 1.267z" />
        <path data-name="Path 20215"
          d="M127.081 53.081a3.576 3.576 0 01-1.1 1.139 5.877 5.877 0 01-1.422.675 7.23 7.23 0 01-1.585.319q-.822.074-1.641.074h-6.309v-5.375h5.07c.85 0 1.276-.335 1.276-1a2.939 2.939 0 00-.293-1.1l-2.132-4.32 4.85-2.352 2.352 4.849q.526 1.078 1.029 2.335a6.809 6.809 0 01.5 2.552 5.065 5.065 0 01-.128 1.121 3.4 3.4 0 01-.467 1.083z" />
        <path data-name="Path 20216"
          d="M131.622 58.35q1.111-.894 1.952-1.7a8.2 8.2 0 001.44-1.851 9.494 9.494 0 00.957-2.525 22.591 22.591 0 00.5-3.719l5.378.347a27.458 27.458 0 01-.675 4.73 14.972 14.972 0 01-1.331 3.528 13.235 13.235 0 01-2.051 2.825 25.878 25.878 0 01-2.816 2.534zm7.877-12.287a3.178 3.178 0 01-3.246-3.246 3.1 3.1 0 01.93-2.279 3.144 3.144 0 012.316-.929 3.174 3.174 0 013.208 3.208 3.142 3.142 0 01-.93 2.316 3.1 3.1 0 01-2.28.93z" />
        <path data-name="Path 20217" d="M144.273 36.946h5.45v18.341h-5.45z" />
        <path data-name="Path 20218"
          d="M178.639 46.022v4.029q0 5.234-5.869 5.233h-13.71q-5.853 0-5.851-5.233v-4.029h5.378v2.06a2.8 2.8 0 00.3 1.186 1.253 1.253 0 001.267.639h11.541a1.294 1.294 0 001.285-.639 2.682 2.682 0 00.319-1.186v-2.06zm-18.3-8.4h9.554v4.592h-9.558z" />
        <path data-name="Path 20219"
          d="M193.572 55.288a12.594 12.594 0 01-2.389 3.7 16.12 16.12 0 01-3.919 3.062c-.281-.3-.569-.635-.867-.993s-.6-.72-.912-1.085l-.893-1.049q-.428-.5-.775-.9a16.741 16.741 0 001.969-1.149 7.251 7.251 0 001.66-1.585h-5.2a6.333 6.333 0 01-.648-1.614 9.733 9.733 0 01-.355-2.762 9.6 9.6 0 01.355-2.5 6.892 6.892 0 011.175-2.389 6.357 6.357 0 015.307-2.5 5.235 5.235 0 012.688.657 6.327 6.327 0 011.869 1.641 8.14 8.14 0 011.157 2.087 10.757 10.757 0 01.556 2h1.228v5.378zm-4.158-5.378a1.692 1.692 0 00-.556-1.25 1.8 1.8 0 00-2.552-.017 1.641 1.641 0 00-.574 1.267z" />
        <path data-name="Path 20220"
          d="M197.891 49.91a6.738 6.738 0 01.11-3.546 6.469 6.469 0 011.95-2.981q2.9-2.663 7.985-2.134l-.529 5.034a8.951 8.951 0 00-2.386.081 3.254 3.254 0 00-1.642.829 1.625 1.625 0 00-.565 1.4 2.051 2.051 0 00.565 1.313h5.2v5.378h-13a1.231 1.231 0 01-.592-.164c-.2-.11-.3-.206-.3-.293v-4.5c0-.133.112-.237.338-.31a1.857 1.857 0 01.555-.11z" />
        <path data-name="Path 20221"
          d="M223.269 53.081a3.562 3.562 0 01-1.1 1.139 5.867 5.867 0 01-1.42.675 7.257 7.257 0 01-1.587.319q-.82.074-1.641.074h-6.306v-5.375h5.068c.85 0 1.276-.335 1.276-1a2.933 2.933 0 00-.292-1.1l-2.134-4.32 4.85-2.352 2.352 4.849q.528 1.078 1.029 2.335a6.809 6.809 0 01.5 2.552 4.99 4.99 0 01-.128 1.121 3.34 3.34 0 01-.467 1.083z" />
      </g>
    </g>
  </symbol>
</svg>